<svg xmlns="http://www.w3.org/2000/svg" xmlns:xlink="http://www.w3.org/1999/xlink" width="600" zoomAndPan="magnify" viewBox="0 0 450 299.999988" height="400" preserveAspectRatio="xMidYMid meet" version="1.0"><defs><clipPath id="id1"><path d="M 75 170 L 205 170 L 205 253 L 75 253 Z M 75 170 " clip-rule="nonzero"/></clipPath><clipPath id="id2"><path d="M 64.847656 238.035156 L 109.3125 133.878906 L 207.257812 175.691406 L 162.796875 279.847656 Z M 64.847656 238.035156 " clip-rule="nonzero"/></clipPath><clipPath id="id3"><path d="M 64.847656 238.035156 L 109.3125 133.878906 L 207.257812 175.691406 L 162.796875 279.847656 Z M 64.847656 238.035156 " clip-rule="nonzero"/></clipPath><clipPath id="id4"><path d="M 0 0 L 87 0 L 87 73 L 0 73 Z M 0 0 " clip-rule="nonzero"/></clipPath><clipPath id="id5"><path d="M -12.847656 77.707031 L -36.933594 -41.382812 L 74.804688 -63.980469 L 98.886719 55.109375 Z M -12.847656 77.707031 " clip-rule="nonzero"/></clipPath><clipPath id="id6"><path d="M -12.847656 77.707031 L -36.933594 -41.382812 L 74.804688 -63.980469 L 98.886719 55.109375 Z M -12.847656 77.707031 " clip-rule="nonzero"/></clipPath><clipPath id="id7"><path d="M 344 184 L 450 184 L 450 300 L 344 300 Z M 344 184 " clip-rule="nonzero"/></clipPath><clipPath id="id8"><path d="M 356.015625 335.371094 L 330 206.726562 L 451.292969 182.195312 L 477.3125 310.839844 Z M 356.015625 335.371094 " clip-rule="nonzero"/></clipPath><clipPath id="id9"><path d="M 356.015625 335.371094 L 330 206.726562 L 451.292969 182.195312 L 477.3125 310.839844 Z M 356.015625 335.371094 " clip-rule="nonzero"/></clipPath><clipPath id="id10"><path d="M 35.859375 52.894531 L 197.859375 52.894531 L 197.859375 214.894531 L 35.859375 214.894531 Z M 35.859375 52.894531 " clip-rule="nonzero"/></clipPath><clipPath id="id11"><path d="M 46.910156 52.894531 L 207.410156 52.894531 L 207.410156 213.394531 L 46.910156 213.394531 Z M 46.910156 52.894531 " clip-rule="nonzero"/></clipPath></defs><rect x="-45" width="540" fill="#ffffff" y="-29.999999" height="359.999986" fill-opacity="1"/><rect x="-45" width="540" fill="#e8e3f4" y="-29.999999" height="359.999986" fill-opacity="1"/><rect x="-45" width="540" fill="#ffffff" y="-29.999999" height="359.999986" fill-opacity="1"/><rect x="-45" width="540" fill="#e8e3f4" y="-29.999999" height="359.999986" fill-opacity="1"/><g clip-path="url(#id1)"><g clip-path="url(#id2)"><g clip-path="url(#id3)"><path fill="#ffffff" d="M 201.648438 188.359375 C 199.929688 192.089844 198.148438 195.820312 196.488281 199.570312 C 194.917969 203.171875 193.507812 206.84375 191.964844 210.457031 C 190.972656 212.78125 189.769531 215.011719 188.925781 217.425781 C 187.738281 220.722656 186.351562 223.96875 184.792969 227.109375 C 183.5 229.769531 181.566406 232.03125 179.160156 233.71875 C 175.441406 236.277344 171.378906 238.257812 167.085938 239.605469 C 165.082031 240.277344 163.09375 241.050781 161.152344 241.9375 C 157.847656 243.460938 154.316406 244.414062 150.722656 244.785156 C 147.84375 245.082031 144.953125 245.410156 142.101562 245.875 C 140.328125 246.148438 138.578125 246.585938 136.863281 247.164062 C 132.765625 248.566406 128.476562 249.386719 124.15625 249.628906 C 120.613281 249.800781 117.078125 250.476562 113.738281 251.640625 C 110.078125 253.039062 106.386719 252.898438 102.691406 252.039062 C 99.675781 251.34375 96.675781 250.6875 93.675781 249.8125 C 89.835938 248.703125 86.242188 246.949219 83.046875 244.558594 C 80.683594 242.769531 78.941406 240.339844 78.023438 237.515625 C 75.507812 230.453125 75.078125 222.816406 76.796875 215.503906 C 77.722656 211.5 78.640625 207.523438 79.832031 203.636719 C 80.722656 200.960938 81.8125 198.335938 83.074219 195.820312 C 84.597656 192.539062 86.277344 189.265625 88.835938 186.644531 C 91.691406 183.683594 94.671875 180.871094 97.707031 178.082031 C 98.589844 177.335938 99.605469 176.707031 100.671875 176.257812 C 102.671875 175.304688 104.714844 174.398438 106.789062 173.566406 C 110.519531 172.074219 114.367188 170.75 118.402344 170.445312 C 122.058594 170.074219 125.722656 171.234375 128.519531 173.613281 C 129.34375 174.308594 130.347656 174.738281 131.425781 174.851562 C 133.242188 175.128906 135.015625 175.667969 136.699219 176.480469 C 138.269531 177.117188 139.914062 177.507812 141.585938 177.691406 C 147.394531 178.425781 153.230469 178.890625 159.136719 178.230469 C 165.464844 177.53125 171.746094 176.5 178.007812 175.371094 C 181.5625 174.734375 185.121094 174.226562 188.683594 173.566406 C 190.074219 173.316406 191.410156 172.886719 192.78125 172.535156 C 194.539062 172.070312 196.378906 172.078125 198.132812 172.511719 C 201.878906 173.394531 204.371094 176.925781 204 180.726562 C 203.609375 183.398438 202.851562 185.976562 201.648438 188.359375 Z M 131.671875 175.738281 C 130.386719 175.75 129.148438 175.285156 128.183594 174.46875 C 125.40625 171.972656 121.667969 170.84375 117.941406 171.375 C 115.363281 171.707031 112.828125 172.308594 110.382812 173.199219 C 106.832031 174.492188 103.378906 176.074219 99.890625 177.578125 C 99.378906 177.828125 98.871094 178.140625 98.445312 178.550781 C 95.027344 181.429688 91.847656 184.5625 88.914062 187.925781 C 86.757812 190.40625 85.25 193.285156 83.898438 196.234375 C 82.65625 198.699219 81.589844 201.269531 80.683594 203.90625 C 79.542969 207.535156 78.765625 211.257812 77.804688 214.964844 C 76.183594 221.476562 76.242188 228.367188 78.042969 234.90625 C 78.992188 238.613281 80.734375 241.917969 84.003906 244.21875 C 86.53125 245.984375 89.296875 247.410156 92.230469 248.445312 C 96.125 249.859375 100.199219 250.632812 104.28125 251.46875 C 107.191406 252.117188 110.257812 251.960938 113.054688 250.972656 C 116.710938 249.726562 120.527344 248.984375 124.386719 248.792969 C 128.660156 248.589844 132.871094 247.734375 136.859375 246.289062 C 137.441406 246.101562 138.023438 245.914062 138.617188 245.761719 C 142.246094 244.875 145.917969 244.324219 149.648438 244.074219 C 153.105469 243.804688 156.507812 243.011719 159.695312 241.691406 C 162.796875 240.425781 165.917969 239.261719 169.0625 238.046875 C 172.5625 236.734375 175.902344 234.980469 178.976562 232.828125 C 181.964844 230.734375 183.726562 227.777344 185.101562 224.558594 C 186.386719 221.550781 187.535156 218.488281 188.792969 215.46875 C 190.550781 211.351562 192.375 207.296875 194.078125 203.160156 C 196.042969 198.414062 198.113281 193.714844 200.457031 189.101562 C 201.746094 186.59375 202.621094 183.878906 203.070312 181.078125 C 203.757812 176.753906 200.621094 174.074219 197.664062 173.3125 C 195.757812 172.808594 193.886719 173.164062 191.980469 173.597656 C 189.140625 174.257812 186.320312 174.863281 183.46875 175.390625 C 179.507812 176.101562 175.558594 176.789062 171.582031 177.398438 C 163.484375 178.652344 155.375 180.085938 147.105469 179.113281 C 143.863281 178.726562 140.671875 178.300781 137.472656 177.808594 C 135.691406 177.515625 133.992188 177.039062 132.230469 176.695312 C 131.632812 176.5625 131.527344 176.300781 131.671875 175.738281 Z M 122.222656 179.0625 C 124.519531 180.046875 126.417969 181.605469 128.410156 183.015625 C 135.875 188.292969 143.980469 192.28125 152.980469 194.035156 C 156.066406 194.636719 159.21875 194.796875 162.273438 193.636719 C 163.054688 193.34375 163.816406 192.953125 164.523438 192.539062 C 166.5625 191.351562 168.773438 190.421875 171.039062 189.796875 C 172.976562 189.285156 175.035156 189.289062 177.007812 189.789062 C 177.90625 189.953125 178.722656 190.457031 179.28125 191.195312 C 179.90625 191.929688 180.40625 192.738281 180.847656 193.609375 C 183.820312 199.964844 184.945312 206.992188 184.09375 213.960938 C 183.757812 216.4375 182.859375 218.828125 181.441406 220.90625 C 179.828125 223.367188 178.378906 225.960938 176.140625 227.90625 C 173.183594 230.511719 170.105469 232.972656 166.371094 234.402344 C 161.761719 236.117188 156.796875 236.773438 151.890625 236.332031 C 145.351562 235.847656 138.789062 235.480469 132.238281 235.085938 C 128.847656 234.976562 125.453125 235.679688 122.390625 237.148438 C 119.242188 238.519531 116.058594 239.6875 112.878906 240.917969 C 110.703125 241.765625 108.53125 242.679688 106.3125 243.417969 C 104.945312 243.832031 103.558594 244.082031 102.152344 244.230469 C 100.582031 244.464844 99.003906 243.914062 97.933594 242.769531 C 97.234375 242.066406 96.511719 241.414062 95.910156 240.628906 C 93.964844 238.300781 92.046875 235.988281 90.203125 233.578125 C 86.929688 229.308594 85.507812 224.523438 86.191406 219.109375 C 86.886719 214.039062 87.769531 209.050781 89.597656 204.25 C 91.601562 199.117188 94.863281 194.550781 99.074219 190.984375 C 102.449219 188.058594 105.914062 185.203125 109.359375 182.335938 C 110.925781 181.007812 112.671875 179.914062 114.554688 179.097656 C 115.054688 178.875 115.453125 178.453125 115.996094 178.277344 C 116.546875 178.015625 117.167969 177.875 117.777344 177.914062 C 119.269531 178.148438 120.722656 178.550781 122.222656 178.847656 Z M 90.636719 203.945312 C 88.636719 208.921875 87.566406 214.425781 86.960938 220.089844 C 86.496094 224.105469 87.492188 228.144531 89.78125 231.492188 C 92.238281 235.101562 94.996094 238.523438 97.984375 241.699219 C 99.242188 243.144531 101.171875 243.75 103.011719 243.316406 C 105.238281 242.925781 107.441406 242.308594 109.535156 241.425781 C 112.035156 240.402344 114.558594 239.390625 117.085938 238.378906 C 118.632812 237.757812 120.222656 237.253906 121.683594 236.535156 C 125.132812 234.828125 128.996094 234.042969 132.84375 234.25 C 139.539062 234.675781 146.246094 235.136719 152.921875 235.523438 C 158.078125 235.820312 163.085938 235.214844 167.726562 232.832031 C 172.675781 230.390625 176.847656 226.617188 179.808594 221.957031 C 181.601562 219.070312 183.148438 216.175781 183.402344 212.730469 C 183.835938 207.613281 183.199219 202.445312 181.5 197.570312 C 180.867188 195.832031 180.109375 194.167969 179.25 192.523438 C 178.820312 191.621094 178.019531 190.9375 177.074219 190.660156 C 175.488281 190.203125 173.835938 190.121094 172.21875 190.394531 C 169.691406 190.90625 167.277344 191.871094 165.082031 193.210938 C 162.933594 194.511719 160.480469 195.207031 157.960938 195.257812 C 154.082031 195.410156 150.320312 194.488281 146.707031 193.289062 C 139.773438 191.015625 133.273438 187.648438 127.410156 183.304688 C 125.332031 181.734375 123.253906 180.160156 120.746094 179.371094 C 118.949219 178.820312 117.082031 178.148438 115.414062 179.714844 C 115.316406 179.796875 115.164062 179.855469 115.050781 179.902344 C 113.183594 180.695312 111.484375 181.746094 109.929688 183.046875 C 106.546875 185.847656 103.164062 188.644531 99.839844 191.53125 C 95.835938 194.90625 92.683594 199.140625 90.636719 203.945312 Z M 134.320312 178.460938 C 134.378906 178.328125 134.25 178.117188 134.171875 177.929688 C 133.984375 178.003906 133.730469 178.019531 133.621094 178.128906 C 133.5 178.265625 133.691406 178.472656 133.75 178.777344 C 133.988281 178.660156 134.265625 178.589844 134.320312 178.460938 Z M 173.238281 218.308594 C 171.378906 222.007812 169.046875 225.128906 165.304688 226.867188 C 163.886719 227.480469 162.40625 227.875 160.886719 228.070312 C 157.476562 228.515625 154.050781 228.488281 150.636719 228 C 145.152344 227.308594 139.570312 227.203125 134.054688 227.6875 C 132.851562 227.796875 131.609375 227.921875 130.398438 227.90625 C 126.429688 227.832031 122.683594 228.851562 118.949219 230.128906 C 116.390625 231 113.769531 231.722656 111.148438 232.382812 C 108.957031 232.972656 106.648438 232.675781 104.675781 231.582031 C 102.277344 230.246094 100.355469 228.460938 99.46875 225.773438 C 98.339844 222.421875 97.492188 219.066406 97.964844 215.464844 C 98.363281 212.921875 99.296875 210.511719 100.6875 208.359375 C 102.933594 204.703125 105.71875 201.398438 108.941406 198.535156 C 110.113281 197.476562 111.175781 196.304688 112.398438 195.269531 C 113.914062 193.984375 115.542969 192.804688 117.15625 191.59375 C 117.5625 191.296875 118.023438 191.027344 118.429688 190.730469 C 118.820312 190.398438 119.066406 189.820312 119.648438 190.503906 C 119.703125 190.527344 119.917969 190.464844 120.03125 190.417969 C 121.726562 189.738281 123.605469 189.730469 125.292969 190.386719 C 126.859375 190.960938 128.5625 191.222656 130.171875 191.691406 C 133.0625 192.613281 135.800781 193.875 138.382812 195.445312 C 140.34375 196.5625 142.183594 197.816406 144.152344 198.90625 C 145.164062 199.464844 146.210938 199.941406 147.277344 200.300781 C 147.75 200.503906 148.285156 200.574219 148.78125 200.507812 C 152.558594 199.5625 156.339844 200.148438 160.089844 200.21875 C 161.984375 200.25 163.871094 200.367188 165.753906 200.640625 C 168.710938 201.03125 171.269531 202.871094 172.554688 205.570312 C 174.753906 209.785156 174.617188 214.125 173.179688 218.378906 Z M 132.753906 193.480469 C 132.109375 193.234375 131.328125 192.871094 130.476562 192.664062 C 128.578125 192.132812 126.605469 191.851562 124.769531 191.101562 C 122.496094 190.128906 120.441406 190.996094 118.597656 191.800781 C 116.617188 192.703125 114.949219 194.269531 113.222656 195.683594 C 111.921875 196.75 110.75 198.027344 109.507812 199.183594 C 106.347656 201.980469 103.609375 205.242188 101.386719 208.84375 C 100.140625 210.808594 99.28125 212.96875 98.867188 215.253906 C 98.328125 218.863281 99.160156 222.179688 100.304688 225.507812 C 101.132812 227.949219 102.878906 229.570312 105.039062 230.804688 C 107.199219 232.039062 109.386719 232.035156 111.65625 231.414062 C 114.261719 230.71875 116.816406 229.933594 119.363281 229.089844 C 122.832031 227.917969 126.304688 227.03125 129.984375 227.042969 C 131.144531 227.039062 132.335938 226.953125 133.476562 226.847656 C 139.261719 226.324219 145.121094 226.425781 150.878906 227.136719 C 153.941406 227.507812 157.035156 227.578125 160.121094 227.304688 C 163.8125 227.074219 167.230469 225.289062 169.535156 222.375 C 173.230469 217.960938 174.386719 213.058594 172.53125 207.527344 C 171.179688 203.519531 168.371094 201.386719 164.125 201.164062 C 162.1875 201.085938 160.238281 200.96875 158.292969 200.917969 C 155.117188 200.8125 151.949219 200.550781 148.800781 201.265625 C 148.191406 201.378906 147.566406 201.300781 147.011719 201.0625 C 145.5625 200.507812 144.183594 199.855469 142.835938 199.0625 C 139.582031 196.953125 136.195312 195.074219 132.683594 193.417969 Z M 137.898438 201.039062 C 139.964844 202.203125 142.058594 203.375 144.203125 204.574219 C 144.5625 204.757812 144.921875 204.941406 145.261719 205.089844 C 145.371094 205.132812 145.554688 205.210938 145.59375 205.195312 C 146.214844 204.621094 146.652344 205.277344 147.148438 205.425781 C 148.136719 205.753906 149.148438 206.089844 150.167969 206.339844 C 151.859375 206.6875 153.484375 207.351562 154.957031 208.289062 C 157.421875 210.058594 158.460938 213.1875 157.570312 216.078125 C 156.398438 219.699219 152.726562 221.933594 148.96875 221.296875 C 145.496094 220.71875 141.992188 220.660156 138.484375 220.53125 C 136.175781 220.453125 133.859375 220.460938 131.558594 220.355469 C 127.363281 220.089844 123.15625 221.007812 119.457031 223.015625 C 117.777344 223.953125 115.929688 224.472656 114.03125 224.597656 C 111.515625 224.710938 109.871094 223.664062 108.964844 221.3125 C 108.691406 220.570312 108.527344 219.785156 108.515625 219 C 108.375 216.476562 109.175781 214.167969 110.0625 211.863281 C 111.554688 208.226562 113.824219 204.953125 116.738281 202.300781 C 117.980469 201.144531 119.53125 200.371094 121.199219 200.054688 C 123.015625 199.675781 124.804688 199.285156 126.640625 199.011719 C 129.027344 198.625 131.359375 199.089844 133.644531 199.660156 C 135.058594 200.011719 136.425781 200.535156 137.9375 201.023438 Z M 137.5625 201.832031 C 136.078125 201.355469 134.75 200.878906 133.402344 200.523438 C 131.285156 199.992188 129.121094 199.570312 126.953125 199.890625 C 125.015625 200.1875 123.085938 200.609375 121.164062 201.007812 C 119.589844 201.332031 118.15625 202.125 117.027344 203.234375 C 113.519531 206.476562 111.019531 210.648438 109.769531 215.261719 C 109.269531 216.796875 109.136719 218.421875 109.417969 220.039062 C 110.019531 222.730469 111.558594 223.949219 114.210938 223.738281 C 114.75 223.71875 115.285156 223.636719 115.792969 223.476562 C 117.054688 223.082031 118.296875 222.582031 119.5 222.035156 C 122.652344 220.355469 126.167969 219.519531 129.746094 219.550781 C 131.449219 219.589844 133.144531 219.71875 134.867188 219.707031 C 139.886719 219.730469 144.921875 219.726562 149.902344 220.574219 C 151.265625 220.8125 152.671875 220.445312 153.738281 219.558594 C 154.441406 219.015625 155.074219 218.414062 155.691406 217.773438 C 157.667969 215.625 157.433594 210.6875 154.472656 208.988281 C 153.035156 208.1875 151.515625 207.570312 149.933594 207.175781 C 148.835938 206.894531 147.757812 206.496094 146.664062 206.125 C 146.230469 205.96875 145.855469 205.527344 145.367188 205.941406 C 145.308594 206.011719 145.070312 205.910156 144.910156 205.84375 C 144.515625 205.671875 144.089844 205.492188 143.730469 205.242188 C 141.609375 204.058594 139.527344 202.859375 137.558594 201.765625 Z M 137.5625 201.832031 " fill-opacity="1" fill-rule="nonzero"/></g></g></g><g clip-path="url(#id4)"><g clip-path="url(#id5)"><g clip-path="url(#id6)"><path fill="#ffffff" d="M 77.550781 -49.371094 C 78.304688 -45.035156 79 -40.652344 79.8125 -36.328125 C 80.617188 -32.1875 81.605469 -28.085938 82.441406 -23.953125 C 82.976562 -21.300781 83.273438 -18.597656 83.996094 -15.949219 C 84.953125 -12.3125 85.703125 -8.601562 86.238281 -4.878906 C 86.714844 -1.742188 86.382812 1.433594 85.285156 4.386719 C 83.566406 8.910156 81.1875 13.128906 78.21875 16.933594 C 76.859375 18.746094 75.582031 20.636719 74.40625 22.601562 C 72.417969 25.953125 69.886719 28.949219 66.941406 31.457031 C 64.585938 33.472656 62.238281 35.519531 60.007812 37.664062 C 58.609375 38.984375 57.332031 40.433594 56.171875 41.988281 C 53.414062 45.71875 50.132812 49.050781 46.472656 51.894531 C 43.453125 54.199219 40.746094 56.945312 38.507812 60.003906 C 36.132812 63.46875 32.796875 65.585938 29.015625 67.074219 C 25.9375 68.292969 22.894531 69.535156 19.714844 70.585938 C 15.660156 71.941406 11.425781 72.578125 7.152344 72.40625 C 3.988281 72.261719 0.972656 71.175781 -1.550781 69.234375 C -8.058594 64.523438 -13.074219 58.035156 -16.007812 50.527344 C -17.621094 46.425781 -19.226562 42.355469 -20.539062 38.191406 C -21.378906 35.285156 -22.011719 32.304688 -22.429688 29.3125 C -23.078125 25.488281 -23.589844 21.570312 -22.925781 17.703125 C -22.207031 13.347656 -21.289062 9.050781 -20.308594 4.738281 C -19.984375 3.542969 -19.46875 2.371094 -18.800781 1.324219 C -17.617188 -0.734375 -16.367188 -2.777344 -15.046875 -4.773438 C -12.664062 -8.363281 -10.078125 -11.867188 -6.707031 -14.589844 C -3.707031 -17.144531 0.222656 -18.347656 4.132812 -17.945312 C 5.285156 -17.832031 6.429688 -18.0625 7.449219 -18.617188 C 9.222656 -19.476562 11.109375 -20.078125 13.085938 -20.382812 C 14.859375 -20.773438 16.546875 -21.429688 18.132812 -22.28125 C 23.699219 -25.167969 29.121094 -28.304688 33.925781 -32.480469 C 39.078125 -36.945312 43.992188 -41.671875 48.824219 -46.480469 C 51.570312 -49.203125 54.398438 -51.816406 57.136719 -54.566406 C 58.210938 -55.632812 59.128906 -56.824219 60.121094 -57.964844 C 61.390625 -59.449219 63.019531 -60.5625 64.828125 -61.242188 C 68.664062 -62.738281 73.007812 -61.136719 74.988281 -57.550781 C 76.265625 -54.953125 77.164062 -52.214844 77.550781 -49.371094 Z M 8.207031 -17.984375 C 7.078125 -17.191406 5.703125 -16.847656 4.359375 -16.984375 C 0.394531 -17.503906 -3.585938 -16.226562 -6.546875 -13.492188 C -8.617188 -11.628906 -10.488281 -9.554688 -12.101562 -7.28125 C -14.445312 -3.984375 -16.53125 -0.484375 -18.6875 2.96875 C -18.988281 3.5 -19.246094 4.085938 -19.375 4.707031 C -20.636719 9.328125 -21.535156 14.03125 -22.082031 18.785156 C -22.46875 22.289062 -22.050781 25.75 -21.453125 29.179688 C -21.046875 32.109375 -20.425781 35.03125 -19.625 37.914062 C -18.425781 41.816406 -16.851562 45.578125 -15.441406 49.4375 C -12.917969 56.179688 -8.679688 62.230469 -3.121094 66.914062 C -0.03125 69.621094 3.515625 71.476562 7.792969 71.523438 C 11.089844 71.546875 14.398438 71.128906 17.609375 70.257812 C 21.902344 69.140625 25.964844 67.34375 30.070312 65.605469 C 33.027344 64.410156 35.636719 62.40625 37.5 59.832031 C 39.964844 56.507812 42.878906 53.53125 46.167969 51.011719 C 49.8125 48.234375 53 44.921875 55.640625 41.214844 C 56.039062 40.695312 56.433594 40.175781 56.867188 39.679688 C 59.527344 36.695312 62.429688 33.972656 65.566406 31.484375 C 68.449219 29.144531 70.964844 26.375 72.972656 23.269531 C 74.941406 20.265625 76.984375 17.339844 79.015625 14.351562 C 81.300781 11.066406 83.183594 7.480469 84.585938 3.714844 C 85.945312 0.046875 85.703125 -3.640625 84.957031 -7.320312 C 84.261719 -10.757812 83.417969 -14.167969 82.691406 -17.601562 C 81.738281 -22.304688 80.882812 -27 79.871094 -31.691406 C 78.71875 -37.078125 77.6875 -42.492188 76.953125 -47.996094 C 76.566406 -50.992188 75.6875 -53.925781 74.378906 -56.671875 C 72.363281 -60.914062 67.96875 -61.375 64.902344 -60.25 C 62.910156 -59.535156 61.480469 -58.082031 60.066406 -56.542969 C 57.957031 -54.230469 55.839844 -51.980469 53.648438 -49.78125 C 50.589844 -46.746094 47.527344 -43.738281 44.390625 -40.78125 C 38.015625 -34.75 31.738281 -28.550781 23.855469 -24.382812 C 20.765625 -22.753906 17.691406 -21.1875 14.578125 -19.679688 C 12.832031 -18.855469 11.039062 -18.242188 9.28125 -17.476562 C 8.671875 -17.230469 8.417969 -17.398438 8.207031 -17.984375 Z M 1.898438 -9.296875 C 4.519531 -9.828125 7.136719 -9.605469 9.75 -9.566406 C 19.535156 -9.441406 29.105469 -10.84375 38.105469 -14.769531 C 41.191406 -16.113281 44.0625 -17.886719 46.054688 -20.769531 C 46.566406 -21.503906 46.996094 -22.3125 47.371094 -23.109375 C 48.445312 -25.398438 49.828125 -27.5625 51.445312 -29.492188 C 52.839844 -31.125 54.660156 -32.371094 56.703125 -33.128906 C 57.59375 -33.53125 58.621094 -33.578125 59.5625 -33.269531 C 60.558594 -33 61.488281 -32.589844 62.40625 -32.085938 C 68.886719 -28.277344 74.148438 -22.75 77.632812 -16.074219 C 78.839844 -13.679688 79.503906 -11.019531 79.515625 -8.324219 C 79.585938 -5.167969 79.882812 -1.992188 79.09375 1.085938 C 78.074219 5.1875 76.851562 9.234375 74.429688 12.769531 C 71.410156 17.085938 67.429688 20.683594 62.839844 23.277344 C 56.777344 26.824219 50.773438 30.488281 44.757812 34.125 C 41.707031 36.089844 39.140625 38.777344 37.332031 41.9375 C 35.390625 45.0625 33.292969 48.027344 31.238281 51.050781 C 29.835938 53.125 28.476562 55.25 26.96875 57.25 C 26.015625 58.449219 24.945312 59.511719 23.796875 60.5 C 22.554688 61.660156 20.832031 62.132812 19.191406 61.777344 C 18.144531 61.578125 17.113281 61.441406 16.105469 61.113281 C 12.976562 60.238281 9.882812 59.355469 6.789062 58.347656 C 1.316406 56.566406 -2.847656 53.203125 -5.53125 48 C -8 43.097656 -10.253906 38.152344 -11.558594 32.796875 C -12.910156 27.042969 -12.808594 21.023438 -11.265625 15.3125 C -10.070312 10.675781 -8.746094 6.042969 -7.453125 1.417969 C -6.878906 -0.707031 -6.003906 -2.738281 -4.84375 -4.605469 C -4.535156 -5.109375 -4.441406 -5.722656 -4.070312 -6.207031 C -3.746094 -6.773438 -3.28125 -7.277344 -2.71875 -7.609375 C -1.261719 -8.3125 0.261719 -8.839844 1.761719 -9.488281 Z M -10.828125 31.894531 C -9.570312 37.511719 -7.167969 43.023438 -4.257812 48.402344 C -2.230469 52.230469 1.101562 55.199219 5.152344 56.765625 C 9.511719 58.457031 14.019531 59.808594 18.585938 60.800781 C 20.570312 61.308594 22.636719 60.671875 23.996094 59.171875 C 25.726562 57.472656 27.289062 55.585938 28.601562 53.53125 C 30.179688 51.105469 31.792969 48.675781 33.402344 46.246094 C 34.390625 44.761719 35.484375 43.347656 36.335938 41.824219 C 38.339844 38.214844 41.269531 35.175781 44.789062 33.019531 C 50.945312 29.324219 57.136719 25.65625 63.257812 21.9375 C 67.980469 19.066406 72.027344 15.484375 74.671875 10.554688 C 77.546875 5.386719 78.933594 -0.480469 78.710938 -6.402344 C 78.539062 -10.039062 78.144531 -13.539062 76.273438 -16.742188 C 73.546875 -21.527344 69.847656 -25.707031 65.386719 -28.984375 C 63.773438 -30.132812 62.09375 -31.144531 60.335938 -32.074219 C 59.414062 -32.609375 58.289062 -32.726562 57.289062 -32.402344 C 55.613281 -31.839844 54.109375 -30.910156 52.851562 -29.679688 C 50.929688 -27.691406 49.390625 -25.371094 48.269531 -22.851562 C 47.164062 -20.398438 45.425781 -18.289062 43.234375 -16.714844 C 39.910156 -14.222656 36.035156 -12.746094 32.121094 -11.609375 C 24.628906 -9.40625 16.851562 -8.429688 9.046875 -8.703125 C 6.257812 -8.828125 3.472656 -8.957031 0.78125 -8.128906 C -1.132812 -7.523438 -3.191406 -6.980469 -3.710938 -4.585938 C -3.746094 -4.453125 -3.839844 -4.304688 -3.914062 -4.199219 C -5.078125 -2.359375 -5.9375 -0.398438 -6.519531 1.699219 C -7.800781 6.226562 -9.078125 10.757812 -10.257812 15.328125 C -11.734375 20.746094 -11.941406 26.40625 -10.828125 31.894531 Z M 12.195312 -17.1875 C 12.164062 -17.339844 11.921875 -17.449219 11.742188 -17.566406 C 11.621094 -17.386719 11.402344 -17.21875 11.375 -17.054688 C 11.351562 -16.859375 11.644531 -16.796875 11.882812 -16.558594 C 12.019531 -16.808594 12.226562 -17.039062 12.195312 -17.1875 Z M 70.707031 -5.632812 C 71.3125 -1.234375 71.15625 2.945312 68.914062 6.757812 C 68.035156 8.160156 66.96875 9.410156 65.75 10.503906 C 63.015625 12.972656 59.980469 15.03125 56.671875 16.675781 C 51.417969 19.402344 46.433594 22.699219 41.863281 26.484375 C 40.871094 27.3125 39.855469 28.175781 38.777344 28.898438 C 35.234375 31.246094 32.550781 34.425781 30.035156 37.824219 C 28.308594 40.152344 26.4375 42.382812 24.527344 44.558594 C 22.957031 46.414062 20.738281 47.554688 18.335938 47.789062 C 15.414062 48.066406 12.628906 47.65625 10.21875 45.820312 C 7.1875 43.542969 4.398438 41.09375 2.628906 37.621094 C 1.4375 35.128906 0.796875 32.433594 0.710938 29.6875 C 0.472656 25.089844 0.921875 20.476562 2.019531 15.984375 C 2.410156 14.335938 2.632812 12.65625 3.082031 10.996094 C 3.640625 8.9375 4.359375 6.910156 5.042969 4.855469 C 5.222656 4.347656 5.460938 3.828125 5.640625 3.320312 C 5.785156 2.789062 5.652344 2.125 6.578125 2.378906 C 6.640625 2.367188 6.789062 2.179688 6.863281 2.070312 C 7.945312 0.4375 9.59375 -0.710938 11.484375 -1.15625 C 13.214844 -1.601562 14.871094 -2.40625 16.574219 -2.972656 C 19.679688 -3.914062 22.863281 -4.464844 26.089844 -4.644531 C 28.5 -4.851562 30.882812 -4.859375 33.28125 -5.09375 C 34.511719 -5.21875 35.722656 -5.433594 36.882812 -5.761719 C 37.425781 -5.871094 37.9375 -6.128906 38.332031 -6.492188 C 41.089844 -9.625 44.777344 -11.40625 48.125 -13.625 C 49.8125 -14.75 51.546875 -15.792969 53.375 -16.695312 C 56.21875 -18.148438 59.589844 -18.078125 62.363281 -16.472656 C 66.863281 -14.085938 69.382812 -10.167969 70.695312 -5.535156 Z M 19.9375 -2.960938 C 19.21875 -2.785156 18.308594 -2.632812 17.433594 -2.296875 C 15.4375 -1.613281 13.527344 -0.660156 11.453125 -0.210938 C 8.863281 0.316406 7.574219 2.332031 6.4375 4.164062 C 5.242188 6.164062 4.722656 8.5625 4.058594 10.863281 C 3.5625 12.597656 3.308594 14.4375 2.914062 16.210938 C 1.824219 20.609375 1.394531 25.152344 1.621094 29.691406 C 1.71875 32.183594 2.273438 34.617188 3.296875 36.890625 C 5.011719 40.402344 7.761719 42.832031 10.789062 45.074219 C 13.007812 46.730469 15.53125 47.097656 18.183594 46.875 C 20.839844 46.652344 22.765625 45.320312 24.382812 43.394531 C 26.261719 41.191406 28.035156 38.949219 29.769531 36.652344 C 32.113281 33.507812 34.636719 30.613281 37.886719 28.386719 C 38.90625 27.675781 39.90625 26.878906 40.84375 26.09375 C 45.625 22.109375 50.855469 18.636719 56.359375 15.765625 C 59.285156 14.230469 62.054688 12.414062 64.609375 10.296875 C 67.722656 7.847656 69.648438 4.191406 69.910156 0.214844 C 70.488281 -5.933594 68.527344 -10.96875 63.53125 -14.730469 C 59.90625 -17.449219 56.136719 -17.628906 52.253906 -15.242188 C 50.503906 -14.136719 48.714844 -13.050781 46.964844 -11.914062 C 44.105469 -10.078125 41.152344 -8.382812 38.8125 -5.835938 C 38.34375 -5.363281 37.746094 -5.054688 37.113281 -4.929688 C 35.496094 -4.539062 33.886719 -4.277344 32.214844 -4.15625 C 28.066406 -4.039062 23.941406 -3.644531 19.839844 -2.972656 Z M 29.066406 0.59375 C 31.59375 0.363281 34.148438 0.128906 36.769531 -0.117188 C 37.195312 -0.171875 37.625 -0.226562 38.015625 -0.308594 C 38.136719 -0.332031 38.347656 -0.375 38.371094 -0.410156 C 38.570312 -1.296875 39.355469 -0.984375 39.882812 -1.15625 C 40.953125 -1.464844 42.046875 -1.78125 43.097656 -2.183594 C 44.804688 -2.902344 46.636719 -3.304688 48.503906 -3.371094 C 51.75 -3.304688 54.566406 -1.171875 55.539062 1.925781 C 56.707031 5.835938 54.828125 10.046875 51.128906 11.765625 C 47.71875 13.367188 44.589844 15.445312 41.421875 17.464844 C 39.339844 18.796875 37.300781 20.214844 35.210938 21.515625 C 31.351562 23.835938 28.203125 27.203125 26.160156 31.230469 C 25.246094 33.078125 23.9375 34.660156 22.339844 35.925781 C 20.191406 37.554688 18.101562 37.628906 15.878906 36.101562 C 15.183594 35.613281 14.5625 35.019531 14.078125 34.332031 C 12.421875 32.1875 11.722656 29.660156 11.105469 27.082031 C 10.210938 22.960938 10.222656 18.691406 11.179688 14.570312 C 11.574219 12.796875 12.46875 11.171875 13.746094 9.875 C 15.117188 8.4375 16.460938 7.003906 17.910156 5.644531 C 19.777344 3.851562 22.113281 2.847656 24.476562 1.960938 C 25.9375 1.414062 27.460938 1.042969 29.089844 0.558594 Z M 29.25 1.496094 C 27.652344 1.976562 26.191406 2.367188 24.789062 2.871094 C 22.597656 3.691406 20.4375 4.628906 18.71875 6.234375 C 17.191406 7.671875 15.746094 9.222656 14.296875 10.738281 C 13.105469 11.984375 12.324219 13.554688 12.003906 15.222656 C 10.878906 20.222656 11.210938 25.429688 12.910156 30.265625 C 13.402344 31.925781 14.273438 33.445312 15.503906 34.703125 C 17.667969 36.714844 19.765625 36.855469 21.976562 35.058594 C 22.441406 34.710938 22.863281 34.3125 23.210938 33.867188 C 24.082031 32.746094 24.875 31.550781 25.605469 30.335938 C 27.363281 26.933594 29.949219 24.058594 33.125 21.90625 C 34.648438 20.910156 36.222656 19.992188 37.734375 18.933594 C 42.171875 15.902344 46.605469 12.839844 51.511719 10.558594 C 52.859375 9.941406 53.878906 8.761719 54.277344 7.332031 C 54.566406 6.425781 54.757812 5.507812 54.914062 4.566406 C 55.351562 1.460938 52.144531 -2.757812 48.5 -2.457031 C 46.746094 -2.292969 45.035156 -1.914062 43.402344 -1.300781 C 42.261719 -0.882812 41.066406 -0.578125 39.878906 -0.242188 C 39.402344 -0.117188 38.804688 -0.277344 38.625 0.386719 C 38.613281 0.484375 38.34375 0.539062 38.164062 0.574219 C 37.710938 0.664062 37.226562 0.761719 36.757812 0.765625 C 34.171875 1.003906 31.605469 1.210938 29.207031 1.445312 Z M 29.25 1.496094 " fill-opacity="1" fill-rule="nonzero"/></g></g></g><g clip-path="url(#id7)"><g clip-path="url(#id8)"><g clip-path="url(#id9)"><path fill="#ffffff" d="M 454.261719 197.976562 C 455.070312 202.660156 455.824219 207.394531 456.703125 212.066406 C 457.570312 216.539062 458.636719 220.96875 459.542969 225.433594 C 460.121094 228.300781 460.4375 231.21875 461.222656 234.082031 C 462.253906 238.011719 463.066406 242.019531 463.640625 246.039062 C 464.15625 249.429688 463.792969 252.859375 462.601562 256.050781 C 460.726562 260.941406 458.140625 265.5 454.917969 269.613281 C 453.441406 271.574219 452.050781 273.617188 450.773438 275.742188 C 448.613281 279.367188 445.859375 282.605469 442.664062 285.320312 C 440.105469 287.5 437.554688 289.710938 435.128906 292.03125 C 433.613281 293.457031 432.226562 295.027344 430.964844 296.707031 C 427.964844 300.738281 424.402344 304.34375 420.425781 307.421875 C 417.148438 309.914062 414.207031 312.882812 411.773438 316.191406 C 409.191406 319.933594 405.570312 322.226562 401.464844 323.839844 C 398.121094 325.160156 394.816406 326.503906 391.367188 327.644531 C 386.964844 329.113281 382.367188 329.804688 377.734375 329.621094 C 374.296875 329.46875 371.027344 328.296875 368.289062 326.207031 C 361.230469 321.121094 355.792969 314.117188 352.621094 306.007812 C 350.871094 301.578125 349.132812 297.179688 347.710938 292.6875 C 346.804688 289.546875 346.117188 286.328125 345.667969 283.09375 C 344.96875 278.960938 344.421875 274.730469 345.140625 270.546875 C 345.925781 265.84375 346.929688 261.199219 347.996094 256.539062 C 348.347656 255.246094 348.910156 253.980469 349.636719 252.851562 C 350.921875 250.621094 352.28125 248.414062 353.71875 246.257812 C 356.304688 242.378906 359.117188 238.585938 362.78125 235.640625 C 366.035156 232.878906 370.304688 231.574219 374.546875 232.007812 C 375.796875 232.125 377.042969 231.875 378.148438 231.277344 C 380.070312 230.347656 382.117188 229.695312 384.265625 229.363281 C 386.191406 228.9375 388.023438 228.230469 389.742188 227.304688 C 395.789062 224.183594 401.675781 220.789062 406.894531 216.273438 C 412.492188 211.441406 417.828125 206.328125 423.078125 201.128906 C 426.0625 198.183594 429.136719 195.359375 432.109375 192.382812 C 433.273438 191.230469 434.273438 189.941406 435.351562 188.707031 C 436.730469 187.105469 438.5 185.902344 440.460938 185.164062 C 444.628906 183.542969 449.339844 185.269531 451.484375 189.140625 C 452.871094 191.949219 453.84375 194.90625 454.261719 197.976562 Z M 378.964844 231.960938 C 377.742188 232.816406 376.25 233.1875 374.789062 233.042969 C 370.488281 232.488281 366.167969 233.871094 362.953125 236.828125 C 360.703125 238.84375 358.667969 241.085938 356.917969 243.542969 C 354.367188 247.109375 352.101562 250.894531 349.757812 254.625 C 349.429688 255.199219 349.148438 255.832031 349.011719 256.503906 C 347.636719 261.496094 346.65625 266.578125 346.058594 271.71875 C 345.632812 275.503906 346.082031 279.246094 346.730469 282.945312 C 347.164062 286.113281 347.835938 289.269531 348.707031 292.382812 C 350 296.597656 351.707031 300.660156 353.234375 304.832031 C 355.964844 312.113281 360.558594 318.644531 366.589844 323.703125 C 369.9375 326.621094 373.785156 328.621094 378.425781 328.667969 C 382.007812 328.6875 385.59375 328.234375 389.082031 327.292969 C 393.742188 326.078125 398.152344 324.136719 402.609375 322.25 C 405.824219 320.957031 408.65625 318.789062 410.679688 316.003906 C 413.359375 312.410156 416.523438 309.191406 420.097656 306.46875 C 424.054688 303.464844 427.519531 299.878906 430.386719 295.875 C 430.820312 295.3125 431.25 294.75 431.722656 294.214844 C 434.609375 290.984375 437.761719 288.039062 441.167969 285.351562 C 444.300781 282.816406 447.035156 279.820312 449.21875 276.464844 C 451.355469 273.214844 453.578125 270.054688 455.785156 266.824219 C 458.269531 263.269531 460.3125 259.398438 461.839844 255.324219 C 463.320312 251.363281 463.058594 247.378906 462.253906 243.402344 C 461.503906 239.6875 460.589844 236.007812 459.804688 232.296875 C 458.777344 227.214844 457.855469 222.144531 456.761719 217.074219 C 455.515625 211.253906 454.402344 205.410156 453.609375 199.464844 C 453.191406 196.226562 452.242188 193.058594 450.824219 190.089844 C 448.640625 185.511719 443.871094 185.015625 440.542969 186.234375 C 438.382812 187.007812 436.824219 188.578125 435.289062 190.246094 C 433 192.746094 430.699219 195.175781 428.320312 197.558594 C 424.996094 200.839844 421.667969 204.09375 418.261719 207.292969 C 411.339844 213.8125 404.519531 220.519531 395.960938 225.03125 C 392.605469 226.792969 389.265625 228.488281 385.882812 230.121094 C 383.988281 231.011719 382.042969 231.675781 380.132812 232.503906 C 379.472656 232.773438 379.195312 232.59375 378.964844 231.960938 Z M 372.109375 241.351562 C 374.957031 240.777344 377.800781 241.015625 380.632812 241.050781 C 391.253906 241.175781 401.644531 239.652344 411.414062 235.402344 C 414.761719 233.945312 417.882812 232.027344 420.046875 228.910156 C 420.601562 228.117188 421.070312 227.242188 421.476562 226.382812 C 422.644531 223.90625 424.148438 221.566406 425.90625 219.480469 C 427.421875 217.71875 429.398438 216.367188 431.617188 215.546875 C 432.585938 215.113281 433.699219 215.058594 434.71875 215.394531 C 435.800781 215.683594 436.808594 216.125 437.804688 216.667969 C 444.835938 220.773438 450.539062 226.746094 454.316406 233.953125 C 455.621094 236.535156 456.339844 239.410156 456.347656 242.324219 C 456.425781 245.734375 456.742188 249.164062 455.882812 252.492188 C 454.769531 256.921875 453.441406 261.296875 450.808594 265.121094 C 447.527344 269.785156 443.203125 273.679688 438.21875 276.484375 C 431.636719 280.324219 425.113281 284.289062 418.585938 288.222656 C 415.269531 290.351562 412.484375 293.253906 410.515625 296.671875 C 408.40625 300.046875 406.125 303.257812 403.890625 306.523438 C 402.367188 308.765625 400.890625 311.066406 399.25 313.230469 C 398.21875 314.523438 397.054688 315.675781 395.804688 316.742188 C 394.460938 317.996094 392.585938 318.511719 390.804688 318.125 C 389.671875 317.914062 388.554688 317.765625 387.460938 317.410156 C 384.066406 316.46875 380.707031 315.519531 377.351562 314.4375 C 371.410156 312.515625 366.894531 308.886719 363.988281 303.265625 C 361.316406 297.972656 358.875 292.632812 357.464844 286.847656 C 356.003906 280.628906 356.121094 274.128906 357.800781 267.953125 C 359.101562 262.941406 360.542969 257.9375 361.953125 252.9375 C 362.578125 250.640625 363.53125 248.445312 364.789062 246.425781 C 365.125 245.886719 365.226562 245.21875 365.632812 244.695312 C 365.984375 244.082031 366.488281 243.539062 367.097656 243.179688 C 368.679688 242.417969 370.335938 241.847656 371.964844 241.144531 Z M 358.257812 285.871094 C 359.621094 291.9375 362.21875 297.890625 365.371094 303.699219 C 367.570312 307.832031 371.179688 311.039062 375.578125 312.726562 C 380.304688 314.550781 385.199219 316.003906 390.148438 317.070312 C 392.304688 317.617188 394.550781 316.925781 396.027344 315.304688 C 397.902344 313.46875 399.601562 311.429688 401.027344 309.207031 C 402.746094 306.585938 404.496094 303.960938 406.25 301.332031 C 407.320312 299.726562 408.507812 298.195312 409.4375 296.550781 C 411.613281 292.652344 414.796875 289.359375 418.617188 287.027344 C 425.304688 283.03125 432.027344 279.058594 438.675781 275.035156 C 443.804688 271.929688 448.199219 268.054688 451.070312 262.726562 C 454.199219 257.140625 455.710938 250.796875 455.472656 244.402344 C 455.292969 240.46875 454.867188 236.6875 452.839844 233.230469 C 449.886719 228.0625 445.875 223.550781 441.039062 220.015625 C 439.289062 218.777344 437.464844 217.6875 435.558594 216.683594 C 434.558594 216.105469 433.339844 215.976562 432.253906 216.332031 C 430.433594 216.9375 428.796875 217.949219 427.433594 219.273438 C 425.347656 221.425781 423.671875 223.9375 422.453125 226.660156 C 421.25 229.308594 419.363281 231.589844 416.980469 233.292969 C 413.371094 235.992188 409.164062 237.589844 404.914062 238.820312 C 396.78125 241.210938 388.34375 242.273438 379.871094 241.988281 C 376.84375 241.851562 373.820312 241.71875 370.902344 242.613281 C 368.820312 243.273438 366.585938 243.859375 366.023438 246.449219 C 365.984375 246.59375 365.878906 246.75 365.800781 246.867188 C 364.53125 248.855469 363.597656 250.976562 362.964844 253.242188 C 361.570312 258.136719 360.175781 263.03125 358.894531 267.96875 C 357.285156 273.824219 357.058594 279.941406 358.257812 285.871094 Z M 383.292969 232.816406 C 383.261719 232.652344 383 232.535156 382.804688 232.40625 C 382.671875 232.601562 382.4375 232.785156 382.40625 232.960938 C 382.378906 233.167969 382.699219 233.242188 382.957031 233.492188 C 383.105469 233.226562 383.328125 232.976562 383.292969 232.816406 Z M 446.785156 245.242188 C 447.441406 249.996094 447.265625 254.507812 444.828125 258.628906 C 443.875 260.144531 442.714844 261.5 441.390625 262.683594 C 438.417969 265.351562 435.121094 267.578125 431.53125 269.355469 C 425.824219 272.308594 420.414062 275.878906 415.453125 279.96875 C 414.371094 280.867188 413.265625 281.800781 412.097656 282.582031 C 408.25 285.121094 405.335938 288.5625 402.601562 292.234375 C 400.726562 294.75 398.695312 297.164062 396.613281 299.515625 C 394.910156 301.523438 392.5 302.757812 389.894531 303.011719 C 386.71875 303.316406 383.703125 302.875 381.085938 300.894531 C 377.796875 298.4375 374.773438 295.792969 372.859375 292.042969 C 371.566406 289.355469 370.875 286.441406 370.785156 283.472656 C 370.527344 278.507812 371.019531 273.523438 372.21875 268.667969 C 372.640625 266.886719 372.886719 265.074219 373.375 263.277344 C 373.984375 261.050781 374.765625 258.859375 375.507812 256.640625 C 375.703125 256.089844 375.964844 255.53125 376.160156 254.980469 C 376.316406 254.40625 376.171875 253.691406 377.179688 253.960938 C 377.246094 253.949219 377.410156 253.746094 377.488281 253.628906 C 378.664062 251.863281 380.457031 250.617188 382.507812 250.136719 C 384.382812 249.65625 386.183594 248.78125 388.035156 248.171875 C 391.40625 247.148438 394.863281 246.550781 398.363281 246.351562 C 400.976562 246.128906 403.5625 246.117188 406.167969 245.859375 C 407.503906 245.726562 408.820312 245.492188 410.078125 245.136719 C 410.664062 245.019531 411.222656 244.734375 411.652344 244.34375 C 414.648438 240.957031 418.652344 239.027344 422.289062 236.628906 C 424.121094 235.410156 426.003906 234.285156 427.988281 233.308594 C 431.074219 231.734375 434.734375 231.804688 437.742188 233.539062 C 442.625 236.113281 445.351562 240.34375 446.773438 245.347656 Z M 391.683594 248.179688 C 390.902344 248.371094 389.914062 248.535156 388.964844 248.898438 C 386.800781 249.640625 384.726562 250.671875 382.472656 251.160156 C 379.660156 251.730469 378.261719 253.910156 377.027344 255.890625 C 375.726562 258.054688 375.160156 260.644531 374.4375 263.132812 C 373.894531 265.003906 373.617188 266.992188 373.1875 268.914062 C 372.003906 273.664062 371.53125 278.574219 371.773438 283.476562 C 371.875 286.171875 372.472656 288.796875 373.582031 291.25 C 375.441406 295.046875 378.425781 297.667969 381.707031 300.089844 C 384.113281 301.875 386.851562 302.273438 389.730469 302.027344 C 392.609375 301.785156 394.703125 300.34375 396.460938 298.257812 C 398.503906 295.878906 400.429688 293.453125 402.3125 290.96875 C 404.863281 287.570312 407.601562 284.441406 411.132812 282.03125 C 412.238281 281.261719 413.324219 280.398438 414.34375 279.546875 C 419.539062 275.242188 425.214844 271.480469 431.195312 268.375 C 434.367188 266.714844 437.378906 264.75 440.152344 262.457031 C 443.53125 259.808594 445.628906 255.855469 445.917969 251.558594 C 446.550781 244.917969 444.429688 239.476562 439.007812 235.417969 C 435.078125 232.484375 430.984375 232.292969 426.769531 234.875 C 424.867188 236.074219 422.925781 237.246094 421.027344 238.480469 C 417.921875 240.464844 414.714844 242.300781 412.171875 245.054688 C 411.660156 245.5625 411.011719 245.898438 410.328125 246.035156 C 408.570312 246.460938 406.824219 246.746094 405.011719 246.875 C 400.507812 247.003906 396.027344 247.4375 391.578125 248.167969 Z M 401.585938 252.007812 C 404.328125 251.761719 407.105469 251.503906 409.945312 251.234375 C 410.410156 251.175781 410.875 251.113281 411.300781 251.027344 C 411.433594 251.003906 411.660156 250.957031 411.6875 250.917969 C 411.902344 249.957031 412.753906 250.292969 413.332031 250.109375 C 414.488281 249.773438 415.679688 249.429688 416.820312 248.996094 C 418.671875 248.214844 420.660156 247.777344 422.691406 247.707031 C 426.210938 247.777344 429.265625 250.074219 430.316406 253.421875 C 431.582031 257.644531 429.539062 262.195312 425.519531 264.058594 C 421.816406 265.792969 418.421875 268.039062 414.980469 270.226562 C 412.71875 271.667969 410.507812 273.203125 408.234375 274.609375 C 404.042969 277.121094 400.625 280.761719 398.402344 285.113281 C 397.410156 287.113281 395.984375 288.824219 394.253906 290.191406 C 391.917969 291.953125 389.652344 292.039062 387.242188 290.390625 C 386.488281 289.863281 385.8125 289.21875 385.285156 288.476562 C 383.488281 286.160156 382.734375 283.433594 382.066406 280.648438 C 381.101562 276.199219 381.121094 271.582031 382.160156 267.132812 C 382.589844 265.210938 383.566406 263.457031 384.949219 262.054688 C 386.441406 260.5 387.898438 258.949219 389.476562 257.476562 C 391.503906 255.542969 394.042969 254.453125 396.605469 253.492188 C 398.191406 252.898438 399.847656 252.496094 401.613281 251.96875 Z M 401.785156 252.988281 C 400.050781 253.507812 398.464844 253.929688 396.941406 254.476562 C 394.566406 255.363281 392.21875 256.378906 390.351562 258.113281 C 388.691406 259.671875 387.125 261.34375 385.546875 262.988281 C 384.253906 264.335938 383.402344 266.03125 383.054688 267.832031 C 381.828125 273.234375 382.183594 278.863281 384.023438 284.085938 C 384.554688 285.878906 385.5 287.519531 386.832031 288.878906 C 389.179688 291.046875 391.457031 291.199219 393.859375 289.253906 C 394.363281 288.882812 394.820312 288.449219 395.199219 287.964844 C 396.144531 286.757812 397.007812 285.460938 397.800781 284.148438 C 399.710938 280.472656 402.523438 277.359375 405.972656 275.035156 C 407.625 273.953125 409.332031 272.964844 410.976562 271.816406 C 415.796875 268.535156 420.609375 265.222656 425.9375 262.753906 C 427.402344 262.085938 428.507812 260.808594 428.945312 259.265625 C 429.257812 258.285156 429.464844 257.292969 429.632812 256.273438 C 430.113281 252.921875 426.636719 248.367188 422.683594 248.691406 C 420.78125 248.875 418.921875 249.285156 417.148438 249.949219 C 415.910156 250.402344 414.613281 250.730469 413.324219 251.09375 C 412.808594 251.234375 412.160156 251.058594 411.964844 251.777344 C 411.953125 251.878906 411.65625 251.941406 411.460938 251.980469 C 410.96875 252.078125 410.445312 252.183594 409.933594 252.1875 C 407.125 252.449219 404.34375 252.671875 401.738281 252.929688 Z M 401.785156 252.988281 " fill-opacity="1" fill-rule="nonzero"/></g></g></g><g clip-path="url(#id10)"><path fill="#ffffff" d="M 182.183594 63.34375 L 144.417969 63.34375 C 137.050781 56.863281 127.421875 52.894531 116.859375 52.894531 C 106.296875 52.894531 96.667969 56.863281 89.300781 63.34375 L 51.539062 63.34375 C 42.890625 63.34375 35.859375 70.375 35.859375 79.023438 L 35.859375 167.859375 C 35.859375 176.507812 42.890625 183.539062 51.539062 183.539062 L 95.609375 183.539062 L 93.648438 199.214844 L 90.730469 199.214844 C 86.410156 199.214844 82.890625 202.734375 82.890625 207.054688 L 82.890625 212.28125 C 82.890625 213.722656 84.0625 214.894531 85.503906 214.894531 L 148.214844 214.894531 C 149.65625 214.894531 150.828125 213.722656 150.828125 212.28125 L 150.828125 207.054688 C 150.828125 202.734375 147.3125 199.214844 142.988281 199.214844 L 140.070312 199.214844 L 138.109375 183.539062 L 182.183594 183.539062 C 190.828125 183.539062 197.859375 176.507812 197.859375 167.859375 L 197.859375 79.023438 C 197.859375 70.375 190.828125 63.34375 182.183594 63.34375 Z M 116.859375 58.117188 C 137.03125 58.117188 153.441406 74.527344 153.441406 94.699219 C 153.441406 104.652344 149.433594 113.679688 142.960938 120.28125 C 142.734375 109.523438 135.992188 100.359375 126.515625 96.574219 C 130.175781 93.699219 132.539062 89.25 132.539062 84.246094 C 132.539062 75.601562 125.507812 68.570312 116.859375 68.570312 C 108.214844 68.570312 101.183594 75.601562 101.183594 84.246094 C 101.183594 89.25 103.542969 93.699219 107.203125 96.574219 C 97.726562 100.359375 90.984375 109.523438 90.757812 120.28125 C 84.289062 113.679688 80.277344 104.652344 80.277344 94.699219 C 80.277344 74.527344 96.6875 58.117188 116.859375 58.117188 Z M 106.410156 84.246094 C 106.410156 78.484375 111.097656 73.796875 116.859375 73.796875 C 122.625 73.796875 127.3125 78.484375 127.3125 84.246094 C 127.3125 90.011719 122.625 94.699219 116.859375 94.699219 C 111.097656 94.699219 106.410156 90.011719 106.410156 84.246094 Z M 137.761719 124.675781 C 131.832031 128.828125 124.628906 131.28125 116.859375 131.28125 C 109.089844 131.28125 101.886719 128.828125 95.957031 124.675781 L 95.957031 120.828125 C 95.957031 109.304688 105.335938 99.925781 116.859375 99.925781 C 128.386719 99.925781 137.761719 109.304688 137.761719 120.828125 Z M 51.539062 68.570312 L 84.277344 68.570312 C 78.519531 75.734375 75.054688 84.816406 75.054688 94.699219 L 66.734375 94.699219 C 65.652344 91.667969 62.777344 89.472656 59.375 89.472656 C 55.054688 89.472656 51.539062 92.992188 51.539062 97.3125 C 51.539062 101.632812 55.054688 105.152344 59.375 105.152344 C 62.777344 105.152344 65.652344 102.960938 66.734375 99.925781 L 75.417969 99.925781 C 76 104.5625 77.351562 108.949219 79.324219 112.988281 L 64.601562 112.988281 C 63.160156 112.988281 61.988281 114.160156 61.988281 115.601562 L 61.988281 126.535156 C 58.957031 127.617188 56.761719 130.492188 56.761719 133.894531 C 56.761719 138.214844 60.28125 141.730469 64.601562 141.730469 C 68.921875 141.730469 72.441406 138.214844 72.441406 133.894531 C 72.441406 130.492188 70.25 127.617188 67.214844 126.535156 L 67.214844 118.214844 L 82.324219 118.214844 C 89.859375 129.246094 102.527344 136.507812 116.859375 136.507812 C 131.195312 136.507812 143.863281 129.246094 151.398438 118.214844 L 166.503906 118.214844 L 166.503906 126.535156 C 163.472656 127.617188 161.277344 130.492188 161.277344 133.894531 C 161.277344 138.214844 164.796875 141.730469 169.117188 141.730469 C 173.441406 141.730469 176.957031 138.214844 176.957031 133.894531 C 176.957031 130.492188 174.765625 127.617188 171.730469 126.535156 L 171.730469 115.601562 C 171.730469 114.160156 170.558594 112.988281 169.117188 112.988281 L 154.394531 112.988281 C 156.371094 108.949219 157.71875 104.5625 158.304688 99.925781 L 166.984375 99.925781 C 168.066406 102.960938 170.941406 105.152344 174.34375 105.152344 C 178.664062 105.152344 182.183594 101.632812 182.183594 97.3125 C 182.183594 92.992188 178.664062 89.472656 174.34375 89.472656 C 170.941406 89.472656 168.066406 91.667969 166.984375 94.699219 L 158.667969 94.699219 C 158.667969 84.816406 155.199219 75.734375 149.441406 68.570312 L 182.183594 68.570312 C 187.945312 68.570312 192.632812 73.257812 192.632812 79.023438 L 192.632812 146.957031 L 41.085938 146.957031 L 41.085938 79.023438 C 41.085938 73.257812 45.773438 68.570312 51.539062 68.570312 Z M 61.988281 97.3125 C 61.988281 98.753906 60.816406 99.925781 59.375 99.925781 C 57.9375 99.925781 56.761719 98.753906 56.761719 97.3125 C 56.761719 95.871094 57.9375 94.699219 59.375 94.699219 C 60.816406 94.699219 61.988281 95.871094 61.988281 97.3125 Z M 67.214844 133.894531 C 67.214844 135.332031 66.042969 136.507812 64.601562 136.507812 C 63.164062 136.507812 61.988281 135.332031 61.988281 133.894531 C 61.988281 132.453125 63.164062 131.28125 64.601562 131.28125 C 66.042969 131.28125 67.214844 132.453125 67.214844 133.894531 Z M 171.730469 133.894531 C 171.730469 135.332031 170.558594 136.507812 169.117188 136.507812 C 167.679688 136.507812 166.503906 135.332031 166.503906 133.894531 C 166.503906 132.453125 167.679688 131.28125 169.117188 131.28125 C 170.558594 131.28125 171.730469 132.453125 171.730469 133.894531 Z M 171.730469 97.3125 C 171.730469 95.871094 172.902344 94.699219 174.34375 94.699219 C 175.785156 94.699219 176.957031 95.871094 176.957031 97.3125 C 176.957031 98.753906 175.785156 99.925781 174.34375 99.925781 C 172.902344 99.925781 171.730469 98.753906 171.730469 97.3125 Z M 145.601562 207.054688 L 145.601562 209.667969 L 88.117188 209.667969 L 88.117188 207.054688 C 88.117188 205.613281 89.292969 204.441406 90.730469 204.441406 L 142.988281 204.441406 C 144.429688 204.441406 145.601562 205.613281 145.601562 207.054688 Z M 134.800781 199.214844 L 98.917969 199.214844 L 100.875 183.539062 L 132.84375 183.539062 Z M 182.183594 178.3125 L 51.539062 178.3125 C 45.773438 178.3125 41.085938 173.625 41.085938 167.859375 L 41.085938 152.183594 L 192.632812 152.183594 L 192.632812 167.859375 C 192.632812 173.625 187.945312 178.3125 182.183594 178.3125 Z M 182.183594 178.3125 " fill-opacity="1" fill-rule="nonzero"/></g><path fill="#ffffff" d="M 116.859375 157.410156 C 112.539062 157.410156 109.019531 160.925781 109.019531 165.246094 C 109.019531 169.570312 112.539062 173.085938 116.859375 173.085938 C 121.183594 173.085938 124.699219 169.570312 124.699219 165.246094 C 124.699219 160.925781 121.183594 157.410156 116.859375 157.410156 Z M 116.859375 167.859375 C 115.421875 167.859375 114.246094 166.6875 114.246094 165.246094 C 114.246094 163.808594 115.421875 162.636719 116.859375 162.636719 C 118.300781 162.636719 119.472656 163.808594 119.472656 165.246094 C 119.472656 166.6875 118.300781 167.859375 116.859375 167.859375 Z M 116.859375 167.859375 " fill-opacity="1" fill-rule="nonzero"/><path fill="#98b0d4" d="M 49.5 148.675781 L 49.5 166.796875 C 49.5 173.945312 55.296875 179.738281 62.441406 179.738281 L 191.878906 179.738281 C 199.027344 179.738281 204.820312 173.945312 204.820312 166.796875 L 204.820312 148.675781 Z M 127.160156 169.386719 C 124.300781 169.386719 121.984375 167.066406 121.984375 164.207031 C 121.984375 161.347656 124.300781 159.03125 127.160156 159.03125 C 130.019531 159.03125 132.339844 161.347656 132.339844 164.207031 C 132.339844 167.066406 130.019531 169.386719 127.160156 169.386719 Z M 127.160156 169.386719 " fill-opacity="1" fill-rule="nonzero"/><path fill="#98b0d4" d="M 80.5625 133.144531 C 80.5625 133.484375 80.53125 133.820312 80.464844 134.152344 C 80.398438 134.488281 80.300781 134.808594 80.167969 135.125 C 80.039062 135.4375 79.878906 135.738281 79.691406 136.019531 C 79.503906 136.300781 79.289062 136.5625 79.046875 136.804688 C 78.808594 137.042969 78.546875 137.257812 78.261719 137.449219 C 77.980469 137.636719 77.683594 137.796875 77.367188 137.925781 C 77.054688 138.054688 76.730469 138.15625 76.398438 138.222656 C 76.0625 138.289062 75.726562 138.320312 75.386719 138.320312 C 75.046875 138.320312 74.710938 138.289062 74.375 138.222656 C 74.042969 138.15625 73.71875 138.054688 73.40625 137.925781 C 73.089844 137.796875 72.792969 137.636719 72.511719 137.449219 C 72.226562 137.257812 71.964844 137.042969 71.726562 136.804688 C 71.484375 136.5625 71.269531 136.300781 71.082031 136.019531 C 70.894531 135.738281 70.734375 135.4375 70.601562 135.125 C 70.472656 134.808594 70.375 134.488281 70.308594 134.152344 C 70.242188 133.820312 70.210938 133.484375 70.210938 133.144531 C 70.210938 132.804688 70.242188 132.464844 70.308594 132.132812 C 70.375 131.800781 70.472656 131.476562 70.601562 131.160156 C 70.734375 130.847656 70.894531 130.550781 71.082031 130.265625 C 71.269531 129.984375 71.484375 129.722656 71.726562 129.480469 C 71.964844 129.242188 72.226562 129.027344 72.511719 128.839844 C 72.792969 128.648438 73.089844 128.488281 73.40625 128.359375 C 73.71875 128.230469 74.042969 128.132812 74.375 128.066406 C 74.710938 128 75.046875 127.964844 75.386719 127.964844 C 75.726562 127.964844 76.0625 128 76.398438 128.066406 C 76.730469 128.132812 77.054688 128.230469 77.367188 128.359375 C 77.683594 128.488281 77.980469 128.648438 78.261719 128.839844 C 78.546875 129.027344 78.808594 129.242188 79.046875 129.480469 C 79.289062 129.722656 79.503906 129.984375 79.691406 130.265625 C 79.878906 130.550781 80.039062 130.847656 80.167969 131.160156 C 80.300781 131.476562 80.398438 131.800781 80.464844 132.132812 C 80.53125 132.464844 80.5625 132.804688 80.5625 133.144531 Z M 80.5625 133.144531 " fill-opacity="1" fill-rule="nonzero"/><path fill="#98b0d4" d="M 189.289062 96.902344 C 189.289062 97.242188 189.257812 97.578125 189.191406 97.910156 C 189.125 98.246094 189.027344 98.570312 188.894531 98.882812 C 188.765625 99.195312 188.605469 99.496094 188.417969 99.777344 C 188.226562 100.058594 188.011719 100.320312 187.773438 100.5625 C 187.53125 100.800781 187.269531 101.015625 186.988281 101.207031 C 186.707031 101.394531 186.40625 101.554688 186.09375 101.683594 C 185.78125 101.816406 185.457031 101.914062 185.121094 101.980469 C 184.789062 102.046875 184.453125 102.078125 184.113281 102.078125 C 183.773438 102.078125 183.4375 102.046875 183.101562 101.980469 C 182.769531 101.914062 182.445312 101.816406 182.132812 101.683594 C 181.816406 101.554688 181.519531 101.394531 181.234375 101.207031 C 180.953125 101.015625 180.691406 100.800781 180.453125 100.5625 C 180.210938 100.320312 179.996094 100.058594 179.808594 99.777344 C 179.617188 99.496094 179.460938 99.195312 179.328125 98.882812 C 179.199219 98.570312 179.101562 98.246094 179.035156 97.910156 C 178.96875 97.578125 178.933594 97.242188 178.933594 96.902344 C 178.933594 96.5625 178.96875 96.222656 179.035156 95.890625 C 179.101562 95.558594 179.199219 95.234375 179.328125 94.917969 C 179.460938 94.605469 179.617188 94.308594 179.808594 94.023438 C 179.996094 93.742188 180.210938 93.480469 180.453125 93.242188 C 180.691406 93 180.953125 92.785156 181.234375 92.597656 C 181.519531 92.40625 181.816406 92.246094 182.132812 92.117188 C 182.445312 91.988281 182.769531 91.890625 183.101562 91.824219 C 183.4375 91.757812 183.773438 91.722656 184.113281 91.722656 C 184.453125 91.722656 184.789062 91.757812 185.121094 91.824219 C 185.457031 91.890625 185.78125 91.988281 186.09375 92.117188 C 186.40625 92.246094 186.707031 92.40625 186.988281 92.597656 C 187.269531 92.785156 187.53125 93 187.773438 93.242188 C 188.011719 93.480469 188.226562 93.742188 188.417969 94.023438 C 188.605469 94.308594 188.765625 94.605469 188.894531 94.917969 C 189.027344 95.234375 189.125 95.558594 189.191406 95.890625 C 189.257812 96.222656 189.289062 96.5625 189.289062 96.902344 Z M 189.289062 96.902344 " fill-opacity="1" fill-rule="nonzero"/><path fill="#98b0d4" d="M 140.105469 83.957031 C 140.105469 84.808594 140.019531 85.648438 139.855469 86.484375 C 139.691406 87.316406 139.445312 88.125 139.117188 88.910156 C 138.792969 89.695312 138.394531 90.441406 137.921875 91.148438 C 137.449219 91.855469 136.914062 92.507812 136.3125 93.109375 C 135.710938 93.710938 135.058594 94.246094 134.351562 94.71875 C 133.644531 95.191406 132.898438 95.589844 132.113281 95.914062 C 131.328125 96.242188 130.519531 96.488281 129.6875 96.652344 C 128.851562 96.816406 128.011719 96.902344 127.160156 96.902344 C 126.3125 96.902344 125.46875 96.816406 124.636719 96.652344 C 123.800781 96.488281 122.992188 96.242188 122.207031 95.914062 C 121.421875 95.589844 120.675781 95.191406 119.96875 94.71875 C 119.261719 94.246094 118.609375 93.710938 118.007812 93.109375 C 117.40625 92.507812 116.871094 91.855469 116.398438 91.148438 C 115.925781 90.441406 115.527344 89.695312 115.203125 88.910156 C 114.878906 88.125 114.632812 87.316406 114.464844 86.484375 C 114.300781 85.648438 114.21875 84.808594 114.21875 83.957031 C 114.21875 83.109375 114.300781 82.265625 114.464844 81.433594 C 114.632812 80.597656 114.878906 79.789062 115.203125 79.003906 C 115.527344 78.21875 115.925781 77.472656 116.398438 76.765625 C 116.871094 76.058594 117.40625 75.40625 118.007812 74.804688 C 118.609375 74.203125 119.261719 73.667969 119.96875 73.195312 C 120.675781 72.722656 121.421875 72.324219 122.207031 72 C 122.992188 71.675781 123.800781 71.429688 124.636719 71.261719 C 125.46875 71.097656 126.3125 71.015625 127.160156 71.015625 C 128.011719 71.015625 128.851562 71.097656 129.6875 71.261719 C 130.519531 71.429688 131.328125 71.675781 132.113281 72 C 132.898438 72.324219 133.644531 72.722656 134.351562 73.195312 C 135.058594 73.667969 135.710938 74.203125 136.3125 74.804688 C 136.914062 75.40625 137.449219 76.058594 137.921875 76.765625 C 138.394531 77.472656 138.792969 78.21875 139.117188 79.003906 C 139.445312 79.789062 139.691406 80.597656 139.855469 81.433594 C 140.019531 82.265625 140.105469 83.109375 140.105469 83.957031 Z M 140.105469 83.957031 " fill-opacity="1" fill-rule="nonzero"/><path fill="#98b0d4" d="M 127.160156 96.902344 C 114.292969 96.902344 103.863281 107.332031 103.863281 120.199219 L 103.863281 125.324219 C 110.355469 130.210938 118.40625 133.144531 127.160156 133.144531 C 135.914062 133.144531 143.964844 130.210938 150.460938 125.324219 L 150.460938 120.199219 C 150.460938 107.332031 140.027344 96.902344 127.160156 96.902344 Z M 127.160156 96.902344 " fill-opacity="1" fill-rule="nonzero"/><path fill="#98b0d4" d="M 184.113281 133.144531 C 184.113281 133.484375 184.078125 133.820312 184.011719 134.152344 C 183.945312 134.488281 183.847656 134.808594 183.71875 135.125 C 183.589844 135.4375 183.429688 135.738281 183.238281 136.019531 C 183.050781 136.300781 182.835938 136.5625 182.597656 136.804688 C 182.355469 137.042969 182.09375 137.257812 181.8125 137.449219 C 181.527344 137.636719 181.230469 137.796875 180.917969 137.925781 C 180.601562 138.054688 180.277344 138.15625 179.945312 138.222656 C 179.613281 138.289062 179.273438 138.320312 178.933594 138.320312 C 178.59375 138.320312 178.257812 138.289062 177.925781 138.222656 C 177.589844 138.15625 177.269531 138.054688 176.953125 137.925781 C 176.640625 137.796875 176.339844 137.636719 176.058594 137.449219 C 175.777344 137.257812 175.515625 137.042969 175.273438 136.804688 C 175.035156 136.5625 174.820312 136.300781 174.628906 136.019531 C 174.441406 135.738281 174.28125 135.4375 174.152344 135.125 C 174.019531 134.808594 173.921875 134.488281 173.855469 134.152344 C 173.789062 133.820312 173.757812 133.484375 173.757812 133.144531 C 173.757812 132.804688 173.789062 132.464844 173.855469 132.132812 C 173.921875 131.800781 174.019531 131.476562 174.152344 131.160156 C 174.28125 130.847656 174.441406 130.550781 174.628906 130.265625 C 174.820312 129.984375 175.035156 129.722656 175.273438 129.480469 C 175.515625 129.242188 175.777344 129.027344 176.058594 128.839844 C 176.339844 128.648438 176.640625 128.488281 176.953125 128.359375 C 177.269531 128.230469 177.589844 128.132812 177.925781 128.066406 C 178.257812 128 178.59375 127.964844 178.933594 127.964844 C 179.273438 127.964844 179.613281 128 179.945312 128.066406 C 180.277344 128.132812 180.601562 128.230469 180.917969 128.359375 C 181.230469 128.488281 181.527344 128.648438 181.8125 128.839844 C 182.09375 129.027344 182.355469 129.242188 182.597656 129.480469 C 182.835938 129.722656 183.050781 129.984375 183.238281 130.265625 C 183.429688 130.550781 183.589844 130.847656 183.71875 131.160156 C 183.847656 131.476562 183.945312 131.800781 184.011719 132.132812 C 184.078125 132.464844 184.113281 132.804688 184.113281 133.144531 Z M 184.113281 133.144531 " fill-opacity="1" fill-rule="nonzero"/><path fill="#98b0d4" d="M 75.386719 96.902344 C 75.386719 97.242188 75.351562 97.578125 75.285156 97.910156 C 75.21875 98.246094 75.121094 98.570312 74.992188 98.882812 C 74.863281 99.195312 74.703125 99.496094 74.515625 99.777344 C 74.324219 100.058594 74.109375 100.320312 73.871094 100.5625 C 73.628906 100.800781 73.367188 101.015625 73.085938 101.207031 C 72.804688 101.394531 72.503906 101.554688 72.191406 101.683594 C 71.875 101.816406 71.550781 101.914062 71.21875 101.980469 C 70.886719 102.046875 70.550781 102.078125 70.210938 102.078125 C 69.867188 102.078125 69.53125 102.046875 69.199219 101.980469 C 68.867188 101.914062 68.542969 101.816406 68.226562 101.683594 C 67.914062 101.554688 67.617188 101.394531 67.332031 101.207031 C 67.050781 101.015625 66.789062 100.800781 66.546875 100.5625 C 66.308594 100.320312 66.09375 100.058594 65.902344 99.777344 C 65.714844 99.496094 65.554688 99.195312 65.425781 98.882812 C 65.296875 98.570312 65.199219 98.246094 65.132812 97.910156 C 65.066406 97.578125 65.03125 97.242188 65.03125 96.902344 C 65.03125 96.5625 65.066406 96.222656 65.132812 95.890625 C 65.199219 95.558594 65.296875 95.234375 65.425781 94.917969 C 65.554688 94.605469 65.714844 94.308594 65.902344 94.023438 C 66.09375 93.742188 66.308594 93.480469 66.546875 93.242188 C 66.789062 93 67.050781 92.785156 67.332031 92.597656 C 67.617188 92.40625 67.914062 92.246094 68.226562 92.117188 C 68.542969 91.988281 68.867188 91.890625 69.199219 91.824219 C 69.53125 91.757812 69.867188 91.722656 70.210938 91.722656 C 70.550781 91.722656 70.886719 91.757812 71.21875 91.824219 C 71.550781 91.890625 71.875 91.988281 72.191406 92.117188 C 72.503906 92.246094 72.804688 92.40625 73.085938 92.597656 C 73.367188 92.785156 73.628906 93 73.871094 93.242188 C 74.109375 93.480469 74.324219 93.742188 74.515625 94.023438 C 74.703125 94.308594 74.863281 94.605469 74.992188 94.917969 C 75.121094 95.234375 75.21875 95.558594 75.285156 95.890625 C 75.351562 96.222656 75.386719 96.5625 75.386719 96.902344 Z M 75.386719 96.902344 " fill-opacity="1" fill-rule="nonzero"/><g clip-path="url(#id11)"><path fill="#15253d" d="M 191.878906 63.246094 L 154.464844 63.246094 C 147.167969 56.824219 137.625 52.894531 127.160156 52.894531 C 116.695312 52.894531 107.15625 56.824219 99.859375 63.246094 L 62.441406 63.246094 C 53.875 63.246094 46.910156 70.214844 46.910156 78.78125 L 46.910156 166.796875 C 46.910156 175.363281 53.875 182.328125 62.441406 182.328125 L 106.105469 182.328125 L 104.164062 197.859375 L 101.273438 197.859375 C 96.992188 197.859375 93.507812 201.34375 93.507812 205.628906 L 93.507812 210.804688 C 93.507812 212.234375 94.667969 213.394531 96.097656 213.394531 L 158.226562 213.394531 C 159.652344 213.394531 160.8125 212.234375 160.8125 210.804688 L 160.8125 205.628906 C 160.8125 201.34375 157.328125 197.859375 153.046875 197.859375 L 150.15625 197.859375 L 148.214844 182.328125 L 191.878906 182.328125 C 200.445312 182.328125 207.410156 175.363281 207.410156 166.796875 L 207.410156 78.78125 C 207.410156 70.214844 200.445312 63.246094 191.878906 63.246094 Z M 127.160156 58.070312 C 147.144531 58.070312 163.402344 74.328125 163.402344 94.3125 C 163.402344 104.171875 159.429688 113.117188 153.019531 119.660156 C 152.796875 109 146.113281 99.917969 136.730469 96.167969 C 140.351562 93.320312 142.691406 88.914062 142.691406 83.957031 C 142.691406 75.390625 135.726562 68.425781 127.160156 68.425781 C 118.59375 68.425781 111.628906 75.390625 111.628906 83.957031 C 111.628906 88.914062 113.96875 93.320312 117.59375 96.167969 C 108.207031 99.917969 101.523438 109 101.300781 119.660156 C 94.890625 113.117188 90.917969 104.171875 90.917969 94.3125 C 90.917969 74.328125 107.175781 58.070312 127.160156 58.070312 Z M 116.804688 83.957031 C 116.804688 78.246094 121.449219 73.601562 127.160156 73.601562 C 132.871094 73.601562 137.515625 78.246094 137.515625 83.957031 C 137.515625 89.667969 132.871094 94.3125 127.160156 94.3125 C 121.449219 94.3125 116.804688 89.667969 116.804688 83.957031 Z M 147.871094 124.011719 C 141.992188 128.125 134.859375 130.554688 127.160156 130.554688 C 119.460938 130.554688 112.328125 128.125 106.449219 124.011719 L 106.449219 120.199219 C 106.449219 108.78125 115.742188 99.488281 127.160156 99.488281 C 138.578125 99.488281 147.871094 108.78125 147.871094 120.199219 Z M 62.441406 68.425781 L 94.878906 68.425781 C 89.175781 75.523438 85.742188 84.519531 85.742188 94.3125 L 77.5 94.3125 C 76.425781 91.308594 73.578125 89.136719 70.210938 89.136719 C 65.925781 89.136719 62.441406 92.621094 62.441406 96.902344 C 62.441406 101.183594 65.925781 104.667969 70.210938 104.667969 C 73.578125 104.667969 76.425781 102.496094 77.5 99.488281 L 86.101562 99.488281 C 86.679688 104.082031 88.015625 108.429688 89.972656 112.433594 L 75.386719 112.433594 C 73.957031 112.433594 72.796875 113.59375 72.796875 115.023438 L 72.796875 125.851562 C 69.792969 126.925781 67.621094 129.773438 67.621094 133.144531 C 67.621094 137.425781 71.105469 140.910156 75.386719 140.910156 C 79.667969 140.910156 83.152344 137.425781 83.152344 133.144531 C 83.152344 129.773438 80.980469 126.925781 77.976562 125.851562 L 77.976562 117.609375 L 92.941406 117.609375 C 100.410156 128.539062 112.960938 135.730469 127.160156 135.730469 C 141.363281 135.730469 153.914062 128.539062 161.378906 117.609375 L 176.347656 117.609375 L 176.347656 125.851562 C 173.339844 126.925781 171.167969 129.773438 171.167969 133.144531 C 171.167969 137.425781 174.652344 140.910156 178.933594 140.910156 C 183.214844 140.910156 186.699219 137.425781 186.699219 133.144531 C 186.699219 129.773438 184.527344 126.925781 181.523438 125.851562 L 181.523438 115.023438 C 181.523438 113.59375 180.363281 112.433594 178.933594 112.433594 L 164.347656 112.433594 C 166.304688 108.429688 167.644531 104.082031 168.21875 99.488281 L 176.824219 99.488281 C 177.894531 102.496094 180.742188 104.667969 184.113281 104.667969 C 188.394531 104.667969 191.878906 101.183594 191.878906 96.902344 C 191.878906 92.621094 188.394531 89.136719 184.113281 89.136719 C 180.742188 89.136719 177.894531 91.308594 176.824219 94.3125 L 168.578125 94.3125 C 168.578125 84.519531 165.144531 75.523438 159.441406 68.425781 L 191.878906 68.425781 C 197.589844 68.425781 202.234375 73.070312 202.234375 78.78125 L 202.234375 146.085938 L 52.089844 146.085938 L 52.089844 78.78125 C 52.089844 73.070312 56.730469 68.425781 62.441406 68.425781 Z M 72.796875 96.902344 C 72.796875 98.328125 71.636719 99.488281 70.210938 99.488281 C 68.78125 99.488281 67.621094 98.328125 67.621094 96.902344 C 67.621094 95.476562 68.78125 94.3125 70.210938 94.3125 C 71.636719 94.3125 72.796875 95.476562 72.796875 96.902344 Z M 77.976562 133.144531 C 77.976562 134.570312 76.8125 135.730469 75.386719 135.730469 C 73.960938 135.730469 72.796875 134.570312 72.796875 133.144531 C 72.796875 131.714844 73.960938 130.554688 75.386719 130.554688 C 76.8125 130.554688 77.976562 131.714844 77.976562 133.144531 Z M 181.523438 133.144531 C 181.523438 134.570312 180.359375 135.730469 178.933594 135.730469 C 177.507812 135.730469 176.347656 134.570312 176.347656 133.144531 C 176.347656 131.714844 177.507812 130.554688 178.933594 130.554688 C 180.359375 130.554688 181.523438 131.714844 181.523438 133.144531 Z M 181.523438 96.902344 C 181.523438 95.476562 182.6875 94.3125 184.113281 94.3125 C 185.539062 94.3125 186.699219 95.476562 186.699219 96.902344 C 186.699219 98.328125 185.539062 99.488281 184.113281 99.488281 C 182.6875 99.488281 181.523438 98.328125 181.523438 96.902344 Z M 155.636719 205.628906 L 155.636719 208.214844 L 98.683594 208.214844 L 98.683594 205.628906 C 98.683594 204.199219 99.847656 203.039062 101.273438 203.039062 L 153.046875 203.039062 C 154.472656 203.039062 155.636719 204.199219 155.636719 205.628906 Z M 144.9375 197.859375 L 109.382812 197.859375 L 111.324219 182.328125 L 143 182.328125 Z M 191.878906 177.152344 L 62.441406 177.152344 C 56.730469 177.152344 52.089844 172.507812 52.089844 166.796875 L 52.089844 151.265625 L 202.234375 151.265625 L 202.234375 166.796875 C 202.234375 172.507812 197.589844 177.152344 191.878906 177.152344 Z M 191.878906 177.152344 " fill-opacity="1" fill-rule="nonzero"/></g><path fill="#15253d" d="M 127.160156 156.441406 C 122.878906 156.441406 119.394531 159.925781 119.394531 164.207031 C 119.394531 168.488281 122.878906 171.972656 127.160156 171.972656 C 131.441406 171.972656 134.925781 168.488281 134.925781 164.207031 C 134.925781 159.925781 131.441406 156.441406 127.160156 156.441406 Z M 127.160156 166.796875 C 125.734375 166.796875 124.570312 165.632812 124.570312 164.207031 C 124.570312 162.78125 125.734375 161.617188 127.160156 161.617188 C 128.585938 161.617188 129.75 162.78125 129.75 164.207031 C 129.75 165.632812 128.585938 166.796875 127.160156 166.796875 Z M 127.160156 166.796875 " fill-opacity="1" fill-rule="nonzero"/></svg>