<svg xmlns="http://www.w3.org/2000/svg" xmlns:xlink="http://www.w3.org/1999/xlink" width="600" zoomAndPan="magnify" viewBox="0 0 450 299.999988" height="400" preserveAspectRatio="xMidYMid meet" version="1.0"><defs><filter x="0%" y="0%" width="100%" height="100%" id="id1"><feColorMatrix values="0 0 0 0 1 0 0 0 0 1 0 0 0 0 1 0 0 0 1 0" color-interpolation-filters="sRGB"/></filter><g/><mask id="id2"><g filter="url(#id1)"><rect x="-45" width="540" fill="#000000" y="-29.999999" height="359.999986" fill-opacity="0.2471"/></g></mask><clipPath id="id3"><path d="M 1 0.761719 L 397 0.761719 L 397 1.480469 L 1 1.480469 Z M 1 0.761719 " clip-rule="nonzero"/></clipPath><clipPath id="id4"><rect x="0" width="398" y="0" height="2"/></clipPath><mask id="id5"><g filter="url(#id1)"><rect x="-45" width="540" fill="#000000" y="-29.999999" height="359.999986" fill-opacity="0.2471"/></g></mask><clipPath id="id6"><path d="M 1 1 L 397 1 L 397 1.839844 L 1 1.839844 Z M 1 1 " clip-rule="nonzero"/></clipPath><clipPath id="id7"><rect x="0" width="398" y="0" height="2"/></clipPath><mask id="id8"><g filter="url(#id1)"><rect x="-45" width="540" fill="#000000" y="-29.999999" height="359.999986" fill-opacity="0.2471"/></g></mask><clipPath id="id9"><path d="M 1 0 L 397 0 L 397 0.960938 L 1 0.960938 Z M 1 0 " clip-rule="nonzero"/></clipPath><clipPath id="id10"><rect x="0" width="398" y="0" height="1"/></clipPath><mask id="id11"><g filter="url(#id1)"><rect x="-45" width="540" fill="#000000" y="-29.999999" height="359.999986" fill-opacity="0.6"/></g></mask><clipPath id="id12"><path d="M 1 0.359375 L 397 0.359375 L 397 1 L 1 1 Z M 1 0.359375 " clip-rule="nonzero"/></clipPath><clipPath id="id13"><rect x="0" width="398" y="0" height="2"/></clipPath></defs><rect x="-45" width="540" fill="#ffffff" y="-29.999999" height="359.999986" fill-opacity="1"/><rect x="-45" width="540" fill="#ffffff" y="-29.999999" height="359.999986" fill-opacity="1"/><rect x="-45" width="540" fill="#ffffff" y="-29.999999" height="359.999986" fill-opacity="1"/><rect x="-45" width="540" fill="#ffffff" y="-29.999999" height="359.999986" fill-opacity="1"/><g fill="#000000" fill-opacity="1"><g transform="translate(45.731009, 281.749855)"><g><path d="M 4.765625 -1.765625 C 4.765625 -1.191406 4.550781 -0.738281 4.125 -0.40625 C 3.707031 -0.0703125 3.148438 0.09375 2.453125 0.09375 C 1.609375 0.09375 0.960938 0 0.515625 -0.1875 L 0.515625 -0.65625 C 1.015625 -0.445312 1.648438 -0.34375 2.421875 -0.34375 C 2.984375 -0.34375 3.425781 -0.472656 3.75 -0.734375 C 4.082031 -0.992188 4.25 -1.332031 4.25 -1.75 C 4.25 -2.007812 4.191406 -2.222656 4.078125 -2.390625 C 3.972656 -2.566406 3.796875 -2.722656 3.546875 -2.859375 C 3.304688 -3.003906 2.945312 -3.160156 2.46875 -3.328125 C 1.757812 -3.566406 1.269531 -3.828125 1 -4.109375 C 0.738281 -4.390625 0.609375 -4.757812 0.609375 -5.21875 C 0.609375 -5.738281 0.804688 -6.160156 1.203125 -6.484375 C 1.609375 -6.804688 2.128906 -6.96875 2.765625 -6.96875 C 3.410156 -6.96875 4.015625 -6.847656 4.578125 -6.609375 L 4.40625 -6.1875 C 3.832031 -6.425781 3.285156 -6.546875 2.765625 -6.546875 C 2.265625 -6.546875 1.863281 -6.425781 1.5625 -6.1875 C 1.257812 -5.957031 1.109375 -5.640625 1.109375 -5.234375 C 1.109375 -4.984375 1.15625 -4.773438 1.25 -4.609375 C 1.34375 -4.441406 1.492188 -4.289062 1.703125 -4.15625 C 1.910156 -4.03125 2.269531 -3.878906 2.78125 -3.703125 C 3.3125 -3.515625 3.710938 -3.332031 3.984375 -3.15625 C 4.253906 -2.988281 4.453125 -2.789062 4.578125 -2.5625 C 4.703125 -2.34375 4.765625 -2.078125 4.765625 -1.765625 Z M 4.765625 -1.765625 "/></g></g><g transform="translate(50.974437, 281.749855)"><g><path d="M 2.921875 0.09375 C 2.179688 0.09375 1.601562 -0.132812 1.1875 -0.59375 C 0.769531 -1.050781 0.5625 -1.691406 0.5625 -2.515625 C 0.5625 -3.328125 0.757812 -3.976562 1.15625 -4.46875 C 1.5625 -4.957031 2.101562 -5.203125 2.78125 -5.203125 C 3.382812 -5.203125 3.859375 -4.992188 4.203125 -4.578125 C 4.554688 -4.160156 4.734375 -3.585938 4.734375 -2.859375 L 4.734375 -2.484375 L 1.046875 -2.484375 C 1.054688 -1.785156 1.21875 -1.25 1.53125 -0.875 C 1.851562 -0.507812 2.316406 -0.328125 2.921875 -0.328125 C 3.210938 -0.328125 3.46875 -0.347656 3.6875 -0.390625 C 3.90625 -0.429688 4.1875 -0.519531 4.53125 -0.65625 L 4.53125 -0.234375 C 4.238281 -0.109375 3.96875 -0.0234375 3.71875 0.015625 C 3.476562 0.0664062 3.210938 0.09375 2.921875 0.09375 Z M 2.78125 -4.796875 C 2.289062 -4.796875 1.894531 -4.632812 1.59375 -4.3125 C 1.300781 -3.988281 1.128906 -3.519531 1.078125 -2.90625 L 4.234375 -2.90625 C 4.234375 -3.5 4.101562 -3.960938 3.84375 -4.296875 C 3.59375 -4.628906 3.238281 -4.796875 2.78125 -4.796875 Z M 2.78125 -4.796875 "/></g></g><g transform="translate(56.255452, 281.749855)"><g><path d="M 3.046875 0.09375 C 2.253906 0.09375 1.679688 -0.203125 1.328125 -0.796875 L 1.28125 -0.796875 L 1.296875 -0.390625 C 1.316406 -0.160156 1.328125 0.0859375 1.328125 0.359375 L 1.328125 2.3125 L 0.859375 2.3125 L 0.859375 -5.109375 L 1.25 -5.109375 L 1.34375 -4.375 L 1.375 -4.375 C 1.71875 -4.925781 2.273438 -5.203125 3.046875 -5.203125 C 3.734375 -5.203125 4.257812 -4.972656 4.625 -4.515625 C 4.988281 -4.066406 5.171875 -3.410156 5.171875 -2.546875 C 5.171875 -1.710938 4.976562 -1.0625 4.59375 -0.59375 C 4.21875 -0.132812 3.703125 0.09375 3.046875 0.09375 Z M 3.03125 -0.3125 C 3.550781 -0.3125 3.953125 -0.503906 4.234375 -0.890625 C 4.523438 -1.285156 4.671875 -1.832031 4.671875 -2.53125 C 4.671875 -4.03125 4.128906 -4.78125 3.046875 -4.78125 C 2.453125 -4.78125 2.015625 -4.613281 1.734375 -4.28125 C 1.460938 -3.957031 1.328125 -3.425781 1.328125 -2.6875 L 1.328125 -2.546875 C 1.328125 -1.742188 1.457031 -1.171875 1.71875 -0.828125 C 1.988281 -0.484375 2.425781 -0.3125 3.03125 -0.3125 Z M 3.03125 -0.3125 "/></g></g><g transform="translate(61.982816, 281.749855)"><g><path d="M 2.203125 -0.3125 C 2.492188 -0.3125 2.75 -0.335938 2.96875 -0.390625 L 2.96875 -0.015625 C 2.75 0.0546875 2.488281 0.09375 2.1875 0.09375 C 1.738281 0.09375 1.40625 -0.0234375 1.1875 -0.265625 C 0.976562 -0.503906 0.875 -0.882812 0.875 -1.40625 L 0.875 -4.703125 L 0.125 -4.703125 L 0.125 -4.984375 L 0.875 -5.1875 L 1.109375 -6.34375 L 1.34375 -6.34375 L 1.34375 -5.109375 L 2.84375 -5.109375 L 2.84375 -4.703125 L 1.34375 -4.703125 L 1.34375 -1.46875 C 1.34375 -1.082031 1.410156 -0.789062 1.546875 -0.59375 C 1.691406 -0.40625 1.910156 -0.3125 2.203125 -0.3125 Z M 2.203125 -0.3125 "/></g></g><g transform="translate(65.205926, 281.749855)"><g/></g><g transform="translate(67.705481, 281.749855)"><g><path d="M 4.828125 0 L 0.53125 0 L 0.53125 -0.40625 L 2.359375 -2.328125 C 2.867188 -2.859375 3.226562 -3.265625 3.4375 -3.546875 C 3.644531 -3.828125 3.796875 -4.09375 3.890625 -4.34375 C 3.992188 -4.601562 4.046875 -4.875 4.046875 -5.15625 C 4.046875 -5.570312 3.910156 -5.90625 3.640625 -6.15625 C 3.367188 -6.414062 3.019531 -6.546875 2.59375 -6.546875 C 2.019531 -6.546875 1.46875 -6.335938 0.9375 -5.921875 L 0.6875 -6.25 C 1.257812 -6.726562 1.894531 -6.96875 2.59375 -6.96875 C 3.195312 -6.96875 3.671875 -6.804688 4.015625 -6.484375 C 4.359375 -6.171875 4.53125 -5.734375 4.53125 -5.171875 C 4.53125 -4.710938 4.410156 -4.269531 4.171875 -3.84375 C 3.941406 -3.425781 3.523438 -2.90625 2.921875 -2.28125 L 1.15625 -0.46875 L 1.15625 -0.453125 L 4.828125 -0.453125 Z M 4.828125 0 "/></g></g><g transform="translate(73.197924, 281.749855)"><g><path d="M 4.953125 -3.453125 C 4.953125 -2.242188 4.769531 -1.347656 4.40625 -0.765625 C 4.039062 -0.191406 3.484375 0.09375 2.734375 0.09375 C 2.015625 0.09375 1.46875 -0.203125 1.09375 -0.796875 C 0.726562 -1.398438 0.546875 -2.285156 0.546875 -3.453125 C 0.546875 -4.648438 0.722656 -5.535156 1.078125 -6.109375 C 1.441406 -6.691406 1.992188 -6.984375 2.734375 -6.984375 C 3.460938 -6.984375 4.015625 -6.679688 4.390625 -6.078125 C 4.765625 -5.484375 4.953125 -4.609375 4.953125 -3.453125 Z M 1.046875 -3.453125 C 1.046875 -2.390625 1.1875 -1.601562 1.46875 -1.09375 C 1.75 -0.582031 2.171875 -0.328125 2.734375 -0.328125 C 3.328125 -0.328125 3.757812 -0.585938 4.03125 -1.109375 C 4.300781 -1.640625 4.4375 -2.421875 4.4375 -3.453125 C 4.4375 -4.472656 4.300781 -5.242188 4.03125 -5.765625 C 3.757812 -6.296875 3.328125 -6.5625 2.734375 -6.5625 C 2.140625 -6.5625 1.707031 -6.296875 1.4375 -5.765625 C 1.175781 -5.242188 1.046875 -4.472656 1.046875 -3.453125 Z M 1.046875 -3.453125 "/></g></g><g transform="translate(78.690368, 281.749855)"><g><path d="M 4.828125 0 L 0.53125 0 L 0.53125 -0.40625 L 2.359375 -2.328125 C 2.867188 -2.859375 3.226562 -3.265625 3.4375 -3.546875 C 3.644531 -3.828125 3.796875 -4.09375 3.890625 -4.34375 C 3.992188 -4.601562 4.046875 -4.875 4.046875 -5.15625 C 4.046875 -5.570312 3.910156 -5.90625 3.640625 -6.15625 C 3.367188 -6.414062 3.019531 -6.546875 2.59375 -6.546875 C 2.019531 -6.546875 1.46875 -6.335938 0.9375 -5.921875 L 0.6875 -6.25 C 1.257812 -6.726562 1.894531 -6.96875 2.59375 -6.96875 C 3.195312 -6.96875 3.671875 -6.804688 4.015625 -6.484375 C 4.359375 -6.171875 4.53125 -5.734375 4.53125 -5.171875 C 4.53125 -4.710938 4.410156 -4.269531 4.171875 -3.84375 C 3.941406 -3.425781 3.523438 -2.90625 2.921875 -2.28125 L 1.15625 -0.46875 L 1.15625 -0.453125 L 4.828125 -0.453125 Z M 4.828125 0 "/></g></g><g transform="translate(84.182811, 281.749855)"><g><path d="M 3.203125 0 L 2.75 0 L 2.75 -5 C 2.75 -5.457031 2.765625 -5.929688 2.796875 -6.421875 C 2.753906 -6.367188 2.707031 -6.320312 2.65625 -6.28125 C 2.601562 -6.238281 2.117188 -5.859375 1.203125 -5.140625 L 0.9375 -5.46875 L 2.796875 -6.875 L 3.203125 -6.875 Z M 3.203125 0 "/></g></g></g><g fill="#000000" fill-opacity="1"><g transform="translate(114.252237, 281.749855)"><g><path d="M 5.96875 0 L 5.484375 0 L 1.421875 -6.09375 L 1.375 -6.09375 C 1.414062 -5.375 1.4375 -4.828125 1.4375 -4.453125 L 1.4375 0 L 0.96875 0 L 0.96875 -6.875 L 1.453125 -6.875 L 5.515625 -0.78125 L 5.546875 -0.78125 C 5.515625 -1.34375 5.5 -1.878906 5.5 -2.390625 L 5.5 -6.875 L 5.96875 -6.875 Z M 5.96875 0 "/></g></g><g transform="translate(121.191791, 281.749855)"><g><path d="M 5.078125 -2.5625 C 5.078125 -1.726562 4.875 -1.078125 4.46875 -0.609375 C 4.070312 -0.140625 3.515625 0.09375 2.796875 0.09375 C 2.347656 0.09375 1.953125 -0.0078125 1.609375 -0.21875 C 1.273438 -0.4375 1.015625 -0.75 0.828125 -1.15625 C 0.648438 -1.5625 0.5625 -2.03125 0.5625 -2.5625 C 0.5625 -3.394531 0.757812 -4.039062 1.15625 -4.5 C 1.5625 -4.96875 2.117188 -5.203125 2.828125 -5.203125 C 3.523438 -5.203125 4.070312 -4.96875 4.46875 -4.5 C 4.875 -4.03125 5.078125 -3.382812 5.078125 -2.5625 Z M 1.046875 -2.5625 C 1.046875 -1.863281 1.195312 -1.316406 1.5 -0.921875 C 1.8125 -0.523438 2.25 -0.328125 2.8125 -0.328125 C 3.382812 -0.328125 3.820312 -0.523438 4.125 -0.921875 C 4.4375 -1.316406 4.59375 -1.863281 4.59375 -2.5625 C 4.59375 -3.269531 4.4375 -3.816406 4.125 -4.203125 C 3.8125 -4.585938 3.375 -4.78125 2.8125 -4.78125 C 2.25 -4.78125 1.8125 -4.585938 1.5 -4.203125 C 1.195312 -3.816406 1.046875 -3.269531 1.046875 -2.5625 Z M 1.046875 -2.5625 "/></g></g><g transform="translate(126.829886, 281.749855)"><g><path d="M 1.96875 0 L 0 -5.109375 L 0.484375 -5.109375 L 1.796875 -1.640625 C 1.972656 -1.191406 2.101562 -0.800781 2.1875 -0.46875 L 2.21875 -0.46875 C 2.351562 -0.894531 2.488281 -1.285156 2.625 -1.640625 L 3.9375 -5.109375 L 4.421875 -5.109375 L 2.4375 0 Z M 1.96875 0 "/></g></g><g transform="translate(131.246393, 281.749855)"><g/></g><g transform="translate(133.745948, 281.749855)"><g><path d="M 4.828125 0 L 0.53125 0 L 0.53125 -0.40625 L 2.359375 -2.328125 C 2.867188 -2.859375 3.226562 -3.265625 3.4375 -3.546875 C 3.644531 -3.828125 3.796875 -4.09375 3.890625 -4.34375 C 3.992188 -4.601562 4.046875 -4.875 4.046875 -5.15625 C 4.046875 -5.570312 3.910156 -5.90625 3.640625 -6.15625 C 3.367188 -6.414062 3.019531 -6.546875 2.59375 -6.546875 C 2.019531 -6.546875 1.46875 -6.335938 0.9375 -5.921875 L 0.6875 -6.25 C 1.257812 -6.726562 1.894531 -6.96875 2.59375 -6.96875 C 3.195312 -6.96875 3.671875 -6.804688 4.015625 -6.484375 C 4.359375 -6.171875 4.53125 -5.734375 4.53125 -5.171875 C 4.53125 -4.710938 4.410156 -4.269531 4.171875 -3.84375 C 3.941406 -3.425781 3.523438 -2.90625 2.921875 -2.28125 L 1.15625 -0.46875 L 1.15625 -0.453125 L 4.828125 -0.453125 Z M 4.828125 0 "/></g></g><g transform="translate(139.238391, 281.749855)"><g><path d="M 4.953125 -3.453125 C 4.953125 -2.242188 4.769531 -1.347656 4.40625 -0.765625 C 4.039062 -0.191406 3.484375 0.09375 2.734375 0.09375 C 2.015625 0.09375 1.46875 -0.203125 1.09375 -0.796875 C 0.726562 -1.398438 0.546875 -2.285156 0.546875 -3.453125 C 0.546875 -4.648438 0.722656 -5.535156 1.078125 -6.109375 C 1.441406 -6.691406 1.992188 -6.984375 2.734375 -6.984375 C 3.460938 -6.984375 4.015625 -6.679688 4.390625 -6.078125 C 4.765625 -5.484375 4.953125 -4.609375 4.953125 -3.453125 Z M 1.046875 -3.453125 C 1.046875 -2.390625 1.1875 -1.601562 1.46875 -1.09375 C 1.75 -0.582031 2.171875 -0.328125 2.734375 -0.328125 C 3.328125 -0.328125 3.757812 -0.585938 4.03125 -1.109375 C 4.300781 -1.640625 4.4375 -2.421875 4.4375 -3.453125 C 4.4375 -4.472656 4.300781 -5.242188 4.03125 -5.765625 C 3.757812 -6.296875 3.328125 -6.5625 2.734375 -6.5625 C 2.140625 -6.5625 1.707031 -6.296875 1.4375 -5.765625 C 1.175781 -5.242188 1.046875 -4.472656 1.046875 -3.453125 Z M 1.046875 -3.453125 "/></g></g><g transform="translate(144.730834, 281.749855)"><g><path d="M 4.828125 0 L 0.53125 0 L 0.53125 -0.40625 L 2.359375 -2.328125 C 2.867188 -2.859375 3.226562 -3.265625 3.4375 -3.546875 C 3.644531 -3.828125 3.796875 -4.09375 3.890625 -4.34375 C 3.992188 -4.601562 4.046875 -4.875 4.046875 -5.15625 C 4.046875 -5.570312 3.910156 -5.90625 3.640625 -6.15625 C 3.367188 -6.414062 3.019531 -6.546875 2.59375 -6.546875 C 2.019531 -6.546875 1.46875 -6.335938 0.9375 -5.921875 L 0.6875 -6.25 C 1.257812 -6.726562 1.894531 -6.96875 2.59375 -6.96875 C 3.195312 -6.96875 3.671875 -6.804688 4.015625 -6.484375 C 4.359375 -6.171875 4.53125 -5.734375 4.53125 -5.171875 C 4.53125 -4.710938 4.410156 -4.269531 4.171875 -3.84375 C 3.941406 -3.425781 3.523438 -2.90625 2.921875 -2.28125 L 1.15625 -0.46875 L 1.15625 -0.453125 L 4.828125 -0.453125 Z M 4.828125 0 "/></g></g><g transform="translate(150.223278, 281.749855)"><g><path d="M 3.203125 0 L 2.75 0 L 2.75 -5 C 2.75 -5.457031 2.765625 -5.929688 2.796875 -6.421875 C 2.753906 -6.367188 2.707031 -6.320312 2.65625 -6.28125 C 2.601562 -6.238281 2.117188 -5.859375 1.203125 -5.140625 L 0.9375 -5.46875 L 2.796875 -6.875 L 3.203125 -6.875 Z M 3.203125 0 "/></g></g></g><g fill="#000000" fill-opacity="1"><g transform="translate(183.455692, 281.749855)"><g><path d="M -0.15625 1.734375 C -0.445312 1.734375 -0.679688 1.691406 -0.859375 1.609375 L -0.859375 1.1875 C -0.617188 1.25 -0.390625 1.28125 -0.171875 1.28125 C 0.585938 1.28125 0.96875 0.867188 0.96875 0.046875 L 0.96875 -6.875 L 1.453125 -6.875 L 1.453125 0 C 1.453125 1.15625 0.914062 1.734375 -0.15625 1.734375 Z M -0.15625 1.734375 "/></g></g><g transform="translate(185.833088, 281.749855)"><g><path d="M 3.953125 0 L 3.84375 -0.8125 L 3.796875 -0.8125 C 3.546875 -0.476562 3.285156 -0.242188 3.015625 -0.109375 C 2.742188 0.0234375 2.421875 0.09375 2.046875 0.09375 C 1.546875 0.09375 1.15625 -0.03125 0.875 -0.28125 C 0.59375 -0.539062 0.453125 -0.898438 0.453125 -1.359375 C 0.453125 -1.859375 0.660156 -2.242188 1.078125 -2.515625 C 1.492188 -2.796875 2.097656 -2.941406 2.890625 -2.953125 L 3.859375 -2.984375 L 3.859375 -3.328125 C 3.859375 -3.804688 3.757812 -4.171875 3.5625 -4.421875 C 3.363281 -4.671875 3.046875 -4.796875 2.609375 -4.796875 C 2.140625 -4.796875 1.648438 -4.664062 1.140625 -4.40625 L 0.96875 -4.796875 C 1.53125 -5.066406 2.082031 -5.203125 2.625 -5.203125 C 3.1875 -5.203125 3.601562 -5.054688 3.875 -4.765625 C 4.15625 -4.472656 4.296875 -4.015625 4.296875 -3.390625 L 4.296875 0 Z M 2.078125 -0.328125 C 2.617188 -0.328125 3.046875 -0.484375 3.359375 -0.796875 C 3.679688 -1.109375 3.84375 -1.539062 3.84375 -2.09375 L 3.84375 -2.59375 L 2.953125 -2.5625 C 2.234375 -2.53125 1.71875 -2.414062 1.40625 -2.21875 C 1.101562 -2.03125 0.953125 -1.738281 0.953125 -1.34375 C 0.953125 -1.019531 1.050781 -0.769531 1.25 -0.59375 C 1.445312 -0.414062 1.722656 -0.328125 2.078125 -0.328125 Z M 2.078125 -0.328125 "/></g></g><g transform="translate(190.930865, 281.749855)"><g><path d="M 4.421875 0 L 4.421875 -3.3125 C 4.421875 -3.820312 4.3125 -4.191406 4.09375 -4.421875 C 3.875 -4.660156 3.539062 -4.78125 3.09375 -4.78125 C 2.476562 -4.78125 2.03125 -4.625 1.75 -4.3125 C 1.46875 -4.007812 1.328125 -3.507812 1.328125 -2.8125 L 1.328125 0 L 0.859375 0 L 0.859375 -5.109375 L 1.25 -5.109375 L 1.34375 -4.40625 L 1.375 -4.40625 C 1.695312 -4.9375 2.285156 -5.203125 3.140625 -5.203125 C 4.296875 -5.203125 4.875 -4.582031 4.875 -3.34375 L 4.875 0 Z M 4.421875 0 "/></g></g><g transform="translate(196.606546, 281.749855)"><g/></g><g transform="translate(199.106101, 281.749855)"><g><path d="M 4.828125 0 L 0.53125 0 L 0.53125 -0.40625 L 2.359375 -2.328125 C 2.867188 -2.859375 3.226562 -3.265625 3.4375 -3.546875 C 3.644531 -3.828125 3.796875 -4.09375 3.890625 -4.34375 C 3.992188 -4.601562 4.046875 -4.875 4.046875 -5.15625 C 4.046875 -5.570312 3.910156 -5.90625 3.640625 -6.15625 C 3.367188 -6.414062 3.019531 -6.546875 2.59375 -6.546875 C 2.019531 -6.546875 1.46875 -6.335938 0.9375 -5.921875 L 0.6875 -6.25 C 1.257812 -6.726562 1.894531 -6.96875 2.59375 -6.96875 C 3.195312 -6.96875 3.671875 -6.804688 4.015625 -6.484375 C 4.359375 -6.171875 4.53125 -5.734375 4.53125 -5.171875 C 4.53125 -4.710938 4.410156 -4.269531 4.171875 -3.84375 C 3.941406 -3.425781 3.523438 -2.90625 2.921875 -2.28125 L 1.15625 -0.46875 L 1.15625 -0.453125 L 4.828125 -0.453125 Z M 4.828125 0 "/></g></g><g transform="translate(204.598545, 281.749855)"><g><path d="M 4.953125 -3.453125 C 4.953125 -2.242188 4.769531 -1.347656 4.40625 -0.765625 C 4.039062 -0.191406 3.484375 0.09375 2.734375 0.09375 C 2.015625 0.09375 1.46875 -0.203125 1.09375 -0.796875 C 0.726562 -1.398438 0.546875 -2.285156 0.546875 -3.453125 C 0.546875 -4.648438 0.722656 -5.535156 1.078125 -6.109375 C 1.441406 -6.691406 1.992188 -6.984375 2.734375 -6.984375 C 3.460938 -6.984375 4.015625 -6.679688 4.390625 -6.078125 C 4.765625 -5.484375 4.953125 -4.609375 4.953125 -3.453125 Z M 1.046875 -3.453125 C 1.046875 -2.390625 1.1875 -1.601562 1.46875 -1.09375 C 1.75 -0.582031 2.171875 -0.328125 2.734375 -0.328125 C 3.328125 -0.328125 3.757812 -0.585938 4.03125 -1.109375 C 4.300781 -1.640625 4.4375 -2.421875 4.4375 -3.453125 C 4.4375 -4.472656 4.300781 -5.242188 4.03125 -5.765625 C 3.757812 -6.296875 3.328125 -6.5625 2.734375 -6.5625 C 2.140625 -6.5625 1.707031 -6.296875 1.4375 -5.765625 C 1.175781 -5.242188 1.046875 -4.472656 1.046875 -3.453125 Z M 1.046875 -3.453125 "/></g></g><g transform="translate(210.090988, 281.749855)"><g><path d="M 4.828125 0 L 0.53125 0 L 0.53125 -0.40625 L 2.359375 -2.328125 C 2.867188 -2.859375 3.226562 -3.265625 3.4375 -3.546875 C 3.644531 -3.828125 3.796875 -4.09375 3.890625 -4.34375 C 3.992188 -4.601562 4.046875 -4.875 4.046875 -5.15625 C 4.046875 -5.570312 3.910156 -5.90625 3.640625 -6.15625 C 3.367188 -6.414062 3.019531 -6.546875 2.59375 -6.546875 C 2.019531 -6.546875 1.46875 -6.335938 0.9375 -5.921875 L 0.6875 -6.25 C 1.257812 -6.726562 1.894531 -6.96875 2.59375 -6.96875 C 3.195312 -6.96875 3.671875 -6.804688 4.015625 -6.484375 C 4.359375 -6.171875 4.53125 -5.734375 4.53125 -5.171875 C 4.53125 -4.710938 4.410156 -4.269531 4.171875 -3.84375 C 3.941406 -3.425781 3.523438 -2.90625 2.921875 -2.28125 L 1.15625 -0.46875 L 1.15625 -0.453125 L 4.828125 -0.453125 Z M 4.828125 0 "/></g></g><g transform="translate(215.583431, 281.749855)"><g><path d="M 4.828125 0 L 0.53125 0 L 0.53125 -0.40625 L 2.359375 -2.328125 C 2.867188 -2.859375 3.226562 -3.265625 3.4375 -3.546875 C 3.644531 -3.828125 3.796875 -4.09375 3.890625 -4.34375 C 3.992188 -4.601562 4.046875 -4.875 4.046875 -5.15625 C 4.046875 -5.570312 3.910156 -5.90625 3.640625 -6.15625 C 3.367188 -6.414062 3.019531 -6.546875 2.59375 -6.546875 C 2.019531 -6.546875 1.46875 -6.335938 0.9375 -5.921875 L 0.6875 -6.25 C 1.257812 -6.726562 1.894531 -6.96875 2.59375 -6.96875 C 3.195312 -6.96875 3.671875 -6.804688 4.015625 -6.484375 C 4.359375 -6.171875 4.53125 -5.734375 4.53125 -5.171875 C 4.53125 -4.710938 4.410156 -4.269531 4.171875 -3.84375 C 3.941406 -3.425781 3.523438 -2.90625 2.921875 -2.28125 L 1.15625 -0.46875 L 1.15625 -0.453125 L 4.828125 -0.453125 Z M 4.828125 0 "/></g></g></g><g fill="#000000" fill-opacity="1"><g transform="translate(243.615635, 281.749855)"><g><path d="M 4 0 L 1.4375 -6.34375 L 1.390625 -6.34375 C 1.421875 -5.957031 1.4375 -5.5625 1.4375 -5.15625 L 1.4375 0 L 0.96875 0 L 0.96875 -6.875 L 1.71875 -6.875 L 4.15625 -0.828125 L 4.171875 -0.828125 L 6.609375 -6.875 L 7.34375 -6.875 L 7.34375 0 L 6.859375 0 L 6.859375 -5.203125 C 6.859375 -5.566406 6.875 -5.941406 6.90625 -6.328125 L 6.875 -6.328125 L 4.296875 0 Z M 4 0 "/></g></g><g transform="translate(251.917728, 281.749855)"><g><path d="M 3.953125 0 L 3.84375 -0.8125 L 3.796875 -0.8125 C 3.546875 -0.476562 3.285156 -0.242188 3.015625 -0.109375 C 2.742188 0.0234375 2.421875 0.09375 2.046875 0.09375 C 1.546875 0.09375 1.15625 -0.03125 0.875 -0.28125 C 0.59375 -0.539062 0.453125 -0.898438 0.453125 -1.359375 C 0.453125 -1.859375 0.660156 -2.242188 1.078125 -2.515625 C 1.492188 -2.796875 2.097656 -2.941406 2.890625 -2.953125 L 3.859375 -2.984375 L 3.859375 -3.328125 C 3.859375 -3.804688 3.757812 -4.171875 3.5625 -4.421875 C 3.363281 -4.671875 3.046875 -4.796875 2.609375 -4.796875 C 2.140625 -4.796875 1.648438 -4.664062 1.140625 -4.40625 L 0.96875 -4.796875 C 1.53125 -5.066406 2.082031 -5.203125 2.625 -5.203125 C 3.1875 -5.203125 3.601562 -5.054688 3.875 -4.765625 C 4.15625 -4.472656 4.296875 -4.015625 4.296875 -3.390625 L 4.296875 0 Z M 2.078125 -0.328125 C 2.617188 -0.328125 3.046875 -0.484375 3.359375 -0.796875 C 3.679688 -1.109375 3.84375 -1.539062 3.84375 -2.09375 L 3.84375 -2.59375 L 2.953125 -2.5625 C 2.234375 -2.53125 1.71875 -2.414062 1.40625 -2.21875 C 1.101562 -2.03125 0.953125 -1.738281 0.953125 -1.34375 C 0.953125 -1.019531 1.050781 -0.769531 1.25 -0.59375 C 1.445312 -0.414062 1.722656 -0.328125 2.078125 -0.328125 Z M 2.078125 -0.328125 "/></g></g><g transform="translate(257.015505, 281.749855)"><g><path d="M 2.859375 -5.203125 C 3.078125 -5.203125 3.3125 -5.179688 3.5625 -5.140625 L 3.46875 -4.6875 C 3.257812 -4.75 3.039062 -4.78125 2.8125 -4.78125 C 2.375 -4.78125 2.015625 -4.59375 1.734375 -4.21875 C 1.460938 -3.851562 1.328125 -3.382812 1.328125 -2.8125 L 1.328125 0 L 0.859375 0 L 0.859375 -5.109375 L 1.25 -5.109375 L 1.296875 -4.1875 L 1.328125 -4.1875 C 1.535156 -4.5625 1.757812 -4.820312 2 -4.96875 C 2.238281 -5.125 2.523438 -5.203125 2.859375 -5.203125 Z M 2.859375 -5.203125 "/></g></g><g transform="translate(260.760139, 281.749855)"><g><path d="M 2.890625 0.09375 C 2.160156 0.09375 1.585938 -0.132812 1.171875 -0.59375 C 0.765625 -1.050781 0.5625 -1.695312 0.5625 -2.53125 C 0.5625 -3.375 0.773438 -4.03125 1.203125 -4.5 C 1.628906 -4.96875 2.21875 -5.203125 2.96875 -5.203125 C 3.40625 -5.203125 3.828125 -5.128906 4.234375 -4.984375 L 4.109375 -4.5625 C 3.660156 -4.707031 3.273438 -4.78125 2.953125 -4.78125 C 2.328125 -4.78125 1.851562 -4.585938 1.53125 -4.203125 C 1.207031 -3.816406 1.046875 -3.257812 1.046875 -2.53125 C 1.046875 -1.84375 1.207031 -1.300781 1.53125 -0.90625 C 1.851562 -0.519531 2.304688 -0.328125 2.890625 -0.328125 C 3.347656 -0.328125 3.773438 -0.410156 4.171875 -0.578125 L 4.171875 -0.140625 C 3.847656 0.015625 3.421875 0.09375 2.890625 0.09375 Z M 2.890625 0.09375 "/></g></g><g transform="translate(265.331694, 281.749855)"><g><path d="M 4.421875 0 L 4.421875 -3.3125 C 4.421875 -3.820312 4.3125 -4.191406 4.09375 -4.421875 C 3.875 -4.660156 3.539062 -4.78125 3.09375 -4.78125 C 2.476562 -4.78125 2.03125 -4.625 1.75 -4.3125 C 1.46875 -4.007812 1.328125 -3.507812 1.328125 -2.8125 L 1.328125 0 L 0.859375 0 L 0.859375 -7.3125 L 1.328125 -7.3125 L 1.328125 -4.984375 L 1.296875 -4.328125 L 1.328125 -4.328125 C 1.515625 -4.640625 1.753906 -4.863281 2.046875 -5 C 2.335938 -5.132812 2.703125 -5.203125 3.140625 -5.203125 C 4.296875 -5.203125 4.875 -4.582031 4.875 -3.34375 L 4.875 0 Z M 4.421875 0 "/></g></g><g transform="translate(271.007375, 281.749855)"><g/></g><g transform="translate(273.50693, 281.749855)"><g><path d="M 4.828125 0 L 0.53125 0 L 0.53125 -0.40625 L 2.359375 -2.328125 C 2.867188 -2.859375 3.226562 -3.265625 3.4375 -3.546875 C 3.644531 -3.828125 3.796875 -4.09375 3.890625 -4.34375 C 3.992188 -4.601562 4.046875 -4.875 4.046875 -5.15625 C 4.046875 -5.570312 3.910156 -5.90625 3.640625 -6.15625 C 3.367188 -6.414062 3.019531 -6.546875 2.59375 -6.546875 C 2.019531 -6.546875 1.46875 -6.335938 0.9375 -5.921875 L 0.6875 -6.25 C 1.257812 -6.726562 1.894531 -6.96875 2.59375 -6.96875 C 3.195312 -6.96875 3.671875 -6.804688 4.015625 -6.484375 C 4.359375 -6.171875 4.53125 -5.734375 4.53125 -5.171875 C 4.53125 -4.710938 4.410156 -4.269531 4.171875 -3.84375 C 3.941406 -3.425781 3.523438 -2.90625 2.921875 -2.28125 L 1.15625 -0.46875 L 1.15625 -0.453125 L 4.828125 -0.453125 Z M 4.828125 0 "/></g></g><g transform="translate(278.999374, 281.749855)"><g><path d="M 4.953125 -3.453125 C 4.953125 -2.242188 4.769531 -1.347656 4.40625 -0.765625 C 4.039062 -0.191406 3.484375 0.09375 2.734375 0.09375 C 2.015625 0.09375 1.46875 -0.203125 1.09375 -0.796875 C 0.726562 -1.398438 0.546875 -2.285156 0.546875 -3.453125 C 0.546875 -4.648438 0.722656 -5.535156 1.078125 -6.109375 C 1.441406 -6.691406 1.992188 -6.984375 2.734375 -6.984375 C 3.460938 -6.984375 4.015625 -6.679688 4.390625 -6.078125 C 4.765625 -5.484375 4.953125 -4.609375 4.953125 -3.453125 Z M 1.046875 -3.453125 C 1.046875 -2.390625 1.1875 -1.601562 1.46875 -1.09375 C 1.75 -0.582031 2.171875 -0.328125 2.734375 -0.328125 C 3.328125 -0.328125 3.757812 -0.585938 4.03125 -1.109375 C 4.300781 -1.640625 4.4375 -2.421875 4.4375 -3.453125 C 4.4375 -4.472656 4.300781 -5.242188 4.03125 -5.765625 C 3.757812 -6.296875 3.328125 -6.5625 2.734375 -6.5625 C 2.140625 -6.5625 1.707031 -6.296875 1.4375 -5.765625 C 1.175781 -5.242188 1.046875 -4.472656 1.046875 -3.453125 Z M 1.046875 -3.453125 "/></g></g><g transform="translate(284.491817, 281.749855)"><g><path d="M 4.828125 0 L 0.53125 0 L 0.53125 -0.40625 L 2.359375 -2.328125 C 2.867188 -2.859375 3.226562 -3.265625 3.4375 -3.546875 C 3.644531 -3.828125 3.796875 -4.09375 3.890625 -4.34375 C 3.992188 -4.601562 4.046875 -4.875 4.046875 -5.15625 C 4.046875 -5.570312 3.910156 -5.90625 3.640625 -6.15625 C 3.367188 -6.414062 3.019531 -6.546875 2.59375 -6.546875 C 2.019531 -6.546875 1.46875 -6.335938 0.9375 -5.921875 L 0.6875 -6.25 C 1.257812 -6.726562 1.894531 -6.96875 2.59375 -6.96875 C 3.195312 -6.96875 3.671875 -6.804688 4.015625 -6.484375 C 4.359375 -6.171875 4.53125 -5.734375 4.53125 -5.171875 C 4.53125 -4.710938 4.410156 -4.269531 4.171875 -3.84375 C 3.941406 -3.425781 3.523438 -2.90625 2.921875 -2.28125 L 1.15625 -0.46875 L 1.15625 -0.453125 L 4.828125 -0.453125 Z M 4.828125 0 "/></g></g><g transform="translate(289.98426, 281.749855)"><g><path d="M 4.828125 0 L 0.53125 0 L 0.53125 -0.40625 L 2.359375 -2.328125 C 2.867188 -2.859375 3.226562 -3.265625 3.4375 -3.546875 C 3.644531 -3.828125 3.796875 -4.09375 3.890625 -4.34375 C 3.992188 -4.601562 4.046875 -4.875 4.046875 -5.15625 C 4.046875 -5.570312 3.910156 -5.90625 3.640625 -6.15625 C 3.367188 -6.414062 3.019531 -6.546875 2.59375 -6.546875 C 2.019531 -6.546875 1.46875 -6.335938 0.9375 -5.921875 L 0.6875 -6.25 C 1.257812 -6.726562 1.894531 -6.96875 2.59375 -6.96875 C 3.195312 -6.96875 3.671875 -6.804688 4.015625 -6.484375 C 4.359375 -6.171875 4.53125 -5.734375 4.53125 -5.171875 C 4.53125 -4.710938 4.410156 -4.269531 4.171875 -3.84375 C 3.941406 -3.425781 3.523438 -2.90625 2.921875 -2.28125 L 1.15625 -0.46875 L 1.15625 -0.453125 L 4.828125 -0.453125 Z M 4.828125 0 "/></g></g></g><g fill="#000000" fill-opacity="1"><g transform="translate(314.435345, 281.749855)"><g><path d="M 4 0 L 1.4375 -6.34375 L 1.390625 -6.34375 C 1.421875 -5.957031 1.4375 -5.5625 1.4375 -5.15625 L 1.4375 0 L 0.96875 0 L 0.96875 -6.875 L 1.71875 -6.875 L 4.15625 -0.828125 L 4.171875 -0.828125 L 6.609375 -6.875 L 7.34375 -6.875 L 7.34375 0 L 6.859375 0 L 6.859375 -5.203125 C 6.859375 -5.566406 6.875 -5.941406 6.90625 -6.328125 L 6.875 -6.328125 L 4.296875 0 Z M 4 0 "/></g></g><g transform="translate(322.737438, 281.749855)"><g><path d="M 3.953125 0 L 3.84375 -0.8125 L 3.796875 -0.8125 C 3.546875 -0.476562 3.285156 -0.242188 3.015625 -0.109375 C 2.742188 0.0234375 2.421875 0.09375 2.046875 0.09375 C 1.546875 0.09375 1.15625 -0.03125 0.875 -0.28125 C 0.59375 -0.539062 0.453125 -0.898438 0.453125 -1.359375 C 0.453125 -1.859375 0.660156 -2.242188 1.078125 -2.515625 C 1.492188 -2.796875 2.097656 -2.941406 2.890625 -2.953125 L 3.859375 -2.984375 L 3.859375 -3.328125 C 3.859375 -3.804688 3.757812 -4.171875 3.5625 -4.421875 C 3.363281 -4.671875 3.046875 -4.796875 2.609375 -4.796875 C 2.140625 -4.796875 1.648438 -4.664062 1.140625 -4.40625 L 0.96875 -4.796875 C 1.53125 -5.066406 2.082031 -5.203125 2.625 -5.203125 C 3.1875 -5.203125 3.601562 -5.054688 3.875 -4.765625 C 4.15625 -4.472656 4.296875 -4.015625 4.296875 -3.390625 L 4.296875 0 Z M 2.078125 -0.328125 C 2.617188 -0.328125 3.046875 -0.484375 3.359375 -0.796875 C 3.679688 -1.109375 3.84375 -1.539062 3.84375 -2.09375 L 3.84375 -2.59375 L 2.953125 -2.5625 C 2.234375 -2.53125 1.71875 -2.414062 1.40625 -2.21875 C 1.101562 -2.03125 0.953125 -1.738281 0.953125 -1.34375 C 0.953125 -1.019531 1.050781 -0.769531 1.25 -0.59375 C 1.445312 -0.414062 1.722656 -0.328125 2.078125 -0.328125 Z M 2.078125 -0.328125 "/></g></g><g transform="translate(327.835215, 281.749855)"><g><path d="M 0 -5.109375 L 0.484375 -5.109375 L 1.5625 -2.234375 C 1.882812 -1.359375 2.09375 -0.765625 2.1875 -0.453125 L 2.21875 -0.453125 C 2.34375 -0.859375 2.554688 -1.460938 2.859375 -2.265625 L 3.9375 -5.109375 L 4.421875 -5.109375 L 2.125 0.828125 C 1.945312 1.304688 1.789062 1.628906 1.65625 1.796875 C 1.53125 1.972656 1.382812 2.101562 1.21875 2.1875 C 1.050781 2.269531 0.847656 2.3125 0.609375 2.3125 C 0.429688 2.3125 0.234375 2.28125 0.015625 2.21875 L 0.015625 1.8125 C 0.203125 1.863281 0.398438 1.890625 0.609375 1.890625 C 0.765625 1.890625 0.90625 1.847656 1.03125 1.765625 C 1.15625 1.691406 1.265625 1.578125 1.359375 1.421875 C 1.460938 1.265625 1.578125 1.015625 1.703125 0.671875 C 1.835938 0.328125 1.921875 0.101562 1.953125 0 Z M 0 -5.109375 "/></g></g></g><g fill="#000000" fill-opacity="1"><g transform="translate(332.251722, 281.749855)"><g/></g><g transform="translate(334.751277, 281.749855)"><g/></g></g><g fill="#000000" fill-opacity="1"><g transform="translate(337.250832, 281.749855)"><g><path d="M 4.828125 0 L 0.53125 0 L 0.53125 -0.40625 L 2.359375 -2.328125 C 2.867188 -2.859375 3.226562 -3.265625 3.4375 -3.546875 C 3.644531 -3.828125 3.796875 -4.09375 3.890625 -4.34375 C 3.992188 -4.601562 4.046875 -4.875 4.046875 -5.15625 C 4.046875 -5.570312 3.910156 -5.90625 3.640625 -6.15625 C 3.367188 -6.414062 3.019531 -6.546875 2.59375 -6.546875 C 2.019531 -6.546875 1.46875 -6.335938 0.9375 -5.921875 L 0.6875 -6.25 C 1.257812 -6.726562 1.894531 -6.96875 2.59375 -6.96875 C 3.195312 -6.96875 3.671875 -6.804688 4.015625 -6.484375 C 4.359375 -6.171875 4.53125 -5.734375 4.53125 -5.171875 C 4.53125 -4.710938 4.410156 -4.269531 4.171875 -3.84375 C 3.941406 -3.425781 3.523438 -2.90625 2.921875 -2.28125 L 1.15625 -0.46875 L 1.15625 -0.453125 L 4.828125 -0.453125 Z M 4.828125 0 "/></g></g><g transform="translate(342.743276, 281.749855)"><g><path d="M 4.953125 -3.453125 C 4.953125 -2.242188 4.769531 -1.347656 4.40625 -0.765625 C 4.039062 -0.191406 3.484375 0.09375 2.734375 0.09375 C 2.015625 0.09375 1.46875 -0.203125 1.09375 -0.796875 C 0.726562 -1.398438 0.546875 -2.285156 0.546875 -3.453125 C 0.546875 -4.648438 0.722656 -5.535156 1.078125 -6.109375 C 1.441406 -6.691406 1.992188 -6.984375 2.734375 -6.984375 C 3.460938 -6.984375 4.015625 -6.679688 4.390625 -6.078125 C 4.765625 -5.484375 4.953125 -4.609375 4.953125 -3.453125 Z M 1.046875 -3.453125 C 1.046875 -2.390625 1.1875 -1.601562 1.46875 -1.09375 C 1.75 -0.582031 2.171875 -0.328125 2.734375 -0.328125 C 3.328125 -0.328125 3.757812 -0.585938 4.03125 -1.109375 C 4.300781 -1.640625 4.4375 -2.421875 4.4375 -3.453125 C 4.4375 -4.472656 4.300781 -5.242188 4.03125 -5.765625 C 3.757812 -6.296875 3.328125 -6.5625 2.734375 -6.5625 C 2.140625 -6.5625 1.707031 -6.296875 1.4375 -5.765625 C 1.175781 -5.242188 1.046875 -4.472656 1.046875 -3.453125 Z M 1.046875 -3.453125 "/></g></g><g transform="translate(348.235719, 281.749855)"><g><path d="M 4.828125 0 L 0.53125 0 L 0.53125 -0.40625 L 2.359375 -2.328125 C 2.867188 -2.859375 3.226562 -3.265625 3.4375 -3.546875 C 3.644531 -3.828125 3.796875 -4.09375 3.890625 -4.34375 C 3.992188 -4.601562 4.046875 -4.875 4.046875 -5.15625 C 4.046875 -5.570312 3.910156 -5.90625 3.640625 -6.15625 C 3.367188 -6.414062 3.019531 -6.546875 2.59375 -6.546875 C 2.019531 -6.546875 1.46875 -6.335938 0.9375 -5.921875 L 0.6875 -6.25 C 1.257812 -6.726562 1.894531 -6.96875 2.59375 -6.96875 C 3.195312 -6.96875 3.671875 -6.804688 4.015625 -6.484375 C 4.359375 -6.171875 4.53125 -5.734375 4.53125 -5.171875 C 4.53125 -4.710938 4.410156 -4.269531 4.171875 -3.84375 C 3.941406 -3.425781 3.523438 -2.90625 2.921875 -2.28125 L 1.15625 -0.46875 L 1.15625 -0.453125 L 4.828125 -0.453125 Z M 4.828125 0 "/></g></g><g transform="translate(353.728162, 281.749855)"><g><path d="M 4.828125 0 L 0.53125 0 L 0.53125 -0.40625 L 2.359375 -2.328125 C 2.867188 -2.859375 3.226562 -3.265625 3.4375 -3.546875 C 3.644531 -3.828125 3.796875 -4.09375 3.890625 -4.34375 C 3.992188 -4.601562 4.046875 -4.875 4.046875 -5.15625 C 4.046875 -5.570312 3.910156 -5.90625 3.640625 -6.15625 C 3.367188 -6.414062 3.019531 -6.546875 2.59375 -6.546875 C 2.019531 -6.546875 1.46875 -6.335938 0.9375 -5.921875 L 0.6875 -6.25 C 1.257812 -6.726562 1.894531 -6.96875 2.59375 -6.96875 C 3.195312 -6.96875 3.671875 -6.804688 4.015625 -6.484375 C 4.359375 -6.171875 4.53125 -5.734375 4.53125 -5.171875 C 4.53125 -4.710938 4.410156 -4.269531 4.171875 -3.84375 C 3.941406 -3.425781 3.523438 -2.90625 2.921875 -2.28125 L 1.15625 -0.46875 L 1.15625 -0.453125 L 4.828125 -0.453125 Z M 4.828125 0 "/></g></g></g><g fill="#000000" fill-opacity="1"><g transform="translate(385.008844, 281.749855)"><g><path d="M -0.15625 1.734375 C -0.445312 1.734375 -0.679688 1.691406 -0.859375 1.609375 L -0.859375 1.1875 C -0.617188 1.25 -0.390625 1.28125 -0.171875 1.28125 C 0.585938 1.28125 0.96875 0.867188 0.96875 0.046875 L 0.96875 -6.875 L 1.453125 -6.875 L 1.453125 0 C 1.453125 1.15625 0.914062 1.734375 -0.15625 1.734375 Z M -0.15625 1.734375 "/></g></g><g transform="translate(387.38624, 281.749855)"><g><path d="M 1.265625 -5.109375 L 1.265625 -1.796875 C 1.265625 -1.285156 1.367188 -0.910156 1.578125 -0.671875 C 1.796875 -0.441406 2.132812 -0.328125 2.59375 -0.328125 C 3.195312 -0.328125 3.640625 -0.476562 3.921875 -0.78125 C 4.210938 -1.09375 4.359375 -1.59375 4.359375 -2.28125 L 4.359375 -5.109375 L 4.828125 -5.109375 L 4.828125 0 L 4.421875 0 L 4.34375 -0.703125 L 4.3125 -0.703125 C 3.976562 -0.171875 3.390625 0.09375 2.546875 0.09375 C 1.378906 0.09375 0.796875 -0.523438 0.796875 -1.765625 L 0.796875 -5.109375 Z M 1.265625 -5.109375 "/></g></g><g transform="translate(393.061922, 281.749855)"><g><path d="M 4.421875 0 L 4.421875 -3.3125 C 4.421875 -3.820312 4.3125 -4.191406 4.09375 -4.421875 C 3.875 -4.660156 3.539062 -4.78125 3.09375 -4.78125 C 2.476562 -4.78125 2.03125 -4.625 1.75 -4.3125 C 1.46875 -4.007812 1.328125 -3.507812 1.328125 -2.8125 L 1.328125 0 L 0.859375 0 L 0.859375 -5.109375 L 1.25 -5.109375 L 1.34375 -4.40625 L 1.375 -4.40625 C 1.695312 -4.9375 2.285156 -5.203125 3.140625 -5.203125 C 4.296875 -5.203125 4.875 -4.582031 4.875 -3.34375 L 4.875 0 Z M 4.421875 0 "/></g></g><g transform="translate(398.737603, 281.749855)"><g/></g><g transform="translate(401.237158, 281.749855)"><g><path d="M 4.828125 0 L 0.53125 0 L 0.53125 -0.40625 L 2.359375 -2.328125 C 2.867188 -2.859375 3.226562 -3.265625 3.4375 -3.546875 C 3.644531 -3.828125 3.796875 -4.09375 3.890625 -4.34375 C 3.992188 -4.601562 4.046875 -4.875 4.046875 -5.15625 C 4.046875 -5.570312 3.910156 -5.90625 3.640625 -6.15625 C 3.367188 -6.414062 3.019531 -6.546875 2.59375 -6.546875 C 2.019531 -6.546875 1.46875 -6.335938 0.9375 -5.921875 L 0.6875 -6.25 C 1.257812 -6.726562 1.894531 -6.96875 2.59375 -6.96875 C 3.195312 -6.96875 3.671875 -6.804688 4.015625 -6.484375 C 4.359375 -6.171875 4.53125 -5.734375 4.53125 -5.171875 C 4.53125 -4.710938 4.410156 -4.269531 4.171875 -3.84375 C 3.941406 -3.425781 3.523438 -2.90625 2.921875 -2.28125 L 1.15625 -0.46875 L 1.15625 -0.453125 L 4.828125 -0.453125 Z M 4.828125 0 "/></g></g><g transform="translate(406.729601, 281.749855)"><g><path d="M 4.953125 -3.453125 C 4.953125 -2.242188 4.769531 -1.347656 4.40625 -0.765625 C 4.039062 -0.191406 3.484375 0.09375 2.734375 0.09375 C 2.015625 0.09375 1.46875 -0.203125 1.09375 -0.796875 C 0.726562 -1.398438 0.546875 -2.285156 0.546875 -3.453125 C 0.546875 -4.648438 0.722656 -5.535156 1.078125 -6.109375 C 1.441406 -6.691406 1.992188 -6.984375 2.734375 -6.984375 C 3.460938 -6.984375 4.015625 -6.679688 4.390625 -6.078125 C 4.765625 -5.484375 4.953125 -4.609375 4.953125 -3.453125 Z M 1.046875 -3.453125 C 1.046875 -2.390625 1.1875 -1.601562 1.46875 -1.09375 C 1.75 -0.582031 2.171875 -0.328125 2.734375 -0.328125 C 3.328125 -0.328125 3.757812 -0.585938 4.03125 -1.109375 C 4.300781 -1.640625 4.4375 -2.421875 4.4375 -3.453125 C 4.4375 -4.472656 4.300781 -5.242188 4.03125 -5.765625 C 3.757812 -6.296875 3.328125 -6.5625 2.734375 -6.5625 C 2.140625 -6.5625 1.707031 -6.296875 1.4375 -5.765625 C 1.175781 -5.242188 1.046875 -4.472656 1.046875 -3.453125 Z M 1.046875 -3.453125 "/></g></g><g transform="translate(412.222045, 281.749855)"><g><path d="M 4.828125 0 L 0.53125 0 L 0.53125 -0.40625 L 2.359375 -2.328125 C 2.867188 -2.859375 3.226562 -3.265625 3.4375 -3.546875 C 3.644531 -3.828125 3.796875 -4.09375 3.890625 -4.34375 C 3.992188 -4.601562 4.046875 -4.875 4.046875 -5.15625 C 4.046875 -5.570312 3.910156 -5.90625 3.640625 -6.15625 C 3.367188 -6.414062 3.019531 -6.546875 2.59375 -6.546875 C 2.019531 -6.546875 1.46875 -6.335938 0.9375 -5.921875 L 0.6875 -6.25 C 1.257812 -6.726562 1.894531 -6.96875 2.59375 -6.96875 C 3.195312 -6.96875 3.671875 -6.804688 4.015625 -6.484375 C 4.359375 -6.171875 4.53125 -5.734375 4.53125 -5.171875 C 4.53125 -4.710938 4.410156 -4.269531 4.171875 -3.84375 C 3.941406 -3.425781 3.523438 -2.90625 2.921875 -2.28125 L 1.15625 -0.46875 L 1.15625 -0.453125 L 4.828125 -0.453125 Z M 4.828125 0 "/></g></g><g transform="translate(417.714488, 281.749855)"><g><path d="M 4.828125 0 L 0.53125 0 L 0.53125 -0.40625 L 2.359375 -2.328125 C 2.867188 -2.859375 3.226562 -3.265625 3.4375 -3.546875 C 3.644531 -3.828125 3.796875 -4.09375 3.890625 -4.34375 C 3.992188 -4.601562 4.046875 -4.875 4.046875 -5.15625 C 4.046875 -5.570312 3.910156 -5.90625 3.640625 -6.15625 C 3.367188 -6.414062 3.019531 -6.546875 2.59375 -6.546875 C 2.019531 -6.546875 1.46875 -6.335938 0.9375 -5.921875 L 0.6875 -6.25 C 1.257812 -6.726562 1.894531 -6.96875 2.59375 -6.96875 C 3.195312 -6.96875 3.671875 -6.804688 4.015625 -6.484375 C 4.359375 -6.171875 4.53125 -5.734375 4.53125 -5.171875 C 4.53125 -4.710938 4.410156 -4.269531 4.171875 -3.84375 C 3.941406 -3.425781 3.523438 -2.90625 2.921875 -2.28125 L 1.15625 -0.46875 L 1.15625 -0.453125 L 4.828125 -0.453125 Z M 4.828125 0 "/></g></g></g><g mask="url(#id2)"><g transform="matrix(1, 0, 0, 1, 37, 23)"><g clip-path="url(#id4)"><g clip-path="url(#id3)"><path fill="#000000" d="M 1.023438 0.960938 L 396.742188 0.960938 L 396.742188 1.261719 L 1.023438 1.261719 Z M 1.023438 0.960938 " fill-opacity="1" fill-rule="nonzero"/></g></g></g></g><g mask="url(#id5)"><g transform="matrix(1, 0, 0, 1, 37, 104)"><g clip-path="url(#id7)"><g clip-path="url(#id6)"><path fill="#000000" d="M 1.023438 1.148438 L 396.742188 1.148438 L 396.742188 1.449219 L 1.023438 1.449219 Z M 1.023438 1.148438 " fill-opacity="1" fill-rule="nonzero"/></g></g></g></g><g mask="url(#id8)"><g transform="matrix(1, 0, 0, 1, 37, 186)"><g clip-path="url(#id10)"><g clip-path="url(#id9)"><path fill="#000000" d="M 1.023438 0.335938 L 396.742188 0.335938 L 396.742188 0.636719 L 1.023438 0.636719 Z M 1.023438 0.335938 " fill-opacity="1" fill-rule="nonzero"/></g></g></g></g><g mask="url(#id11)"><g transform="matrix(1, 0, 0, 1, 37, 267)"><g clip-path="url(#id13)"><g clip-path="url(#id12)"><path fill="#000000" d="M 1.023438 0.527344 L 396.742188 0.527344 L 396.742188 0.828125 L 1.023438 0.828125 Z M 1.023438 0.527344 " fill-opacity="1" fill-rule="nonzero"/></g></g></g></g><g fill="#000000" fill-opacity="1"><g transform="translate(19.724321, 27.719873)"><g><path d="M 0.609375 -2.921875 C 0.609375 -3.816406 0.726562 -4.566406 0.96875 -5.171875 C 1.21875 -5.785156 1.566406 -6.238281 2.015625 -6.53125 C 2.460938 -6.832031 3 -6.984375 3.625 -6.984375 C 3.914062 -6.984375 4.1875 -6.945312 4.4375 -6.875 L 4.4375 -6.453125 C 4.207031 -6.535156 3.929688 -6.578125 3.609375 -6.578125 C 2.835938 -6.578125 2.234375 -6.296875 1.796875 -5.734375 C 1.367188 -5.179688 1.128906 -4.375 1.078125 -3.3125 L 1.140625 -3.3125 C 1.378906 -3.625 1.648438 -3.859375 1.953125 -4.015625 C 2.265625 -4.171875 2.585938 -4.25 2.921875 -4.25 C 3.566406 -4.25 4.070312 -4.0625 4.4375 -3.6875 C 4.800781 -3.320312 4.984375 -2.816406 4.984375 -2.171875 C 4.984375 -1.472656 4.789062 -0.921875 4.40625 -0.515625 C 4.019531 -0.109375 3.503906 0.09375 2.859375 0.09375 C 2.171875 0.09375 1.625 -0.171875 1.21875 -0.703125 C 0.8125 -1.234375 0.609375 -1.972656 0.609375 -2.921875 Z M 2.859375 -0.3125 C 3.378906 -0.3125 3.78125 -0.472656 4.0625 -0.796875 C 4.351562 -1.117188 4.5 -1.582031 4.5 -2.1875 C 4.5 -2.707031 4.351562 -3.113281 4.0625 -3.40625 C 3.78125 -3.707031 3.398438 -3.859375 2.921875 -3.859375 C 2.597656 -3.859375 2.296875 -3.785156 2.015625 -3.640625 C 1.742188 -3.503906 1.523438 -3.316406 1.359375 -3.078125 C 1.203125 -2.847656 1.125 -2.613281 1.125 -2.375 C 1.125 -2.019531 1.203125 -1.679688 1.359375 -1.359375 C 1.515625 -1.046875 1.722656 -0.789062 1.984375 -0.59375 C 2.253906 -0.40625 2.546875 -0.3125 2.859375 -0.3125 Z M 2.859375 -0.3125 "/></g></g><g transform="translate(25.216764, 27.719873)"><g><path d="M 4.953125 -3.453125 C 4.953125 -2.242188 4.769531 -1.347656 4.40625 -0.765625 C 4.039062 -0.191406 3.484375 0.09375 2.734375 0.09375 C 2.015625 0.09375 1.46875 -0.203125 1.09375 -0.796875 C 0.726562 -1.398438 0.546875 -2.285156 0.546875 -3.453125 C 0.546875 -4.648438 0.722656 -5.535156 1.078125 -6.109375 C 1.441406 -6.691406 1.992188 -6.984375 2.734375 -6.984375 C 3.460938 -6.984375 4.015625 -6.679688 4.390625 -6.078125 C 4.765625 -5.484375 4.953125 -4.609375 4.953125 -3.453125 Z M 1.046875 -3.453125 C 1.046875 -2.390625 1.1875 -1.601562 1.46875 -1.09375 C 1.75 -0.582031 2.171875 -0.328125 2.734375 -0.328125 C 3.328125 -0.328125 3.757812 -0.585938 4.03125 -1.109375 C 4.300781 -1.640625 4.4375 -2.421875 4.4375 -3.453125 C 4.4375 -4.472656 4.300781 -5.242188 4.03125 -5.765625 C 3.757812 -6.296875 3.328125 -6.5625 2.734375 -6.5625 C 2.140625 -6.5625 1.707031 -6.296875 1.4375 -5.765625 C 1.175781 -5.242188 1.046875 -4.472656 1.046875 -3.453125 Z M 1.046875 -3.453125 "/></g></g></g><g fill="#000000" fill-opacity="1"><g transform="translate(30.709207, 27.719873)"><g/></g></g><g fill="#000000" fill-opacity="1"><g transform="translate(19.724321, 108.908429)"><g><path d="M 5.359375 -1.75 L 4.171875 -1.75 L 4.171875 0 L 3.734375 0 L 3.734375 -1.75 L 0.203125 -1.75 L 0.203125 -2.0625 L 3.609375 -6.90625 L 4.171875 -6.90625 L 4.171875 -2.15625 L 5.359375 -2.15625 Z M 3.734375 -2.15625 L 3.734375 -4.125 C 3.734375 -5.070312 3.753906 -5.863281 3.796875 -6.5 L 3.765625 -6.5 C 3.703125 -6.382812 3.507812 -6.09375 3.1875 -5.625 L 0.765625 -2.15625 Z M 3.734375 -2.15625 "/></g></g><g transform="translate(25.216764, 108.908429)"><g><path d="M 4.953125 -3.453125 C 4.953125 -2.242188 4.769531 -1.347656 4.40625 -0.765625 C 4.039062 -0.191406 3.484375 0.09375 2.734375 0.09375 C 2.015625 0.09375 1.46875 -0.203125 1.09375 -0.796875 C 0.726562 -1.398438 0.546875 -2.285156 0.546875 -3.453125 C 0.546875 -4.648438 0.722656 -5.535156 1.078125 -6.109375 C 1.441406 -6.691406 1.992188 -6.984375 2.734375 -6.984375 C 3.460938 -6.984375 4.015625 -6.679688 4.390625 -6.078125 C 4.765625 -5.484375 4.953125 -4.609375 4.953125 -3.453125 Z M 1.046875 -3.453125 C 1.046875 -2.390625 1.1875 -1.601562 1.46875 -1.09375 C 1.75 -0.582031 2.171875 -0.328125 2.734375 -0.328125 C 3.328125 -0.328125 3.757812 -0.585938 4.03125 -1.109375 C 4.300781 -1.640625 4.4375 -2.421875 4.4375 -3.453125 C 4.4375 -4.472656 4.300781 -5.242188 4.03125 -5.765625 C 3.757812 -6.296875 3.328125 -6.5625 2.734375 -6.5625 C 2.140625 -6.5625 1.707031 -6.296875 1.4375 -5.765625 C 1.175781 -5.242188 1.046875 -4.472656 1.046875 -3.453125 Z M 1.046875 -3.453125 "/></g></g></g><g fill="#000000" fill-opacity="1"><g transform="translate(30.709207, 108.908429)"><g/></g></g><g fill="#000000" fill-opacity="1"><g transform="translate(19.724321, 190.09699)"><g><path d="M 4.828125 0 L 0.53125 0 L 0.53125 -0.40625 L 2.359375 -2.328125 C 2.867188 -2.859375 3.226562 -3.265625 3.4375 -3.546875 C 3.644531 -3.828125 3.796875 -4.09375 3.890625 -4.34375 C 3.992188 -4.601562 4.046875 -4.875 4.046875 -5.15625 C 4.046875 -5.570312 3.910156 -5.90625 3.640625 -6.15625 C 3.367188 -6.414062 3.019531 -6.546875 2.59375 -6.546875 C 2.019531 -6.546875 1.46875 -6.335938 0.9375 -5.921875 L 0.6875 -6.25 C 1.257812 -6.726562 1.894531 -6.96875 2.59375 -6.96875 C 3.195312 -6.96875 3.671875 -6.804688 4.015625 -6.484375 C 4.359375 -6.171875 4.53125 -5.734375 4.53125 -5.171875 C 4.53125 -4.710938 4.410156 -4.269531 4.171875 -3.84375 C 3.941406 -3.425781 3.523438 -2.90625 2.921875 -2.28125 L 1.15625 -0.46875 L 1.15625 -0.453125 L 4.828125 -0.453125 Z M 4.828125 0 "/></g></g><g transform="translate(25.216764, 190.09699)"><g><path d="M 4.953125 -3.453125 C 4.953125 -2.242188 4.769531 -1.347656 4.40625 -0.765625 C 4.039062 -0.191406 3.484375 0.09375 2.734375 0.09375 C 2.015625 0.09375 1.46875 -0.203125 1.09375 -0.796875 C 0.726562 -1.398438 0.546875 -2.285156 0.546875 -3.453125 C 0.546875 -4.648438 0.722656 -5.535156 1.078125 -6.109375 C 1.441406 -6.691406 1.992188 -6.984375 2.734375 -6.984375 C 3.460938 -6.984375 4.015625 -6.679688 4.390625 -6.078125 C 4.765625 -5.484375 4.953125 -4.609375 4.953125 -3.453125 Z M 1.046875 -3.453125 C 1.046875 -2.390625 1.1875 -1.601562 1.46875 -1.09375 C 1.75 -0.582031 2.171875 -0.328125 2.734375 -0.328125 C 3.328125 -0.328125 3.757812 -0.585938 4.03125 -1.109375 C 4.300781 -1.640625 4.4375 -2.421875 4.4375 -3.453125 C 4.4375 -4.472656 4.300781 -5.242188 4.03125 -5.765625 C 3.757812 -6.296875 3.328125 -6.5625 2.734375 -6.5625 C 2.140625 -6.5625 1.707031 -6.296875 1.4375 -5.765625 C 1.175781 -5.242188 1.046875 -4.472656 1.046875 -3.453125 Z M 1.046875 -3.453125 "/></g></g></g><g fill="#000000" fill-opacity="1"><g transform="translate(30.709207, 190.09699)"><g/></g></g><g fill="#000000" fill-opacity="1"><g transform="translate(25.215827, 271.285539)"><g><path d="M 4.953125 -3.453125 C 4.953125 -2.242188 4.769531 -1.347656 4.40625 -0.765625 C 4.039062 -0.191406 3.484375 0.09375 2.734375 0.09375 C 2.015625 0.09375 1.46875 -0.203125 1.09375 -0.796875 C 0.726562 -1.398438 0.546875 -2.285156 0.546875 -3.453125 C 0.546875 -4.648438 0.722656 -5.535156 1.078125 -6.109375 C 1.441406 -6.691406 1.992188 -6.984375 2.734375 -6.984375 C 3.460938 -6.984375 4.015625 -6.679688 4.390625 -6.078125 C 4.765625 -5.484375 4.953125 -4.609375 4.953125 -3.453125 Z M 1.046875 -3.453125 C 1.046875 -2.390625 1.1875 -1.601562 1.46875 -1.09375 C 1.75 -0.582031 2.171875 -0.328125 2.734375 -0.328125 C 3.328125 -0.328125 3.757812 -0.585938 4.03125 -1.109375 C 4.300781 -1.640625 4.4375 -2.421875 4.4375 -3.453125 C 4.4375 -4.472656 4.300781 -5.242188 4.03125 -5.765625 C 3.757812 -6.296875 3.328125 -6.5625 2.734375 -6.5625 C 2.140625 -6.5625 1.707031 -6.296875 1.4375 -5.765625 C 1.175781 -5.242188 1.046875 -4.472656 1.046875 -3.453125 Z M 1.046875 -3.453125 "/></g></g></g><g fill="#000000" fill-opacity="1"><g transform="translate(30.708271, 271.285539)"><g/></g></g><path fill="#2d8bba" d="M 38.023438 267.675781 L 38.023438 231.679688 C 38.011719 231.363281 38.035156 231.046875 38.085938 230.734375 C 38.140625 230.417969 38.222656 230.113281 38.339844 229.816406 C 38.453125 229.519531 38.597656 229.238281 38.769531 228.96875 C 38.941406 228.703125 39.136719 228.453125 39.359375 228.226562 C 39.578125 227.996094 39.820312 227.792969 40.085938 227.613281 C 40.347656 227.433594 40.625 227.28125 40.917969 227.15625 C 41.210938 227.03125 41.511719 226.9375 41.824219 226.875 C 42.136719 226.8125 42.453125 226.78125 42.769531 226.78125 L 92.632812 226.78125 C 92.949219 226.78125 93.265625 226.8125 93.578125 226.875 C 93.886719 226.9375 94.191406 227.03125 94.484375 227.15625 C 94.777344 227.28125 95.054688 227.433594 95.316406 227.613281 C 95.578125 227.792969 95.820312 227.996094 96.042969 228.226562 C 96.265625 228.453125 96.460938 228.703125 96.632812 228.96875 C 96.804688 229.238281 96.949219 229.519531 97.0625 229.816406 C 97.175781 230.113281 97.261719 230.417969 97.316406 230.734375 C 97.367188 231.046875 97.390625 231.363281 97.378906 231.679688 L 97.378906 267.675781 Z M 38.023438 267.675781 " fill-opacity="1" fill-rule="nonzero"/><path fill="#2d8bba" d="M 105.292969 267.675781 L 105.292969 191.085938 C 105.292969 190.773438 105.324219 190.464844 105.386719 190.160156 C 105.445312 189.855469 105.535156 189.558594 105.65625 189.269531 C 105.773438 188.980469 105.921875 188.707031 106.09375 188.449219 C 106.269531 188.1875 106.464844 187.949219 106.683594 187.730469 C 106.90625 187.507812 107.144531 187.3125 107.40625 187.136719 C 107.664062 186.964844 107.9375 186.820312 108.226562 186.699219 C 108.511719 186.578125 108.808594 186.488281 109.117188 186.429688 C 109.421875 186.367188 109.730469 186.335938 110.042969 186.335938 L 159.902344 186.335938 C 160.214844 186.335938 160.523438 186.367188 160.828125 186.429688 C 161.136719 186.488281 161.433594 186.578125 161.71875 186.699219 C 162.007812 186.820312 162.28125 186.964844 162.542969 187.136719 C 162.800781 187.3125 163.039062 187.507812 163.261719 187.730469 C 163.480469 187.949219 163.679688 188.1875 163.851562 188.449219 C 164.023438 188.707031 164.171875 188.980469 164.289062 189.269531 C 164.410156 189.558594 164.5 189.855469 164.5625 190.160156 C 164.621094 190.464844 164.652344 190.773438 164.652344 191.085938 L 164.652344 267.675781 Z M 105.292969 267.675781 " fill-opacity="1" fill-rule="nonzero"/><path fill="#2d8bba" d="M 172.566406 267.675781 L 172.566406 150.492188 C 172.566406 150.179688 172.597656 149.871094 172.65625 149.566406 C 172.71875 149.261719 172.808594 148.964844 172.925781 148.675781 C 173.046875 148.386719 173.191406 148.113281 173.367188 147.855469 C 173.539062 147.59375 173.738281 147.355469 173.957031 147.136719 C 174.175781 146.914062 174.417969 146.71875 174.675781 146.542969 C 174.9375 146.371094 175.210938 146.226562 175.496094 146.105469 C 175.785156 145.984375 176.082031 145.894531 176.386719 145.835938 C 176.695312 145.773438 177.003906 145.742188 177.316406 145.742188 L 227.175781 145.742188 C 227.488281 145.742188 227.796875 145.773438 228.101562 145.835938 C 228.40625 145.894531 228.703125 145.984375 228.992188 146.105469 C 229.28125 146.226562 229.554688 146.371094 229.8125 146.542969 C 230.074219 146.71875 230.3125 146.914062 230.535156 147.136719 C 230.753906 147.355469 230.949219 147.59375 231.125 147.855469 C 231.296875 148.113281 231.441406 148.386719 231.5625 148.675781 C 231.683594 148.964844 231.773438 149.261719 231.832031 149.566406 C 231.894531 149.871094 231.925781 150.179688 231.925781 150.492188 L 231.925781 267.675781 Z M 172.566406 267.675781 " fill-opacity="1" fill-rule="nonzero"/><path fill="#2d8bba" d="M 239.839844 267.675781 L 239.839844 109.898438 C 239.839844 109.585938 239.867188 109.277344 239.929688 108.972656 C 239.992188 108.667969 240.082031 108.371094 240.199219 108.082031 C 240.320312 107.792969 240.464844 107.519531 240.640625 107.261719 C 240.8125 107 241.007812 106.761719 241.230469 106.542969 C 241.449219 106.320312 241.691406 106.125 241.949219 105.949219 C 242.207031 105.777344 242.480469 105.632812 242.769531 105.511719 C 243.058594 105.390625 243.355469 105.300781 243.660156 105.242188 C 243.964844 105.179688 244.273438 105.148438 244.585938 105.148438 L 294.449219 105.148438 C 294.757812 105.148438 295.066406 105.179688 295.375 105.242188 C 295.679688 105.300781 295.976562 105.390625 296.265625 105.511719 C 296.554688 105.632812 296.828125 105.777344 297.085938 105.949219 C 297.34375 106.125 297.585938 106.320312 297.804688 106.542969 C 298.027344 106.761719 298.222656 107 298.394531 107.261719 C 298.570312 107.519531 298.714844 107.792969 298.835938 108.082031 C 298.953125 108.371094 299.042969 108.667969 299.105469 108.972656 C 299.164062 109.277344 299.195312 109.585938 299.195312 109.898438 L 299.195312 267.675781 Z M 239.839844 267.675781 " fill-opacity="1" fill-rule="nonzero"/><path fill="#2d8bba" d="M 307.109375 267.675781 L 307.109375 69.304688 C 307.109375 68.992188 307.140625 68.683594 307.203125 68.378906 C 307.261719 68.074219 307.351562 67.777344 307.472656 67.488281 C 307.589844 67.199219 307.738281 66.925781 307.910156 66.667969 C 308.085938 66.40625 308.28125 66.167969 308.5 65.945312 C 308.722656 65.726562 308.960938 65.53125 309.222656 65.355469 C 309.480469 65.183594 309.753906 65.035156 310.042969 64.917969 C 310.332031 64.796875 310.628906 64.707031 310.933594 64.648438 C 311.238281 64.585938 311.546875 64.554688 311.859375 64.554688 L 361.71875 64.554688 C 362.03125 64.554688 362.339844 64.585938 362.644531 64.648438 C 362.953125 64.707031 363.25 64.796875 363.539062 64.917969 C 363.824219 65.035156 364.097656 65.183594 364.359375 65.355469 C 364.617188 65.53125 364.855469 65.726562 365.078125 65.945312 C 365.296875 66.167969 365.496094 66.40625 365.667969 66.667969 C 365.839844 66.925781 365.988281 67.199219 366.105469 67.488281 C 366.226562 67.777344 366.316406 68.074219 366.378906 68.378906 C 366.4375 68.683594 366.46875 68.992188 366.46875 69.304688 L 366.46875 267.675781 Z M 307.109375 267.675781 " fill-opacity="1" fill-rule="nonzero"/><path fill="#2d8bba" d="M 374.382812 267.675781 L 374.382812 53.066406 C 374.382812 52.757812 374.414062 52.445312 374.472656 52.140625 C 374.535156 51.835938 374.625 51.539062 374.746094 51.25 C 374.863281 50.960938 375.011719 50.6875 375.183594 50.429688 C 375.355469 50.171875 375.554688 49.929688 375.773438 49.710938 C 375.996094 49.488281 376.234375 49.292969 376.492188 49.117188 C 376.753906 48.945312 377.027344 48.800781 377.3125 48.679688 C 377.601562 48.5625 377.898438 48.472656 378.207031 48.410156 C 378.511719 48.347656 378.820312 48.320312 379.132812 48.320312 L 428.992188 48.320312 C 429.304688 48.320312 429.613281 48.347656 429.917969 48.410156 C 430.222656 48.472656 430.519531 48.5625 430.808594 48.679688 C 431.097656 48.800781 431.371094 48.945312 431.628906 49.117188 C 431.890625 49.292969 432.128906 49.488281 432.351562 49.710938 C 432.570312 49.929688 432.765625 50.171875 432.941406 50.429688 C 433.113281 50.6875 433.261719 50.960938 433.378906 51.25 C 433.5 51.539062 433.589844 51.835938 433.648438 52.140625 C 433.710938 52.445312 433.742188 52.757812 433.742188 53.066406 L 433.742188 267.675781 Z M 374.382812 267.675781 " fill-opacity="1" fill-rule="nonzero"/><path fill="#41b8d5" d="M 38.023438 247.230469 L 97.378906 247.230469 L 97.378906 267.675781 L 38.023438 267.675781 Z M 38.023438 247.230469 " fill-opacity="1" fill-rule="nonzero"/><path fill="#41b8d5" d="M 105.292969 202.605469 L 164.652344 202.605469 L 164.652344 267.675781 L 105.292969 267.675781 Z M 105.292969 202.605469 " fill-opacity="1" fill-rule="nonzero"/><path fill="#41b8d5" d="M 172.566406 166.066406 L 231.925781 166.066406 L 231.925781 267.675781 L 172.566406 267.675781 Z M 172.566406 166.066406 " fill-opacity="1" fill-rule="nonzero"/><path fill="#41b8d5" d="M 239.839844 137.65625 L 299.195312 137.65625 L 299.195312 267.675781 L 239.839844 267.675781 Z M 239.839844 137.65625 " fill-opacity="1" fill-rule="nonzero"/><path fill="#41b8d5" d="M 307.109375 97.054688 L 366.46875 97.054688 L 366.46875 267.675781 L 307.109375 267.675781 Z M 307.109375 97.054688 " fill-opacity="1" fill-rule="nonzero"/><path fill="#41b8d5" d="M 374.382812 80.816406 L 433.742188 80.816406 L 433.742188 267.675781 L 374.382812 267.675781 Z M 374.382812 80.816406 " fill-opacity="1" fill-rule="nonzero"/><path fill="#6ce5e8" d="M 105.292969 235.140625 L 164.652344 235.140625 L 164.652344 267.675781 L 105.292969 267.675781 Z M 105.292969 235.140625 " fill-opacity="1" fill-rule="nonzero"/><path fill="#6ce5e8" d="M 172.566406 206.710938 L 231.925781 206.710938 L 231.925781 267.675781 L 172.566406 267.675781 Z M 172.566406 206.710938 " fill-opacity="1" fill-rule="nonzero"/><path fill="#6ce5e8" d="M 239.839844 194.539062 L 299.195312 194.539062 L 299.195312 267.675781 L 239.839844 267.675781 Z M 239.839844 194.539062 " fill-opacity="1" fill-rule="nonzero"/><path fill="#6ce5e8" d="M 307.109375 178.304688 L 366.46875 178.304688 L 366.46875 267.675781 L 307.109375 267.675781 Z M 307.109375 178.304688 " fill-opacity="1" fill-rule="nonzero"/><path fill="#6ce5e8" d="M 374.382812 166.121094 L 433.742188 166.121094 L 433.742188 267.675781 L 374.382812 267.675781 Z M 374.382812 166.121094 " fill-opacity="1" fill-rule="nonzero"/></svg>