<svg xmlns="http://www.w3.org/2000/svg" xmlns:xlink="http://www.w3.org/1999/xlink" width="600" zoomAndPan="magnify" viewBox="0 0 450 299.999988" height="400" preserveAspectRatio="xMidYMid meet" version="1.0"><defs><clipPath id="id1"><path d="M 406.277344 28.011719 L 447 28.011719 L 447 86 L 406.277344 86 Z M 406.277344 28.011719 " clip-rule="nonzero"/></clipPath><clipPath id="id2"><path d="M 0 118.621094 L 45 118.621094 L 45 191 L 0 191 Z M 0 118.621094 " clip-rule="nonzero"/></clipPath><clipPath id="id3"><path d="M 0 0 L 102.554688 0 L 102.554688 75 L 0 75 Z M 0 0 " clip-rule="nonzero"/></clipPath><clipPath id="id4"><path d="M 286 89 L 425.21875 89 L 425.21875 249.011719 L 286 249.011719 Z M 286 89 " clip-rule="nonzero"/></clipPath><clipPath id="id5"><path d="M 345 149 L 450 149 L 450 295 L 345 295 Z M 345 149 " clip-rule="nonzero"/></clipPath><clipPath id="id6"><path d="M 356.753906 299.988281 L 330.734375 171.34375 L 452.03125 146.8125 L 478.046875 275.457031 Z M 356.753906 299.988281 " clip-rule="nonzero"/></clipPath><clipPath id="id7"><path d="M 356.753906 299.988281 L 330.734375 171.34375 L 452.03125 146.8125 L 478.046875 275.457031 Z M 356.753906 299.988281 " clip-rule="nonzero"/></clipPath><clipPath id="id8"><path d="M 0 0 L 86 0 L 86 56 L 0 56 Z M 0 0 " clip-rule="nonzero"/></clipPath><clipPath id="id9"><path d="M -13.777344 60.753906 L -37.863281 -58.335938 L 73.875 -80.933594 L 97.960938 38.15625 Z M -13.777344 60.753906 " clip-rule="nonzero"/></clipPath><clipPath id="id10"><path d="M -13.777344 60.753906 L -37.863281 -58.335938 L 73.875 -80.933594 L 97.960938 38.15625 Z M -13.777344 60.753906 " clip-rule="nonzero"/></clipPath><clipPath id="id11"><path d="M 168 41 L 301 41 L 301 131 L 168 131 Z M 168 41 " clip-rule="nonzero"/></clipPath><clipPath id="id12"><path d="M 277.058594 154.859375 L 165.640625 67.226562 L 209.691406 11.222656 L 321.105469 98.855469 Z M 277.058594 154.859375 " clip-rule="nonzero"/></clipPath><clipPath id="id13"><path d="M 277.058594 154.859375 L 165.640625 67.226562 L 209.691406 11.222656 L 321.105469 98.855469 Z M 277.058594 154.859375 " clip-rule="nonzero"/></clipPath><clipPath id="id14"><path d="M 277.058594 154.859375 L 165.640625 67.226562 L 209.691406 11.222656 L 321.105469 98.855469 Z M 277.058594 154.859375 " clip-rule="nonzero"/></clipPath></defs><rect x="-45" width="540" fill="#ffffff" y="-29.999999" height="359.999986" fill-opacity="1"/><rect x="-45" width="540" fill="#e8e3f4" y="-29.999999" height="359.999986" fill-opacity="1"/><rect x="-45" width="540" fill="#ffffff" y="-29.999999" height="359.999986" fill-opacity="1"/><rect x="-45" width="540" fill="#e8e3f4" y="-29.999999" height="359.999986" fill-opacity="1"/><g clip-path="url(#id1)"><path fill="#98b0d4" d="M 442.191406 64.542969 C 441.3125 62.882812 440.46875 61.3125 439.992188 60.425781 C 441.769531 58.9375 442.847656 56.214844 442.902344 52.445312 C 442.949219 49.417969 442.335938 46.769531 442.335938 46.769531 C 442.335938 46.769531 442.109375 46.71875 441.832031 46.6875 C 441.625 45.96875 441.296875 44.980469 440.863281 43.753906 C 440.957031 43.714844 441.015625 43.710938 441.015625 43.710938 L 440.019531 40.964844 C 440.019531 40.964844 439.921875 40.902344 439.777344 40.851562 C 436.5 32.648438 433.128906 29.945312 432.320312 29.042969 C 431.46875 28.09375 430.675781 28.191406 429.726562 28.09375 C 429.027344 28.023438 427.019531 28.410156 426.003906 28.617188 C 425.816406 28.492188 425.660156 28.449219 425.660156 28.449219 C 425.660156 28.449219 424.148438 28.714844 422.804688 29.539062 C 422.054688 30 422.375 31.367188 422.574219 31.730469 C 422.769531 32.09375 423.089844 32.523438 423.785156 32.359375 C 424.480469 32.195312 426.308594 31.050781 426.609375 30.652344 C 426.667969 30.34375 426.679688 30.078125 426.660156 29.847656 C 427.847656 29.597656 430.367188 29.109375 430.894531 29.335938 C 431.476562 29.585938 434.886719 31.953125 438.558594 41.5625 C 438.515625 41.71875 438.488281 41.90625 438.476562 42.128906 L 438.410156 42.15625 C 438.410156 42.15625 438.617188 42.667969 438.824219 43.46875 C 439.789062 47.199219 439.230469 51.148438 434.8125 52.621094 C 430.914062 53.917969 426.402344 51.738281 423.320312 49.488281 C 422.59375 48.960938 422.167969 48.585938 422.167969 48.585938 L 422.128906 48.628906 L 422.039062 48.523438 C 422.039062 48.523438 421.832031 48.339844 421.570312 48.277344 C 416.003906 41.660156 414.0625 37.4375 414.898438 35.796875 C 415.8125 34 417.617188 33.519531 417.921875 33.425781 C 418.125 33.773438 418.394531 34.09375 418.667969 34.054688 C 420.542969 33.789062 421.722656 33.140625 421.722656 33.140625 C 421.722656 33.140625 422.023438 33.175781 421.824219 31.765625 C 421.625 30.355469 420.578125 30.289062 420.578125 30.289062 C 419.398438 30.617188 418.273438 31.234375 417.789062 31.53125 C 417.492188 31.714844 417.445312 31.996094 417.488281 32.273438 C 417.449219 32.265625 417.421875 32.261719 417.421875 32.261719 C 417.644531 32.261719 414.699219 33.175781 413.71875 35.796875 C 412.925781 37.914062 416.226562 44.925781 425.15625 54.429688 C 425.039062 54.671875 424.96875 54.875 424.96875 54.875 C 426.316406 56.4375 427.9375 57.894531 429.601562 59.105469 C 432.757812 61.398438 435.636719 62.136719 437.90625 61.515625 C 439.089844 63.714844 442.625 70.308594 443.132812 71.597656 C 443.710938 73.066406 444.714844 76.550781 442.4375 80.648438 C 441.320312 82.652344 437.570312 83.941406 434.59375 82.601562 C 432.878906 81.828125 430.953125 79.964844 429.507812 78.746094 C 419.554688 70.375 417.050781 79.527344 412.605469 76.875 C 410.035156 75.34375 408.910156 71.789062 408.910156 69.296875 C 408.910156 67.605469 410.511719 62.707031 410.546875 62.597656 C 410.546875 62.597656 410.390625 62.449219 410.183594 62.285156 L 410.28125 62.015625 C 410.472656 62.039062 410.667969 62.054688 410.867188 62.054688 C 413.402344 62.054688 415.457031 60 415.457031 57.46875 C 415.457031 54.933594 413.402344 52.882812 410.867188 52.882812 C 408.332031 52.882812 406.273438 54.933594 406.273438 57.46875 C 406.273438 59.332031 407.386719 60.929688 408.984375 61.648438 L 408.917969 61.832031 C 408.589844 61.828125 408.308594 61.863281 408.308594 61.863281 C 407.691406 63.734375 406.554688 67.449219 406.554688 69.296875 C 406.554688 72.183594 407.8125 76.757812 411.398438 78.894531 C 414.671875 80.847656 417.371094 78.6875 420.347656 77.734375 C 425.371094 76.125 429.359375 82.820312 433.625 84.742188 C 437.523438 86.5 442.6875 85.042969 444.496094 81.789062 C 448.273438 74.988281 445.253906 70.324219 442.191406 64.542969 Z M 442.191406 64.542969 " fill-opacity="1" fill-rule="nonzero"/></g><g clip-path="url(#id2)"><path fill="#98b0d4" d="M 39.046875 164.046875 C 37.964844 161.984375 36.921875 160.03125 36.335938 158.929688 C 38.523438 157.078125 39.851562 153.695312 39.921875 149.003906 C 39.980469 145.238281 39.222656 141.949219 39.222656 141.949219 C 39.222656 141.949219 38.941406 141.882812 38.601562 141.84375 C 38.34375 140.953125 37.945312 139.722656 37.40625 138.199219 C 37.523438 138.152344 37.597656 138.144531 37.597656 138.144531 L 36.367188 134.730469 C 36.367188 134.730469 36.246094 134.652344 36.070312 134.589844 C 32.03125 124.390625 27.878906 121.027344 26.878906 119.90625 C 25.832031 118.726562 24.859375 118.847656 23.6875 118.726562 C 22.828125 118.636719 20.351562 119.117188 19.097656 119.378906 C 18.867188 119.21875 18.675781 119.167969 18.675781 119.167969 C 18.675781 119.167969 16.816406 119.496094 15.15625 120.523438 C 14.234375 121.097656 14.628906 122.796875 14.871094 123.25 C 15.117188 123.703125 15.507812 124.234375 16.367188 124.03125 C 17.222656 123.824219 19.476562 122.402344 19.84375 121.90625 C 19.917969 121.519531 19.933594 121.191406 19.910156 120.90625 C 21.371094 120.597656 24.476562 119.992188 25.125 120.269531 C 25.839844 120.578125 30.042969 123.523438 34.566406 135.472656 C 34.519531 135.667969 34.484375 135.902344 34.46875 136.179688 L 34.382812 136.210938 C 34.382812 136.210938 34.644531 136.847656 34.898438 137.847656 C 36.082031 142.484375 35.398438 147.390625 29.953125 149.222656 C 25.148438 150.835938 19.59375 148.125 15.792969 145.332031 C 14.898438 144.671875 14.375 144.207031 14.375 144.207031 L 14.328125 144.257812 L 14.214844 144.128906 C 14.214844 144.128906 13.960938 143.898438 13.636719 143.820312 C 6.777344 135.59375 4.386719 130.347656 5.417969 128.304688 C 6.542969 126.070312 8.765625 125.472656 9.144531 125.355469 C 9.390625 125.789062 9.726562 126.1875 10.0625 126.136719 C 12.371094 125.804688 13.828125 125.003906 13.828125 125.003906 C 13.828125 125.003906 14.195312 125.042969 13.949219 123.289062 C 13.703125 121.535156 12.414062 121.453125 12.414062 121.453125 C 10.960938 121.867188 9.574219 122.632812 8.976562 123.003906 C 8.613281 123.226562 8.558594 123.578125 8.605469 123.921875 C 8.558594 123.914062 8.527344 123.90625 8.527344 123.90625 C 8.796875 123.90625 5.171875 125.042969 3.964844 128.304688 C 2.984375 130.9375 7.054688 139.652344 18.054688 151.46875 C 17.910156 151.777344 17.828125 152.027344 17.828125 152.027344 C 19.484375 153.972656 21.484375 155.78125 23.53125 157.285156 C 27.421875 160.136719 30.96875 161.054688 33.765625 160.285156 C 35.226562 163.019531 39.582031 171.214844 40.203125 172.816406 C 40.914062 174.648438 42.152344 178.980469 39.347656 184.070312 C 37.972656 186.566406 33.351562 188.171875 29.683594 186.5 C 27.570312 185.539062 25.199219 183.222656 23.417969 181.710938 C 11.152344 171.300781 8.066406 182.679688 2.589844 179.382812 C -0.574219 177.476562 -1.960938 173.054688 -1.960938 169.960938 C -1.960938 167.855469 0.0117188 161.761719 0.0546875 161.628906 C 0.0546875 161.628906 -0.136719 161.445312 -0.394531 161.242188 L -0.273438 160.902344 C -0.0351562 160.933594 0.203125 160.953125 0.449219 160.953125 C 3.574219 160.953125 6.105469 158.402344 6.105469 155.25 C 6.105469 152.101562 3.574219 149.546875 0.449219 149.546875 C -2.675781 149.546875 -5.210938 152.101562 -5.210938 155.25 C -5.210938 157.566406 -3.839844 159.554688 -1.871094 160.449219 L -1.953125 160.679688 C -2.355469 160.671875 -2.699219 160.714844 -2.699219 160.714844 C -3.464844 163.042969 -4.863281 167.660156 -4.863281 169.960938 C -4.863281 173.550781 -3.316406 179.234375 1.105469 181.894531 C 5.140625 184.320312 8.464844 181.632812 12.128906 180.449219 C 18.320312 178.449219 23.234375 186.777344 28.488281 189.167969 C 33.292969 191.351562 39.65625 189.535156 41.882812 185.492188 C 46.542969 177.035156 42.816406 171.234375 39.046875 164.046875 Z M 39.046875 164.046875 " fill-opacity="1" fill-rule="nonzero"/></g><path fill="#98b0d4" d="M 306.589844 200.871094 C 310.847656 200.820312 315.105469 201.132812 319.308594 201.808594 C 325.800781 202.796875 332.390625 202.796875 338.882812 201.859375 C 344.851562 200.925781 350.511719 199 356.066406 196.710938 C 360.113281 195.050781 362.761719 191.980469 364.527344 188.1875 C 366.761719 183.351562 368.785156 178.460938 370.757812 173.523438 C 372.574219 169.050781 373.976562 164.425781 376.417969 160.265625 C 379.738281 154.390625 384.515625 149.449219 390.277344 145.914062 C 394.535156 143.367188 398.6875 140.714844 402.945312 138.113281 C 406.007812 136.242188 409.433594 135.203125 412.914062 134.476562 C 421.425781 132.707031 429.835938 132.707031 438.300781 135.097656 C 448.269531 137.90625 457.976562 141.546875 467.371094 146.019531 C 474.328125 149.34375 480.195312 154.234375 485.648438 159.640625 C 488.65625 162.550781 491.304688 165.828125 493.484375 169.414062 C 495.925781 173.472656 497.429688 178.046875 497.742188 182.777344 C 498.105469 187.875 498.261719 192.917969 496.757812 197.855469 C 493.847656 207.476562 488.398438 215.222656 479.3125 219.796875 C 475.886719 221.566406 472.097656 222.761719 468.359375 223.855469 C 460.105469 226.296875 452.316406 230.042969 445.257812 234.980469 C 439.910156 238.671875 435.496094 243.40625 431.1875 248.292969 C 426.515625 253.648438 422 259.105469 417.066406 264.203125 C 409.953125 271.535156 402.167969 278.136719 393.183594 283.078125 C 388.046875 285.882812 382.75 288.222656 376.988281 289.210938 C 366.96875 290.929688 357.675781 289.210938 349.578125 282.765625 C 345.007812 279.175781 340.648438 275.382812 336.183594 271.742188 C 332.183594 268.414062 328.1875 265.136719 323.460938 262.851562 C 318.167969 260.148438 312.25 258.898438 306.332031 259.160156 C 301.867188 259.417969 297.402344 259.886719 292.988281 260.25 C 288.054688 260.613281 283.125 260.613281 278.246094 259.523438 C 269.574219 257.652344 264.382812 252.140625 261.941406 243.820312 C 259.761719 236.175781 260.851562 228.742188 263.707031 221.515625 C 265.109375 217.980469 267.082031 214.703125 269.523438 211.84375 C 272.898438 207.945312 277.257812 205.707031 282.085938 204.148438 C 287.433594 202.433594 292.9375 201.757812 298.492188 201.390625 Z M 306.589844 200.871094 " fill-opacity="1" fill-rule="nonzero"/><g clip-path="url(#id3)"><path fill="#98b0d4" d="M -39.695312 8.824219 C -36.535156 8.785156 -33.375 9.015625 -30.253906 9.515625 C -25.4375 10.246094 -20.546875 10.246094 -15.730469 9.554688 C -11.300781 8.863281 -7.097656 7.441406 -2.976562 5.75 C 0.0273438 4.519531 1.992188 2.25 3.304688 -0.554688 C 4.960938 -4.128906 6.460938 -7.746094 7.925781 -11.394531 C 9.273438 -14.703125 10.316406 -18.125 12.125 -21.199219 C 14.59375 -25.542969 18.136719 -29.195312 22.414062 -31.808594 C 25.574219 -33.691406 28.65625 -35.652344 31.816406 -37.574219 C 34.085938 -38.957031 36.628906 -39.726562 39.210938 -40.265625 C 45.53125 -41.574219 51.773438 -41.574219 58.050781 -39.804688 C 65.449219 -37.730469 72.65625 -35.039062 79.628906 -31.730469 C 84.792969 -29.273438 89.144531 -25.65625 93.191406 -21.660156 C 95.425781 -19.507812 97.390625 -17.085938 99.007812 -14.433594 C 100.820312 -11.433594 101.9375 -8.050781 102.167969 -4.554688 C 102.4375 -0.785156 102.554688 2.941406 101.433594 6.59375 C 99.277344 13.707031 95.230469 19.433594 88.488281 22.816406 C 85.945312 24.125 83.132812 25.007812 80.359375 25.816406 C 74.234375 27.621094 68.457031 30.390625 63.214844 34.042969 C 59.246094 36.769531 55.972656 40.269531 52.773438 43.882812 C 49.304688 47.84375 45.953125 51.878906 42.292969 55.644531 C 37.015625 61.066406 31.238281 65.949219 24.570312 69.601562 C 20.757812 71.675781 16.828125 73.40625 12.550781 74.136719 C 5.113281 75.40625 -1.78125 74.136719 -7.792969 69.371094 C -11.183594 66.71875 -14.417969 63.910156 -17.734375 61.21875 C -20.699219 58.757812 -23.667969 56.335938 -27.171875 54.644531 C -31.101562 52.648438 -35.496094 51.726562 -39.886719 51.917969 C -43.199219 52.109375 -46.515625 52.457031 -49.789062 52.722656 C -53.449219 52.992188 -57.109375 52.992188 -60.730469 52.1875 C -67.164062 50.800781 -71.019531 46.726562 -72.828125 40.578125 C -74.445312 34.925781 -73.636719 29.429688 -71.519531 24.085938 C -70.480469 21.472656 -69.015625 19.050781 -67.203125 16.933594 C -64.699219 14.050781 -61.464844 12.398438 -57.878906 11.246094 C -53.910156 9.976562 -49.828125 9.476562 -45.703125 9.207031 Z M -39.695312 8.824219 " fill-opacity="1" fill-rule="nonzero"/></g><g clip-path="url(#id4)"><path fill="#ffffff" d="M 425.058594 204.589844 C 425.058594 204.589844 423.769531 172.648438 414.945312 150.988281 C 407.445312 132.574219 401.273438 128.886719 399.589844 128.195312 L 399.625 127.859375 L 381.257812 121.585938 L 367.519531 113.089844 C 355.550781 118.738281 343.597656 119.535156 331.652344 115.421875 L 320.855469 123.269531 L 308.214844 128.238281 C 306.835938 128.777344 305.695312 129.6875 304.867188 130.8125 L 304.832031 130.613281 C 292.332031 147.253906 285.851562 167.632812 286.441406 188.421875 L 287.183594 214.503906 C 287.183594 214.503906 296.992188 234.753906 305.5 235.925781 L 303.300781 248.523438 L 325.558594 248.371094 L 325.554688 248.535156 L 364.003906 248.535156 L 408.207031 249.011719 L 401.84375 222.65625 C 419.671875 218.949219 425.058594 204.589844 425.058594 204.589844 Z M 334.886719 109.789062 C 333.722656 106.570312 332.96875 101.257812 333.128906 97.933594 C 333.128906 97.933594 341.03125 93.125 344.546875 93.773438 C 352.285156 95.203125 357.542969 97.015625 358.972656 97.316406 C 360.535156 94.640625 363.71875 91.109375 365.738281 89.808594 C 365.972656 89.660156 366.28125 89.726562 366.433594 89.957031 C 366.582031 90.191406 366.515625 90.5 366.28125 90.648438 C 364.546875 91.769531 361.078125 97.367188 359.292969 100.4375 C 359.671875 101.65625 361.117188 102.507812 360.503906 105.523438 C 362.886719 102.585938 363.3125 101.628906 363.332031 101.589844 C 363.429688 101.332031 363.71875 101.203125 363.980469 101.304688 C 364.238281 101.40625 364.363281 101.699219 364.261719 101.953125 C 364.179688 102.164062 362.488281 106.382812 358.976562 109.875 C 358.144531 111.648438 356.71875 113.34375 354.355469 114.671875 C 348.226562 118.105469 337.992188 118.351562 334.886719 109.789062 " fill-opacity="1" fill-rule="nonzero"/></g><path fill="#15253d" d="M 414.570312 199.347656 C 409.207031 193.792969 401.828125 192.054688 398.746094 191.550781 C 400.386719 190.207031 407.050781 185.113281 412.765625 186.234375 C 413.039062 186.289062 413.300781 186.113281 413.355469 185.839844 C 413.410156 185.570312 413.230469 185.304688 412.960938 185.253906 C 405.929688 183.875 398.035156 190.824219 397.699219 191.121094 C 397.621094 191.195312 397.566406 191.285156 397.542969 191.386719 C 397.425781 191.371094 397.34375 191.363281 397.3125 191.363281 L 394.054688 191.261719 C 394.105469 191.171875 394.132812 191.066406 394.121094 190.957031 C 394.097656 190.730469 391.808594 168.15625 392.648438 160.34375 C 392.679688 160.066406 392.480469 159.820312 392.207031 159.792969 C 391.933594 159.761719 391.683594 159.960938 391.652344 160.234375 C 390.796875 168.152344 393.027344 190.125 393.125 191.058594 C 393.128906 191.121094 393.148438 191.179688 393.175781 191.234375 L 369.742188 190.507812 C 369.453125 190.496094 369.230469 190.714844 369.222656 190.992188 C 369.214844 191.265625 369.433594 191.496094 369.707031 191.507812 L 397.257812 192.363281 C 397.355469 192.371094 407.324219 193.289062 413.851562 200.042969 C 413.949219 200.144531 414.082031 200.195312 414.210938 200.195312 C 414.335938 200.195312 414.460938 200.148438 414.558594 200.054688 C 414.757812 199.863281 414.765625 199.546875 414.570312 199.347656 Z M 378.101562 158.53125 C 378.101562 158.390625 377.992188 158.28125 377.851562 158.28125 L 373.117188 158.28125 C 372.976562 158.28125 372.867188 158.390625 372.867188 158.53125 C 372.867188 158.667969 372.976562 158.78125 373.117188 158.78125 L 377.851562 158.78125 C 377.992188 158.78125 378.101562 158.667969 378.101562 158.53125 Z M 366.433594 89.957031 C 366.28125 89.726562 366.003906 89.722656 365.738281 89.808594 C 363.566406 90.515625 360.121094 97.027344 358.5625 99.707031 C 357.132812 99.40625 352.707031 98.503906 344.96875 97.074219 C 341.449219 96.425781 333.128906 97.933594 333.128906 97.933594 C 332.96875 101.257812 333.722656 106.570312 334.886719 109.789062 C 337.992188 118.351562 348.226562 118.105469 354.355469 114.671875 C 356.71875 113.34375 358.144531 111.648438 358.976562 109.875 C 362.488281 106.382812 364.179688 102.164062 364.261719 101.953125 C 364.363281 101.699219 364.238281 101.40625 363.980469 101.304688 C 363.71875 101.203125 363.429688 101.332031 363.332031 101.589844 C 363.3125 101.628906 363.128906 102.746094 360.746094 105.683594 C 361.359375 102.667969 360.441406 101.671875 360.0625 100.453125 C 361.84375 97.382812 364.546875 91.769531 366.28125 90.648438 C 366.515625 90.5 366.582031 90.191406 366.433594 89.957031 Z M 345.566406 172.046875 C 345.449219 172.234375 345.207031 172.292969 345.019531 172.1875 L 344.699219 172.007812 L 340.796875 178.515625 L 343.628906 178.933594 L 351.246094 166.613281 C 351.480469 166.230469 351.375 165.730469 350.996094 165.480469 L 350.023438 164.832031 C 349.753906 164.652344 349.417969 164.652344 349.152344 164.800781 L 349.457031 165.003906 C 349.640625 165.125 349.695312 165.371094 349.578125 165.554688 M 381.230469 121.578125 L 368.4375 117.210938 L 367.679688 121.65625 L 363.226562 147.757812 C 361.925781 155.402344 361.347656 163.152344 361.507812 170.902344 L 363.101562 248.28125 L 338.839844 248.28125 L 340.464844 189.355469 L 333.746094 188.441406 C 333.472656 188.40625 333.28125 188.152344 333.320312 187.878906 C 333.355469 187.605469 333.609375 187.417969 333.882812 187.449219 L 340.492188 188.347656 L 340.617188 183.851562 L 334.894531 182.871094 C 334.621094 182.824219 334.4375 182.566406 334.484375 182.292969 C 334.53125 182.023438 334.789062 181.839844 335.066406 181.886719 L 340.648438 182.839844 L 340.925781 172.734375 C 341.167969 163.902344 340.316406 155.070312 338.394531 146.445312 L 334.300781 128.113281 L 332.222656 118.800781 L 326.863281 120.90625 C 326.390625 120.964844 325.886719 121.121094 325.34375 121.394531 C 325.082031 121.523438 324.832031 121.664062 324.578125 121.804688 L 321.273438 123.105469 C 320.242188 123.277344 319.1875 123.261719 318.140625 123.058594 C 314.863281 122.425781 311.917969 120.058594 310.925781 116.824219 C 309.863281 113.367188 311.011719 109.4375 313.488281 106.859375 C 315.160156 105.117188 318.445312 104.554688 319.003906 101.933594 C 319.488281 99.640625 316.996094 97.074219 316.574219 94.839844 C 315.796875 90.742188 319.476562 89.042969 321.761719 86.425781 C 323.773438 84.121094 323.464844 81.007812 323.789062 78.171875 C 324.003906 76.296875 324.492188 74.503906 325.300781 72.796875 C 328.757812 65.503906 336.886719 61.769531 344.476562 63.734375 C 349.53125 61.476562 355.246094 60.746094 360.515625 62.304688 C 364.75 63.558594 368.671875 66.171875 371.078125 69.910156 C 372.453125 72.042969 372.957031 74.386719 373.65625 76.785156 C 374.570312 79.9375 376.648438 81.011719 378.652344 83.296875 C 381.6875 86.765625 379.402344 90.230469 379.058594 94.148438 C 378.695312 98.289062 383.648438 100.960938 382.679688 105.164062 C 382.039062 107.941406 377.386719 110.257812 380.621094 113.140625 C 381.867188 114.25 382.875 114.691406 383.117188 116.535156 C 383.382812 118.515625 382.503906 120.167969 381.230469 121.578125 Z M 401.539062 222.082031 C 390.140625 223.175781 379.203125 221.089844 377.25 220.6875 L 375.113281 211.453125 C 375.050781 211.183594 374.777344 211.015625 374.511719 211.078125 C 374.242188 211.140625 374.074219 211.410156 374.136719 211.679688 L 376.34375 221.222656 C 376.386719 221.410156 376.535156 221.558594 376.722656 221.597656 C 376.820312 221.621094 384.875 223.394531 394.710938 223.394531 C 396.949219 223.394531 399.285156 223.304688 401.636719 223.078125 C 401.910156 223.050781 402.113281 222.808594 402.085938 222.53125 C 402.0625 222.257812 401.820312 222.050781 401.539062 222.082031 Z M 374.148438 159.855469 C 374.007812 159.855469 373.898438 159.96875 373.898438 160.105469 C 373.898438 160.242188 374.007812 160.355469 374.148438 160.355469 L 376.820312 160.355469 C 376.960938 160.355469 377.070312 160.242188 377.070312 160.105469 C 377.070312 159.96875 376.960938 159.855469 376.820312 159.855469 Z M 374.394531 146.007812 L 374.394531 148.621094 L 376.570312 148.621094 L 376.570312 146.007812 Z M 305.90625 198.898438 C 306.046875 198.710938 306.039062 198.449219 305.886719 198.269531 C 302.261719 194.023438 293.351562 192.300781 292.976562 192.226562 C 292.703125 192.179688 292.441406 192.355469 292.390625 192.625 C 292.339844 192.898438 292.515625 193.160156 292.789062 193.210938 C 292.867188 193.226562 299.320312 194.476562 303.324219 197.3125 C 301.355469 196.796875 298.46875 196.414062 295.835938 197.480469 C 293.597656 198.386719 291.949219 200.183594 290.945312 202.820312 C 290.84375 203.078125 290.976562 203.367188 291.234375 203.464844 C 291.292969 203.488281 291.351562 203.5 291.414062 203.5 C 291.613281 203.5 291.804688 203.378906 291.878906 203.179688 C 292.785156 200.816406 294.242188 199.210938 296.210938 198.410156 C 300.269531 196.765625 305.246094 199.023438 305.296875 199.046875 C 305.507812 199.144531 305.761719 199.085938 305.90625 198.898438 Z M 337.941406 202.527344 L 317.839844 209.5625 C 317.578125 209.65625 317.441406 209.941406 317.535156 210.203125 C 317.605469 210.40625 317.800781 210.535156 318.003906 210.535156 C 318.0625 210.535156 318.117188 210.527344 318.171875 210.507812 L 338.269531 203.472656 C 338.53125 203.378906 338.671875 203.09375 338.578125 202.832031 C 338.488281 202.574219 338.199219 202.433594 337.941406 202.527344 Z M 310.027344 216.828125 C 309.753906 216.769531 309.488281 216.941406 309.429688 217.210938 L 305.597656 234.570312 C 305.566406 234.5625 305.539062 234.5625 305.507812 234.5625 C 305.144531 234.5625 304.820312 234.410156 304.519531 234.09375 C 303.957031 233.507812 303.542969 232.460938 303.242188 231.203125 C 303.339844 231.296875 303.4375 231.375 303.542969 231.433594 C 306.449219 233.027344 309.238281 215.675781 309.238281 215.675781 L 301.585938 214.875 C 301.585938 214.875 301.324219 219.011719 301.496094 223.164062 C 301.496094 226.257812 301.75 232.65625 303.792969 234.785156 C 304.257812 235.265625 304.789062 235.527344 305.378906 235.558594 L 304.402344 239.972656 C 304.34375 240.242188 304.515625 240.507812 304.785156 240.566406 C 304.820312 240.578125 304.859375 240.578125 304.894531 240.578125 C 305.125 240.578125 305.332031 240.421875 305.382812 240.1875 L 310.410156 217.425781 C 310.46875 217.15625 310.296875 216.890625 310.027344 216.828125 Z M 393.089844 150.632812 C 393.105469 150.632812 393.121094 150.632812 393.132812 150.632812 C 393.390625 150.632812 393.609375 150.433594 393.632812 150.171875 C 394.707031 136.902344 400.101562 129.203125 400.15625 129.128906 C 400.316406 128.902344 400.265625 128.589844 400.039062 128.429688 C 399.8125 128.269531 399.5 128.320312 399.34375 128.546875 C 399.113281 128.867188 393.734375 136.527344 392.632812 150.09375 C 392.609375 150.367188 392.816406 150.609375 393.089844 150.632812 Z M 304.660156 131.976562 C 304.398438 132.074219 304.265625 132.359375 304.359375 132.621094 C 304.402344 132.730469 308.410156 143.765625 310.585938 159.5 C 310.621094 159.753906 310.835938 159.933594 311.082031 159.933594 C 311.105469 159.933594 311.128906 159.933594 311.152344 159.929688 C 311.425781 159.890625 311.617188 159.636719 311.578125 159.363281 C 309.390625 143.523438 305.34375 132.386719 305.300781 132.277344 C 305.207031 132.015625 304.917969 131.882812 304.660156 131.976562 Z M 327.074219 210.917969 L 319.171875 214.039062 C 318.914062 214.140625 318.785156 214.429688 318.886719 214.6875 C 318.96875 214.882812 319.15625 215.003906 319.355469 215.003906 C 319.414062 215.003906 319.480469 214.992188 319.539062 214.96875 L 327.441406 211.847656 C 327.703125 211.746094 327.828125 211.453125 327.726562 211.199219 C 327.625 210.941406 327.332031 210.8125 327.074219 210.917969 Z M 313.417969 170.554688 C 313.433594 170.6875 315.386719 183.664062 315.929688 189.121094 C 315.957031 189.394531 315.757812 189.640625 315.484375 189.667969 C 315.464844 189.667969 315.449219 189.671875 315.433594 189.671875 C 315.175781 189.671875 314.960938 189.476562 314.933594 189.21875 C 314.390625 183.789062 312.445312 170.835938 312.425781 170.703125 C 312.382812 170.429688 312.574219 170.175781 312.84375 170.136719 C 313.117188 170.097656 313.375 170.28125 313.417969 170.554688 " fill-opacity="1" fill-rule="nonzero"/><path fill="#454582" d="M 378.101562 158.53125 C 378.101562 158.390625 377.992188 158.28125 377.851562 158.28125 L 373.117188 158.28125 C 372.976562 158.28125 372.867188 158.390625 372.867188 158.53125 C 372.867188 158.667969 372.976562 158.78125 373.117188 158.78125 L 377.851562 158.78125 C 377.992188 158.78125 378.101562 158.667969 378.101562 158.53125 Z M 377.070312 160.105469 C 377.070312 159.96875 376.960938 159.855469 376.820312 159.855469 L 374.148438 159.855469 C 374.007812 159.855469 373.898438 159.96875 373.898438 160.105469 C 373.898438 160.242188 374.007812 160.355469 374.148438 160.355469 L 376.820312 160.355469 C 376.960938 160.355469 377.070312 160.242188 377.070312 160.105469 Z M 373.050781 155.421875 L 377.921875 155.421875 L 377.921875 150.558594 L 373.050781 150.558594 Z M 382.570312 147.316406 L 382.570312 169.203125 L 368.707031 169.203125 L 362.605469 188.707031 C 362.539062 188.921875 362.339844 189.058594 362.125 189.058594 C 362.074219 189.058594 362.027344 189.050781 361.976562 189.035156 C 361.9375 189.023438 361.910156 189.003906 361.878906 188.984375 C 361.683594 188.871094 361.574219 188.636719 361.648438 188.410156 L 361.855469 187.746094 L 368.398438 166.832031 L 368.398438 147.316406 L 374.394531 147.316406 L 374.394531 148.621094 L 376.570312 148.621094 L 376.570312 147.316406 Z M 322.984375 141.671875 L 327.949219 143.445312 L 337.792969 178.164062 C 338.089844 178.136719 338.398438 178.144531 338.707031 178.203125 L 338.855469 178.226562 L 329.109375 143.863281 L 337.691406 146.929688 C 337.953125 147.023438 338.238281 146.890625 338.332031 146.628906 C 338.425781 146.367188 338.289062 146.082031 338.027344 145.988281 L 323.78125 140.890625 L 330.308594 120.671875 C 330.394531 120.40625 330.25 120.125 329.988281 120.039062 C 329.722656 119.953125 329.441406 120.101562 329.355469 120.363281 L 322.675781 141.042969 C 322.59375 141.300781 322.730469 141.578125 322.984375 141.671875 Z M 379.992188 210.394531 L 372.933594 205.855469 L 353.558594 193.402344 C 352.988281 193.035156 352.335938 192.8125 351.660156 192.761719 L 333.140625 191.324219 L 315.535156 189.960938 L 294.476562 188.324219 C 293.59375 188.257812 293.195312 189.410156 293.9375 189.898438 L 303.21875 196.039062 C 303.402344 196.152344 303.582031 196.273438 303.757812 196.394531 L 309.828125 200.410156 L 310.300781 200.21875 L 316.457031 204.4375 L 316.230469 204.640625 L 316.910156 205.089844 C 317.019531 205.058594 317.136719 205.019531 317.253906 204.984375 L 320.207031 207.007812 L 324.480469 207.238281 L 337.941406 202.527344 C 338.199219 202.433594 338.488281 202.574219 338.578125 202.832031 C 338.671875 203.09375 338.53125 203.378906 338.269531 203.472656 L 327.101562 207.382812 L 334.742188 207.796875 L 339.945312 208.28125 L 362.320312 210.375 L 374.132812 211.476562 C 374.167969 211.285156 374.3125 211.125 374.511719 211.078125 C 374.777344 211.015625 375.050781 211.183594 375.113281 211.453125 L 375.140625 211.570312 L 379.449219 211.972656 C 380.34375 212.054688 380.753906 210.878906 379.992188 210.394531 Z M 344.617188 171.960938 L 344.699219 172.007812 L 345.019531 172.1875 C 345.207031 172.292969 345.449219 172.234375 345.566406 172.046875 L 349.578125 165.554688 C 349.695312 165.371094 349.640625 165.125 349.457031 165.003906 L 349.152344 164.800781 L 348.984375 164.691406 C 348.792969 164.5625 348.53125 164.621094 348.410156 164.820312 L 344.46875 171.398438 C 344.351562 171.59375 344.417969 171.847656 344.617188 171.960938 Z M 335.53125 123.210938 C 336.171875 123.042969 336.914062 120.578125 337.644531 117.144531 C 334.925781 117.78125 333.160156 118.484375 332.246094 118.90625 L 333.378906 123.980469 C 334.015625 123.679688 334.730469 123.417969 335.53125 123.210938 Z M 375.234375 144.996094 L 374.914062 146.007812 L 375.234375 146.007812 Z M 367.871094 120.527344 L 368.4375 117.210938 C 366.253906 116.859375 364.1875 116.582031 362.214844 116.363281 C 363.714844 118.347656 365.824219 119.664062 367.871094 120.527344 Z M 372.816406 119.734375 C 372.707031 119.476562 372.828125 119.183594 373.082031 119.078125 C 373.339844 118.96875 373.632812 119.089844 373.738281 119.34375 L 381.765625 138.3125 C 381.867188 138.546875 381.773438 138.816406 381.550781 138.941406 L 377.28125 141.34375 C 377.335938 141.453125 377.351562 141.585938 377.3125 141.714844 L 375.96875 146.007812 L 375.734375 146.007812 L 375.734375 144.339844 C 375.734375 144.214844 375.636719 144.113281 375.515625 144.097656 L 376.183594 141.960938 L 364.578125 148.488281 C 364.335938 148.625 364.03125 148.539062 363.894531 148.296875 C 363.757812 148.058594 363.84375 147.75 364.085938 147.617188 L 380.671875 138.289062 L 372.816406 119.734375 " fill-opacity="1" fill-rule="nonzero"/><path fill="#d77e5e" d="M 375.515625 144.097656 C 375.503906 144.097656 375.496094 144.089844 375.484375 144.089844 C 375.34375 144.089844 375.234375 144.203125 375.234375 144.339844 L 375.234375 146.007812 L 375.734375 146.007812 L 375.734375 144.339844 C 375.734375 144.214844 375.636719 144.113281 375.515625 144.097656 Z M 338.558594 202.800781 C 338.566406 202.8125 338.574219 202.820312 338.578125 202.832031 C 338.671875 203.09375 338.53125 203.378906 338.269531 203.472656 L 318.171875 210.507812 C 318.117188 210.527344 318.0625 210.535156 318.003906 210.535156 C 317.800781 210.535156 317.605469 210.40625 317.535156 210.203125 C 317.441406 209.941406 317.578125 209.65625 317.839844 209.5625 L 337.941406 202.527344 C 338.050781 202.488281 338.160156 202.496094 338.261719 202.53125 L 337.363281 201.5 C 336.914062 200.984375 336.257812 200.707031 335.570312 200.734375 C 330.429688 200.953125 320.90625 203.820312 316.910156 205.089844 C 316.378906 205.261719 315.945312 205.402344 315.632812 205.503906 C 315.269531 205.621094 315.066406 205.691406 315.066406 205.691406 L 315.683594 205.136719 L 316.230469 204.640625 L 321.765625 199.648438 C 322.621094 198.878906 322.742188 197.585938 322.050781 196.667969 C 321.652344 196.140625 320.953125 195.949219 320.339844 196.195312 L 309.828125 200.410156 L 305.8125 202.019531 C 305.8125 202.019531 301.578125 205.320312 301.585938 214.875 C 301.585938 216.285156 301.679688 217.828125 301.890625 219.519531 C 302.101562 221.195312 306.335938 218.929688 308.945312 217.363281 C 309.152344 217.234375 309.351562 217.113281 309.539062 217 C 309.609375 216.917969 309.703125 216.859375 309.808594 216.832031 C 310.507812 216.394531 310.960938 216.09375 310.960938 216.09375 L 314.066406 217.253906 L 316.738281 218.25 C 318.414062 218.878906 320.296875 218.488281 321.585938 217.25 L 327.039062 212.007812 L 319.539062 214.96875 C 319.480469 214.992188 319.414062 215.003906 319.355469 215.003906 C 319.15625 215.003906 318.96875 214.882812 318.886719 214.6875 C 318.785156 214.429688 318.914062 214.140625 319.171875 214.039062 L 327.074219 210.917969 C 327.332031 210.8125 327.625 210.941406 327.726562 211.199219 C 327.75 211.253906 327.753906 211.3125 327.753906 211.367188 L 334.058594 207.734375 L 338.847656 204.972656 C 339.523438 204.582031 339.597656 203.636719 338.988281 203.144531 Z M 369.292969 193.699219 C 369.292969 193.699219 365.117188 192.800781 361.9375 191.875 C 360.277344 191.386719 358.890625 190.894531 358.511719 190.515625 C 357.957031 189.964844 355.613281 186.15625 353.898438 183.324219 C 352.695312 181.328125 350.660156 179.976562 348.355469 179.632812 L 343.628906 178.933594 L 340.796875 178.515625 L 340.765625 178.507812 L 338.855469 178.226562 L 338.707031 178.203125 C 338.398438 178.144531 338.089844 178.136719 337.792969 178.164062 C 336.246094 178.292969 334.933594 179.480469 334.726562 181.097656 L 334.601562 182.0625 C 334.710938 181.929688 334.882812 181.851562 335.066406 181.886719 L 348.667969 184.210938 C 348.941406 184.257812 349.125 184.515625 349.078125 184.789062 C 349.035156 185.03125 348.824219 185.207031 348.585938 185.207031 C 348.554688 185.207031 348.527344 185.203125 348.5 185.195312 L 334.894531 182.871094 C 334.660156 182.832031 334.5 182.632812 334.488281 182.40625 L 334.460938 182.398438 C 332.878906 182.121094 331.386719 183.230469 331.191406 184.820312 L 331.1875 184.859375 C 331.015625 186.277344 331.945312 187.582031 333.320312 187.910156 C 333.320312 187.898438 333.316406 187.890625 333.320312 187.878906 C 333.355469 187.605469 333.609375 187.417969 333.882812 187.449219 L 348.285156 189.410156 C 348.558594 189.445312 348.75 189.699219 348.710938 189.972656 C 348.679688 190.222656 348.464844 190.40625 348.214844 190.40625 C 348.195312 190.40625 348.171875 190.402344 348.148438 190.402344 L 333.746094 188.441406 C 333.582031 188.417969 333.453125 188.316406 333.382812 188.179688 L 333.007812 189.476562 C 332.824219 190.109375 332.886719 190.757812 333.140625 191.324219 L 351.660156 192.761719 C 352.335938 192.8125 352.988281 193.035156 353.558594 193.402344 L 372.933594 205.855469 C 372.078125 202.433594 371.246094 199.179688 370.578125 196.617188 Z M 337.230469 141.234375 L 333.378906 123.980469 C 334.015625 123.679688 334.730469 123.417969 335.53125 123.210938 C 336.171875 123.042969 336.914062 120.578125 337.644531 117.144531 C 337.824219 116.308594 338.003906 115.414062 338.179688 114.484375 C 342.648438 118.046875 349.6875 117.285156 354.355469 114.671875 C 356.71875 113.34375 358.144531 111.648438 358.976562 109.875 C 359.316406 109.535156 359.636719 109.191406 359.945312 108.839844 C 360.050781 110.460938 360.242188 111.90625 360.554688 113.011719 C 360.917969 114.304688 361.496094 115.410156 362.214844 116.363281 C 363.714844 118.347656 365.824219 119.664062 367.871094 120.527344 L 364.53125 140.113281 C 361 142.828125 356.25 144.746094 349.871094 144.746094 C 344.984375 144.746094 340.648438 143.339844 337.230469 141.234375 " fill-opacity="1" fill-rule="nonzero"/><path fill="#d77e5e" d="M 369.347656 97.433594 C 368.355469 99.277344 366.761719 100.492188 365.195312 100.796875 C 365.164062 100.804688 365.132812 100.8125 365.097656 100.820312 C 364.640625 100.898438 364.1875 100.898438 363.753906 100.808594 C 363.667969 101 363.578125 101.191406 363.488281 101.386719 C 363.476562 101.402344 363.460938 101.417969 363.453125 101.441406 C 363.453125 101.445312 363.433594 101.496094 363.394531 101.585938 C 362.800781 102.847656 362.15625 104.082031 361.460938 105.269531 C 361.027344 105.953125 360.527344 106.679688 359.953125 107.40625 C 360.527344 104.386719 359.691406 101.664062 359.296875 100.453125 C 359.742188 99.660156 360.40625 98.589844 361.011719 97.582031 C 362.777344 94.652344 364.988281 91.3125 366.269531 90.464844 C 366.433594 90.355469 366.507812 90.167969 366.484375 89.984375 C 367.128906 89.9375 367.753906 90.050781 368.320312 90.351562 C 368.675781 90.542969 368.980469 90.800781 369.238281 91.101562 C 370.488281 92.546875 370.589844 95.117188 369.347656 97.433594 Z M 357.179688 92.910156 C 357.082031 93.019531 356.949219 93.074219 356.8125 93.078125 C 356.691406 93.078125 356.570312 93.035156 356.472656 92.949219 C 354.011719 90.757812 351.613281 91.785156 351.511719 91.828125 C 351.257812 91.9375 350.964844 91.828125 350.851562 91.574219 C 350.738281 91.324219 350.847656 91.027344 351.097656 90.914062 C 351.222656 90.859375 354.179688 89.5625 357.140625 92.203125 C 357.347656 92.386719 357.367188 92.703125 357.179688 92.910156 Z M 354.554688 96.074219 C 354.488281 96.675781 353.949219 97.109375 353.347656 97.042969 C 352.742188 96.980469 352.308594 96.441406 352.375 95.839844 C 352.4375 95.238281 352.980469 94.804688 353.582031 94.867188 C 354.183594 94.933594 354.621094 95.472656 354.554688 96.074219 Z M 344.097656 90.652344 C 344 90.769531 343.859375 90.828125 343.71875 90.832031 C 343.601562 90.832031 343.484375 90.792969 343.390625 90.710938 C 340.847656 88.578125 338.425781 89.722656 338.402344 89.734375 C 338.152344 89.859375 337.851562 89.757812 337.730469 89.507812 C 337.609375 89.257812 337.710938 88.960938 337.960938 88.835938 C 338.082031 88.777344 341 87.394531 344.035156 89.945312 C 344.25 90.125 344.273438 90.441406 344.097656 90.652344 Z M 342.28125 94.753906 C 342.214844 95.355469 341.675781 95.789062 341.074219 95.726562 C 340.46875 95.660156 340.035156 95.121094 340.101562 94.519531 C 340.164062 93.917969 340.707031 93.484375 341.308594 93.550781 C 341.910156 93.613281 342.347656 94.152344 342.28125 94.753906 Z M 363.078125 89.410156 C 359.144531 88.359375 353.742188 87.515625 352.699219 81.128906 C 351.953125 76.5625 347.921875 75.984375 345.910156 75.988281 C 342.1875 81.019531 337.125 83.46875 333.417969 84.644531 C 333.003906 88.59375 332.640625 93.359375 333.15625 98.09375 C 334.667969 97.8125 341.90625 96.621094 345.035156 97.15625 C 345.074219 97.164062 345.074219 97.164062 345.101562 97.167969 C 345.3125 96.585938 345.554688 95.941406 345.839844 95.214844 C 345.941406 94.957031 346.234375 94.832031 346.492188 94.933594 C 346.75 95.035156 346.875 95.328125 346.773438 95.585938 C 346.546875 96.15625 346.324219 96.753906 346.113281 97.34375 C 346.089844 97.339844 357.230469 99.542969 358.597656 99.808594 C 359.179688 98.785156 360.109375 97.097656 361.074219 95.5625 C 362.285156 93.636719 363.640625 91.65625 364.769531 90.46875 C 364.789062 90.449219 364.804688 90.429688 364.820312 90.414062 C 364.363281 89.949219 363.789062 89.601562 363.078125 89.410156 " fill-opacity="1" fill-rule="nonzero"/><g clip-path="url(#id5)"><g clip-path="url(#id6)"><g clip-path="url(#id7)"><path fill="#ffffff" d="M 454.996094 162.59375 C 455.808594 167.28125 456.5625 172.011719 457.4375 176.6875 C 458.308594 181.15625 459.375 185.585938 460.277344 190.050781 C 460.859375 192.917969 461.175781 195.839844 461.960938 198.699219 C 462.992188 202.628906 463.804688 206.636719 464.378906 210.660156 C 464.894531 214.046875 464.53125 217.480469 463.335938 220.671875 C 461.464844 225.5625 458.878906 230.121094 455.65625 234.230469 C 454.179688 236.191406 452.785156 238.238281 451.511719 240.359375 C 449.351562 243.988281 446.597656 247.222656 443.398438 249.9375 C 440.84375 252.117188 438.292969 254.328125 435.867188 256.652344 C 434.347656 258.078125 432.964844 259.648438 431.703125 261.328125 C 428.703125 265.359375 425.136719 268.960938 421.160156 272.039062 C 417.886719 274.535156 414.941406 277.503906 412.511719 280.808594 C 409.929688 284.554688 406.304688 286.847656 402.203125 288.457031 C 398.859375 289.777344 395.554688 291.125 392.105469 292.261719 C 387.699219 293.730469 383.105469 294.421875 378.46875 294.242188 C 375.03125 294.089844 371.765625 292.917969 369.023438 290.824219 C 361.964844 285.742188 356.53125 278.734375 353.355469 270.625 C 351.609375 266.195312 349.867188 261.800781 348.449219 257.304688 C 347.539062 254.164062 346.855469 250.945312 346.40625 247.710938 C 345.707031 243.582031 345.15625 239.351562 345.878906 235.167969 C 346.664062 230.464844 347.667969 225.816406 348.734375 221.160156 C 349.085938 219.867188 349.648438 218.601562 350.371094 217.46875 C 351.660156 215.242188 353.019531 213.035156 354.457031 210.878906 C 357.042969 206.996094 359.855469 203.207031 363.515625 200.261719 C 366.773438 197.5 371.039062 196.195312 375.285156 196.625 C 376.535156 196.746094 377.777344 196.492188 378.882812 195.898438 C 380.808594 194.964844 382.855469 194.3125 385.003906 193.980469 C 386.925781 193.558594 388.757812 192.847656 390.480469 191.925781 C 396.527344 188.800781 402.414062 185.40625 407.632812 180.890625 C 413.230469 176.0625 418.566406 170.945312 423.816406 165.746094 C 426.800781 162.804688 429.871094 159.976562 432.847656 157 C 434.011719 155.851562 435.011719 154.5625 436.089844 153.328125 C 437.46875 151.726562 439.234375 150.519531 441.199219 149.785156 C 445.367188 148.160156 450.078125 149.886719 452.222656 153.761719 C 453.609375 156.566406 454.582031 159.523438 454.996094 162.59375 Z M 379.703125 196.578125 C 378.480469 197.4375 376.988281 197.808594 375.527344 197.660156 C 371.226562 197.105469 366.90625 198.488281 363.6875 201.445312 C 361.4375 203.460938 359.40625 205.703125 357.652344 208.160156 C 355.105469 211.730469 352.839844 215.511719 350.492188 219.242188 C 350.167969 219.816406 349.886719 220.449219 349.75 221.121094 C 348.375 226.117188 347.390625 231.199219 346.796875 236.339844 C 346.371094 240.121094 346.820312 243.863281 347.464844 247.566406 C 347.902344 250.734375 348.574219 253.886719 349.441406 257.003906 C 350.738281 261.21875 352.445312 265.28125 353.96875 269.449219 C 356.703125 276.730469 361.296875 283.265625 367.324219 288.320312 C 370.675781 291.238281 374.519531 293.242188 379.164062 293.285156 C 382.746094 293.308594 386.332031 292.855469 389.820312 291.910156 C 394.480469 290.699219 398.890625 288.753906 403.347656 286.871094 C 406.558594 285.574219 409.390625 283.40625 411.417969 280.625 C 414.097656 277.03125 417.261719 273.8125 420.832031 271.089844 C 424.789062 268.082031 428.253906 264.5 431.125 260.492188 C 431.554688 259.929688 431.988281 259.371094 432.457031 258.832031 C 435.347656 255.601562 438.5 252.660156 441.90625 249.96875 C 445.039062 247.4375 447.773438 244.441406 449.953125 241.082031 C 452.089844 237.835938 454.3125 234.671875 456.523438 231.445312 C 459.003906 227.890625 461.050781 224.015625 462.578125 219.945312 C 464.058594 215.980469 463.796875 211.996094 462.992188 208.023438 C 462.242188 204.308594 461.328125 200.625 460.542969 196.917969 C 459.515625 191.835938 458.589844 186.765625 457.496094 181.695312 C 456.253906 175.875 455.136719 170.027344 454.34375 164.082031 C 453.929688 160.84375 452.980469 157.675781 451.5625 154.707031 C 449.375 150.128906 444.609375 149.636719 441.277344 150.851562 C 439.117188 151.628906 437.5625 153.199219 436.027344 154.867188 C 433.738281 157.363281 431.4375 159.796875 429.058594 162.175781 C 425.734375 165.460938 422.40625 168.710938 419 171.910156 C 412.074219 178.433594 405.253906 185.136719 396.695312 189.648438 C 393.339844 191.414062 390.003906 193.105469 386.621094 194.738281 C 384.722656 195.632812 382.78125 196.296875 380.871094 197.125 C 380.207031 197.394531 379.933594 197.210938 379.703125 196.578125 Z M 372.847656 205.972656 C 375.695312 205.394531 378.535156 205.632812 381.371094 205.671875 C 391.992188 205.796875 402.378906 204.273438 412.148438 200.023438 C 415.5 198.566406 418.621094 196.644531 420.78125 193.527344 C 421.339844 192.738281 421.808594 191.863281 422.214844 191 C 423.382812 188.527344 424.886719 186.1875 426.644531 184.101562 C 428.160156 182.335938 430.136719 180.988281 432.355469 180.164062 C 433.324219 179.730469 434.4375 179.675781 435.457031 180.011719 C 436.539062 180.300781 437.546875 180.742188 438.542969 181.289062 C 445.574219 185.394531 451.277344 191.363281 455.050781 198.570312 C 456.359375 201.15625 457.074219 204.027344 457.085938 206.945312 C 457.164062 210.355469 457.480469 213.785156 456.621094 217.113281 C 455.507812 221.542969 454.175781 225.914062 451.542969 229.738281 C 448.261719 234.402344 443.941406 238.296875 438.957031 241.101562 C 432.375 244.945312 425.851562 248.910156 419.324219 252.839844 C 416.007812 254.96875 413.222656 257.875 411.253906 261.289062 C 409.144531 264.667969 406.863281 267.875 404.628906 271.144531 C 403.105469 273.382812 401.628906 275.683594 399.988281 277.847656 C 398.957031 279.140625 397.792969 280.292969 396.542969 281.359375 C 395.195312 282.617188 393.324219 283.128906 391.542969 282.746094 C 390.410156 282.53125 389.289062 282.386719 388.195312 282.03125 C 384.804688 281.089844 381.445312 280.140625 378.089844 279.054688 C 372.148438 277.136719 367.632812 273.503906 364.726562 267.886719 C 362.054688 262.59375 359.609375 257.253906 358.203125 251.464844 C 356.742188 245.25 356.855469 238.746094 358.539062 232.574219 C 359.839844 227.5625 361.28125 222.554688 362.6875 217.554688 C 363.3125 215.257812 364.265625 213.066406 365.527344 211.046875 C 365.859375 210.503906 365.964844 209.839844 366.371094 209.316406 C 366.722656 208.703125 367.226562 208.160156 367.835938 207.796875 C 369.417969 207.039062 371.074219 206.464844 372.703125 205.761719 Z M 358.992188 250.492188 C 360.355469 256.558594 362.957031 262.511719 366.109375 268.316406 C 368.304688 272.453125 371.917969 275.65625 376.3125 277.34375 C 381.042969 279.167969 385.9375 280.621094 390.886719 281.691406 C 393.042969 282.238281 395.285156 281.546875 396.765625 279.925781 C 398.640625 278.085938 400.339844 276.046875 401.765625 273.824219 C 403.484375 271.207031 405.234375 268.578125 406.984375 265.953125 C 408.058594 264.34375 409.246094 262.816406 410.175781 261.167969 C 412.347656 257.269531 415.535156 253.980469 419.355469 251.648438 C 426.039062 247.648438 432.765625 243.675781 439.410156 239.652344 C 444.539062 236.546875 448.9375 232.675781 451.808594 227.34375 C 454.9375 221.757812 456.449219 215.417969 456.210938 209.019531 C 456.027344 205.089844 455.605469 201.308594 453.578125 197.851562 C 450.625 192.683594 446.613281 188.167969 441.773438 184.636719 C 440.023438 183.394531 438.203125 182.304688 436.296875 181.300781 C 435.292969 180.722656 434.078125 180.597656 432.992188 180.953125 C 431.171875 181.558594 429.535156 182.566406 428.167969 183.894531 C 426.082031 186.046875 424.410156 188.554688 423.191406 191.277344 C 421.988281 193.929688 420.097656 196.210938 417.71875 197.914062 C 414.109375 200.609375 409.898438 202.207031 405.652344 203.441406 C 397.515625 205.832031 389.078125 206.894531 380.605469 206.605469 C 377.582031 206.472656 374.558594 206.335938 371.636719 207.234375 C 369.558594 207.890625 367.324219 208.476562 366.757812 211.070312 C 366.71875 211.210938 366.613281 211.371094 366.535156 211.488281 C 365.269531 213.472656 364.335938 215.59375 363.703125 217.859375 C 362.308594 222.753906 360.914062 227.648438 359.632812 232.589844 C 358.019531 238.445312 357.792969 244.5625 358.992188 250.492188 Z M 384.03125 197.433594 C 384 197.269531 383.738281 197.15625 383.539062 197.023438 C 383.410156 197.21875 383.175781 197.402344 383.140625 197.578125 C 383.117188 197.789062 383.4375 197.859375 383.691406 198.113281 C 383.84375 197.84375 384.066406 197.597656 384.03125 197.433594 Z M 447.523438 209.863281 C 448.179688 214.613281 448 219.125 445.5625 223.25 C 444.609375 224.765625 443.453125 226.117188 442.125 227.300781 C 439.15625 229.972656 435.859375 232.199219 432.269531 233.976562 C 426.5625 236.925781 421.152344 240.496094 416.1875 244.589844 C 415.109375 245.484375 414.003906 246.421875 412.832031 247.199219 C 408.988281 249.742188 406.070312 253.179688 403.339844 256.851562 C 401.464844 259.371094 399.429688 261.78125 397.351562 264.136719 C 395.644531 266.144531 393.238281 267.375 390.632812 267.632812 C 387.457031 267.933594 384.4375 267.492188 381.824219 265.511719 C 378.535156 263.058594 375.511719 260.414062 373.59375 256.664062 C 372.300781 253.972656 371.609375 251.058594 371.523438 248.09375 C 371.265625 243.125 371.757812 238.140625 372.957031 233.285156 C 373.378906 231.503906 373.625 229.691406 374.113281 227.898438 C 374.71875 225.671875 375.503906 223.476562 376.246094 221.257812 C 376.441406 220.710938 376.703125 220.148438 376.898438 219.601562 C 377.054688 219.027344 376.910156 218.308594 377.917969 218.582031 C 377.984375 218.566406 378.148438 218.363281 378.226562 218.246094 C 379.402344 216.480469 381.195312 215.238281 383.242188 214.757812 C 385.121094 214.273438 386.921875 213.402344 388.773438 212.789062 C 392.144531 211.769531 395.597656 211.171875 399.101562 210.972656 C 401.714844 210.75 404.300781 210.734375 406.90625 210.480469 C 408.242188 210.34375 409.558594 210.113281 410.8125 209.757812 C 411.402344 209.636719 411.957031 209.355469 412.390625 208.960938 C 415.382812 205.574219 419.390625 203.648438 423.027344 201.25 C 424.859375 200.03125 426.742188 198.902344 428.722656 197.925781 C 431.8125 196.351562 435.472656 196.425781 438.480469 198.15625 C 443.359375 200.730469 446.089844 204.960938 447.511719 209.964844 Z M 392.417969 212.796875 C 391.640625 212.988281 390.652344 213.15625 389.703125 213.515625 C 387.539062 214.261719 385.464844 215.289062 383.210938 215.78125 C 380.398438 216.347656 379 218.53125 377.765625 220.511719 C 376.464844 222.671875 375.898438 225.261719 375.175781 227.75 C 374.632812 229.625 374.355469 231.613281 373.925781 233.53125 C 372.738281 238.28125 372.269531 243.195312 372.511719 248.097656 C 372.613281 250.789062 373.210938 253.414062 374.320312 255.871094 C 376.179688 259.667969 379.160156 262.285156 382.445312 264.707031 C 384.851562 266.496094 387.585938 266.890625 390.46875 266.648438 C 393.347656 266.402344 395.441406 264.964844 397.199219 262.878906 C 399.238281 260.496094 401.167969 258.074219 403.050781 255.589844 C 405.597656 252.191406 408.339844 249.058594 411.871094 246.648438 C 412.976562 245.882812 414.0625 245.019531 415.082031 244.167969 C 420.273438 239.859375 425.953125 236.101562 431.933594 232.992188 C 435.105469 231.332031 438.113281 229.367188 440.886719 227.078125 C 444.269531 224.425781 446.367188 220.472656 446.65625 216.175781 C 447.289062 209.535156 445.164062 204.097656 439.746094 200.039062 C 435.8125 197.101562 431.722656 196.914062 427.507812 199.496094 C 425.605469 200.695312 423.660156 201.867188 421.765625 203.097656 C 418.65625 205.082031 415.453125 206.917969 412.910156 209.671875 C 412.398438 210.183594 411.75 210.515625 411.0625 210.65625 C 409.308594 211.078125 407.5625 211.363281 405.75 211.492188 C 401.242188 211.625 396.765625 212.054688 392.316406 212.785156 Z M 402.324219 216.628906 C 405.066406 216.378906 407.84375 216.125 410.683594 215.855469 C 411.148438 215.792969 411.613281 215.734375 412.039062 215.648438 C 412.167969 215.621094 412.398438 215.574219 412.425781 215.535156 C 412.640625 214.578125 413.492188 214.914062 414.066406 214.730469 C 415.226562 214.394531 416.417969 214.050781 417.554688 213.617188 C 419.40625 212.835938 421.398438 212.398438 423.425781 212.328125 C 426.949219 212.394531 430.003906 214.695312 431.054688 218.042969 C 432.316406 222.265625 430.273438 226.816406 426.257812 228.679688 C 422.554688 230.414062 419.160156 232.660156 415.71875 234.847656 C 413.453125 236.289062 411.242188 237.820312 408.972656 239.230469 C 404.78125 241.738281 401.359375 245.382812 399.140625 249.730469 C 398.148438 251.730469 396.722656 253.441406 394.988281 254.8125 C 392.652344 256.574219 390.390625 256.65625 387.976562 255.007812 C 387.222656 254.484375 386.546875 253.839844 386.023438 253.097656 C 384.226562 250.78125 383.46875 248.050781 382.804688 245.269531 C 381.835938 240.816406 381.855469 236.199219 382.898438 231.75 C 383.328125 229.832031 384.300781 228.074219 385.6875 226.675781 C 387.179688 225.117188 388.636719 223.570312 390.210938 222.097656 C 392.238281 220.160156 394.777344 219.070312 397.34375 218.109375 C 398.925781 217.519531 400.582031 217.117188 402.351562 216.589844 Z M 402.523438 217.605469 C 400.789062 218.125 399.203125 218.550781 397.679688 219.09375 C 395.304688 219.980469 392.953125 221 391.089844 222.734375 C 389.429688 224.289062 387.859375 225.964844 386.285156 227.605469 C 384.988281 228.953125 384.140625 230.652344 383.789062 232.453125 C 382.566406 237.855469 382.921875 243.480469 384.761719 248.707031 C 385.292969 250.496094 386.238281 252.136719 387.570312 253.496094 C 389.917969 255.667969 392.195312 255.816406 394.59375 253.875 C 395.097656 253.5 395.554688 253.070312 395.9375 252.585938 C 396.882812 251.375 397.746094 250.082031 398.535156 248.769531 C 400.449219 245.09375 403.261719 241.980469 406.707031 239.652344 C 408.363281 238.574219 410.070312 237.582031 411.710938 236.4375 C 416.535156 233.15625 421.347656 229.84375 426.675781 227.375 C 428.140625 226.703125 429.246094 225.429688 429.679688 223.882812 C 429.996094 222.902344 430.203125 221.910156 430.371094 220.894531 C 430.851562 217.542969 427.375 212.988281 423.421875 213.3125 C 421.515625 213.492188 419.65625 213.902344 417.882812 214.566406 C 416.648438 215.019531 415.351562 215.351562 414.0625 215.714844 C 413.546875 215.851562 412.898438 215.675781 412.703125 216.394531 C 412.6875 216.5 412.394531 216.558594 412.199219 216.597656 C 411.707031 216.699219 411.183594 216.804688 410.671875 216.804688 C 407.863281 217.070312 405.082031 217.292969 402.476562 217.546875 Z M 402.523438 217.605469 " fill-opacity="1" fill-rule="nonzero"/></g></g></g><g clip-path="url(#id8)"><g clip-path="url(#id9)"><g clip-path="url(#id10)"><path fill="#ffffff" d="M 76.621094 -66.324219 C 77.375 -61.988281 78.070312 -57.605469 78.882812 -53.28125 C 79.691406 -49.140625 80.675781 -45.039062 81.511719 -40.90625 C 82.050781 -38.253906 82.34375 -35.550781 83.070312 -32.902344 C 84.023438 -29.265625 84.773438 -25.554688 85.308594 -21.832031 C 85.785156 -18.695312 85.453125 -15.519531 84.355469 -12.566406 C 82.636719 -8.042969 80.257812 -3.824219 77.292969 -0.0195312 C 75.933594 1.792969 74.652344 3.683594 73.480469 5.648438 C 71.488281 9 68.957031 11.992188 66.011719 14.503906 C 63.660156 16.519531 61.308594 18.5625 59.078125 20.710938 C 57.679688 22.03125 56.40625 23.480469 55.246094 25.035156 C 52.484375 28.765625 49.203125 32.097656 45.542969 34.941406 C 42.523438 37.246094 39.816406 39.992188 37.578125 43.050781 C 35.203125 46.515625 31.867188 48.632812 28.085938 50.121094 C 25.007812 51.339844 21.964844 52.582031 18.789062 53.632812 C 14.730469 54.988281 10.496094 55.625 6.226562 55.453125 C 3.058594 55.308594 0.046875 54.222656 -2.480469 52.28125 C -8.988281 47.570312 -14.003906 41.082031 -16.933594 33.574219 C -18.546875 29.472656 -20.15625 25.402344 -21.46875 21.238281 C -22.308594 18.332031 -22.941406 15.351562 -23.359375 12.359375 C -24.007812 8.535156 -24.515625 4.617188 -23.855469 0.75 C -23.136719 -3.605469 -22.214844 -7.902344 -21.238281 -12.214844 C -20.914062 -13.410156 -20.398438 -14.582031 -19.730469 -15.628906 C -18.546875 -17.6875 -17.296875 -19.730469 -15.972656 -21.726562 C -13.59375 -25.316406 -11.007812 -28.820312 -7.632812 -31.542969 C -4.636719 -34.097656 -0.707031 -35.300781 3.203125 -34.898438 C 4.355469 -34.785156 5.503906 -35.015625 6.519531 -35.570312 C 8.292969 -36.429688 10.179688 -37.03125 12.15625 -37.335938 C 13.929688 -37.726562 15.617188 -38.382812 17.203125 -39.234375 C 22.769531 -42.121094 28.191406 -45.257812 32.996094 -49.433594 C 38.152344 -53.898438 43.0625 -58.625 47.894531 -63.433594 C 50.640625 -66.15625 53.46875 -68.769531 56.207031 -71.519531 C 57.28125 -72.585938 58.199219 -73.777344 59.191406 -74.917969 C 60.460938 -76.402344 62.089844 -77.515625 63.898438 -78.195312 C 67.738281 -79.691406 72.078125 -78.089844 74.058594 -74.503906 C 75.335938 -71.90625 76.238281 -69.167969 76.621094 -66.324219 Z M 7.277344 -34.9375 C 6.148438 -34.144531 4.773438 -33.800781 3.429688 -33.9375 C -0.535156 -34.457031 -4.511719 -33.179688 -7.476562 -30.445312 C -9.546875 -28.582031 -11.417969 -26.507812 -13.03125 -24.234375 C -15.375 -20.9375 -17.460938 -17.4375 -19.617188 -13.988281 C -19.917969 -13.453125 -20.175781 -12.867188 -20.300781 -12.246094 C -21.5625 -7.628906 -22.464844 -2.921875 -23.007812 1.832031 C -23.398438 5.335938 -22.980469 8.796875 -22.382812 12.226562 C -21.976562 15.15625 -21.355469 18.078125 -20.554688 20.960938 C -19.355469 24.863281 -17.777344 28.625 -16.371094 32.484375 C -13.84375 39.226562 -9.609375 45.277344 -4.046875 49.960938 C -0.960938 52.667969 2.585938 54.523438 6.863281 54.570312 C 10.164062 54.59375 13.46875 54.175781 16.679688 53.304688 C 20.972656 52.1875 25.035156 50.390625 29.140625 48.652344 C 32.097656 47.457031 34.707031 45.453125 36.570312 42.878906 C 39.039062 39.554688 41.949219 36.578125 45.238281 34.058594 C 48.882812 31.28125 52.070312 27.96875 54.710938 24.261719 C 55.109375 23.742188 55.503906 23.222656 55.9375 22.726562 C 58.597656 19.742188 61.5 17.019531 64.636719 14.53125 C 67.523438 12.191406 70.039062 9.421875 72.046875 6.316406 C 74.011719 3.3125 76.054688 0.386719 78.085938 -2.601562 C 80.371094 -5.886719 82.253906 -9.472656 83.65625 -13.238281 C 85.015625 -16.90625 84.773438 -20.59375 84.027344 -24.273438 C 83.332031 -27.710938 82.488281 -31.121094 81.761719 -34.554688 C 80.808594 -39.257812 79.953125 -43.953125 78.941406 -48.644531 C 77.789062 -54.03125 76.757812 -59.445312 76.023438 -64.949219 C 75.636719 -67.945312 74.761719 -70.878906 73.453125 -73.628906 C 71.433594 -77.867188 67.039062 -78.328125 63.972656 -77.203125 C 61.984375 -76.488281 60.550781 -75.035156 59.136719 -73.496094 C 57.03125 -71.183594 54.910156 -68.933594 52.71875 -66.734375 C 49.664062 -63.699219 46.597656 -60.691406 43.460938 -57.734375 C 37.089844 -51.703125 30.808594 -45.503906 22.929688 -41.335938 C 19.835938 -39.707031 16.765625 -38.144531 13.648438 -36.632812 C 11.902344 -35.808594 10.109375 -35.195312 8.351562 -34.433594 C 7.742188 -34.183594 7.488281 -34.351562 7.277344 -34.9375 Z M 0.96875 -26.25 C 3.589844 -26.78125 6.210938 -26.558594 8.820312 -26.519531 C 18.605469 -26.394531 28.175781 -27.796875 37.175781 -31.722656 C 40.261719 -33.066406 43.132812 -34.839844 45.125 -37.722656 C 45.636719 -38.457031 46.066406 -39.265625 46.441406 -40.0625 C 47.515625 -42.351562 48.898438 -44.515625 50.515625 -46.445312 C 51.914062 -48.078125 53.730469 -49.324219 55.773438 -50.082031 C 56.667969 -50.484375 57.691406 -50.535156 58.632812 -50.222656 C 59.628906 -49.953125 60.558594 -49.542969 61.476562 -49.039062 C 67.960938 -45.230469 73.21875 -39.703125 76.703125 -33.027344 C 77.910156 -30.632812 78.574219 -27.972656 78.585938 -25.277344 C 78.660156 -22.121094 78.957031 -18.945312 78.167969 -15.867188 C 77.144531 -11.765625 75.921875 -7.71875 73.5 -4.183594 C 70.480469 0.132812 66.5 3.730469 61.910156 6.324219 C 55.847656 9.871094 49.84375 13.535156 43.832031 17.171875 C 40.777344 19.136719 38.214844 21.824219 36.402344 24.984375 C 34.460938 28.105469 32.363281 31.074219 30.308594 34.097656 C 28.90625 36.171875 27.546875 38.296875 26.039062 40.296875 C 25.089844 41.496094 24.015625 42.558594 22.867188 43.546875 C 21.625 44.707031 19.902344 45.179688 18.261719 44.824219 C 17.214844 44.625 16.183594 44.488281 15.175781 44.160156 C 12.050781 43.285156 8.953125 42.402344 5.863281 41.394531 C 0.386719 39.613281 -3.777344 36.25 -6.460938 31.046875 C -8.929688 26.144531 -11.183594 21.199219 -12.488281 15.84375 C -13.839844 10.089844 -13.738281 4.070312 -12.195312 -1.640625 C -11 -6.277344 -9.675781 -10.910156 -8.382812 -15.535156 C -7.808594 -17.664062 -6.933594 -19.691406 -5.773438 -21.558594 C -5.464844 -22.0625 -5.371094 -22.675781 -4.996094 -23.160156 C -4.671875 -23.726562 -4.210938 -24.230469 -3.648438 -24.5625 C -2.191406 -25.265625 -0.667969 -25.792969 0.835938 -26.445312 Z M -11.757812 14.941406 C -10.496094 20.558594 -8.097656 26.070312 -5.1875 31.449219 C -3.160156 35.277344 0.171875 38.246094 4.222656 39.8125 C 8.582031 41.503906 13.09375 42.855469 17.65625 43.847656 C 19.640625 44.355469 21.707031 43.71875 23.070312 42.21875 C 24.796875 40.519531 26.359375 38.632812 27.671875 36.578125 C 29.253906 34.152344 30.863281 31.722656 32.476562 29.292969 C 33.460938 27.808594 34.554688 26.394531 35.410156 24.871094 C 37.410156 21.261719 40.339844 18.222656 43.859375 16.066406 C 50.015625 12.371094 56.207031 8.699219 62.328125 4.984375 C 67.050781 2.113281 71.097656 -1.46875 73.742188 -6.398438 C 76.621094 -11.566406 78.007812 -17.433594 77.78125 -23.355469 C 77.609375 -26.996094 77.214844 -30.492188 75.34375 -33.695312 C 72.621094 -38.480469 68.917969 -42.664062 64.457031 -45.9375 C 62.84375 -47.085938 61.167969 -48.097656 59.410156 -49.027344 C 58.484375 -49.5625 57.363281 -49.683594 56.363281 -49.355469 C 54.6875 -48.796875 53.179688 -47.863281 51.921875 -46.632812 C 50 -44.644531 48.460938 -42.324219 47.339844 -39.804688 C 46.234375 -37.351562 44.496094 -35.242188 42.304688 -33.667969 C 38.980469 -31.175781 35.105469 -29.699219 31.191406 -28.5625 C 23.699219 -26.359375 15.925781 -25.382812 8.117188 -25.65625 C 5.332031 -25.78125 2.542969 -25.910156 -0.144531 -25.082031 C -2.0625 -24.476562 -4.117188 -23.933594 -4.636719 -21.539062 C -4.675781 -21.40625 -4.769531 -21.257812 -4.84375 -21.152344 C -6.007812 -19.3125 -6.867188 -17.351562 -7.445312 -15.253906 C -8.726562 -10.726562 -10.007812 -6.195312 -11.1875 -1.625 C -12.664062 3.792969 -12.867188 9.453125 -11.757812 14.941406 Z M 11.265625 -34.140625 C 11.234375 -34.292969 10.992188 -34.402344 10.8125 -34.519531 C 10.691406 -34.339844 10.476562 -34.171875 10.445312 -34.007812 C 10.421875 -33.8125 10.71875 -33.75 10.953125 -33.511719 C 11.089844 -33.761719 11.296875 -33.992188 11.265625 -34.140625 Z M 69.777344 -22.585938 C 70.386719 -18.1875 70.226562 -14.007812 67.984375 -10.195312 C 67.105469 -8.792969 66.042969 -7.542969 64.820312 -6.449219 C 62.085938 -3.980469 59.050781 -1.921875 55.742188 -0.277344 C 50.488281 2.449219 45.507812 5.746094 40.9375 9.527344 C 39.941406 10.359375 38.925781 11.222656 37.847656 11.945312 C 34.304688 14.292969 31.621094 17.472656 29.109375 20.871094 C 27.382812 23.195312 25.511719 25.429688 23.597656 27.605469 C 22.027344 29.460938 19.808594 30.601562 17.410156 30.835938 C 14.484375 31.113281 11.703125 30.703125 9.289062 28.867188 C 6.257812 26.589844 3.46875 24.140625 1.699219 20.667969 C 0.507812 18.175781 -0.132812 15.480469 -0.21875 12.734375 C -0.457031 8.136719 -0.0078125 3.523438 1.089844 -0.96875 C 1.480469 -2.617188 1.703125 -4.296875 2.152344 -5.957031 C 2.710938 -8.015625 3.429688 -10.042969 4.113281 -12.097656 C 4.292969 -12.605469 4.53125 -13.125 4.710938 -13.632812 C 4.855469 -14.164062 4.722656 -14.828125 5.652344 -14.574219 C 5.710938 -14.589844 5.863281 -14.773438 5.933594 -14.882812 C 7.015625 -16.515625 8.667969 -17.667969 10.554688 -18.109375 C 12.285156 -18.554688 13.941406 -19.359375 15.648438 -19.925781 C 18.75 -20.867188 21.9375 -21.417969 25.164062 -21.597656 C 27.570312 -21.804688 29.953125 -21.8125 32.351562 -22.046875 C 33.582031 -22.171875 34.796875 -22.386719 35.953125 -22.714844 C 36.496094 -22.824219 37.007812 -23.082031 37.40625 -23.445312 C 40.160156 -26.578125 43.847656 -28.359375 47.199219 -30.578125 C 48.882812 -31.703125 50.621094 -32.746094 52.445312 -33.648438 C 55.289062 -35.101562 58.660156 -35.03125 61.433594 -33.425781 C 65.933594 -31.039062 68.453125 -27.121094 69.765625 -22.488281 Z M 19.007812 -19.914062 C 18.289062 -19.738281 17.378906 -19.585938 16.503906 -19.25 C 14.511719 -18.566406 12.601562 -17.613281 10.527344 -17.164062 C 7.933594 -16.636719 6.648438 -14.621094 5.511719 -12.789062 C 4.316406 -10.789062 3.796875 -8.390625 3.128906 -6.089844 C 2.632812 -4.359375 2.378906 -2.515625 1.984375 -0.742188 C 0.894531 3.65625 0.464844 8.199219 0.695312 12.738281 C 0.789062 15.230469 1.34375 17.664062 2.367188 19.933594 C 4.085938 23.449219 6.835938 25.878906 9.863281 28.121094 C 12.078125 29.777344 14.601562 30.144531 17.253906 29.921875 C 19.910156 29.699219 21.835938 28.367188 23.457031 26.441406 C 25.332031 24.238281 27.105469 21.996094 28.839844 19.699219 C 31.183594 16.554688 33.707031 13.660156 36.957031 11.433594 C 37.976562 10.722656 38.976562 9.925781 39.914062 9.140625 C 44.695312 5.15625 49.925781 1.683594 55.433594 -1.1875 C 58.355469 -2.722656 61.125 -4.539062 63.679688 -6.65625 C 66.792969 -9.105469 68.71875 -12.761719 68.984375 -16.742188 C 69.558594 -22.886719 67.601562 -27.921875 62.601562 -31.683594 C 58.976562 -34.402344 55.207031 -34.582031 51.328125 -32.195312 C 49.574219 -31.089844 47.785156 -30.003906 46.039062 -28.867188 C 43.175781 -27.03125 40.222656 -25.335938 37.882812 -22.789062 C 37.414062 -22.316406 36.816406 -22.007812 36.183594 -21.882812 C 34.566406 -21.492188 32.957031 -21.230469 31.289062 -21.109375 C 27.136719 -20.992188 23.011719 -20.597656 18.910156 -19.925781 Z M 28.136719 -16.359375 C 30.664062 -16.589844 33.222656 -16.824219 35.839844 -17.070312 C 36.265625 -17.125 36.695312 -17.179688 37.085938 -17.261719 C 37.207031 -17.285156 37.417969 -17.328125 37.441406 -17.363281 C 37.640625 -18.25 38.425781 -17.9375 38.957031 -18.109375 C 40.023438 -18.417969 41.121094 -18.734375 42.167969 -19.136719 C 43.875 -19.855469 45.707031 -20.257812 47.578125 -20.324219 C 50.824219 -20.257812 53.640625 -18.128906 54.609375 -15.027344 C 55.777344 -11.117188 53.898438 -6.90625 50.199219 -5.1875 C 46.789062 -3.585938 43.660156 -1.507812 40.492188 0.511719 C 38.410156 1.84375 36.375 3.261719 34.28125 4.5625 C 30.421875 6.882812 27.273438 10.25 25.230469 14.273438 C 24.320312 16.125 23.007812 17.707031 21.410156 18.972656 C 19.261719 20.601562 17.175781 20.675781 14.949219 19.148438 C 14.257812 18.660156 13.632812 18.066406 13.148438 17.378906 C 11.492188 15.234375 10.792969 12.707031 10.175781 10.128906 C 9.28125 6.007812 9.296875 1.738281 10.25 -2.382812 C 10.644531 -4.15625 11.539062 -5.78125 12.816406 -7.078125 C 14.1875 -8.515625 15.53125 -9.949219 16.980469 -11.308594 C 18.847656 -13.101562 21.1875 -14.105469 23.550781 -14.992188 C 25.007812 -15.539062 26.53125 -15.910156 28.160156 -16.398438 Z M 28.320312 -15.457031 C 26.722656 -14.976562 25.261719 -14.585938 23.859375 -14.082031 C 21.671875 -13.261719 19.507812 -12.324219 17.792969 -10.71875 C 16.261719 -9.28125 14.816406 -7.730469 13.367188 -6.214844 C 12.175781 -4.96875 11.394531 -3.398438 11.074219 -1.730469 C 9.949219 3.269531 10.28125 8.476562 11.980469 13.3125 C 12.472656 14.972656 13.347656 16.492188 14.574219 17.75 C 16.738281 19.761719 18.835938 19.902344 21.046875 18.105469 C 21.511719 17.757812 21.933594 17.359375 22.28125 16.914062 C 23.152344 15.792969 23.949219 14.597656 24.675781 13.382812 C 26.433594 9.980469 29.023438 7.101562 32.195312 4.953125 C 33.71875 3.957031 35.292969 3.039062 36.804688 1.980469 C 41.242188 -1.050781 45.675781 -4.113281 50.582031 -6.394531 C 51.933594 -7.011719 52.949219 -8.191406 53.351562 -9.621094 C 53.636719 -10.527344 53.828125 -11.445312 53.984375 -12.386719 C 54.421875 -15.492188 51.214844 -19.710938 47.574219 -19.414062 C 45.816406 -19.246094 44.105469 -18.867188 42.472656 -18.253906 C 41.332031 -17.835938 40.140625 -17.53125 38.953125 -17.199219 C 38.476562 -17.070312 37.878906 -17.230469 37.699219 -16.566406 C 37.6875 -16.46875 37.414062 -16.414062 37.234375 -16.378906 C 36.78125 -16.289062 36.300781 -16.191406 35.828125 -16.1875 C 33.242188 -15.949219 30.679688 -15.742188 28.277344 -15.507812 Z M 28.320312 -15.457031 " fill-opacity="1" fill-rule="nonzero"/></g></g></g><g clip-path="url(#id11)"><g clip-path="url(#id12)"><g clip-path="url(#id13)"><g clip-path="url(#id14)"><path fill="#ffffff" d="M 175.542969 54.707031 C 173.273438 58.226562 171.011719 61.753906 168.753906 65.285156 C 168.59375 65.53125 168.449219 65.804688 168.34375 66.082031 C 167.691406 67.804688 168.464844 69.257812 170.289062 69.636719 C 170.867188 69.761719 171.488281 69.773438 172.078125 69.703125 C 175.71875 69.273438 179.363281 68.855469 182.984375 68.300781 C 183.816406 68.175781 184.664062 67.660156 185.347656 67.128906 C 187.136719 65.742188 187.21875 64.796875 185.90625 62.964844 C 185.269531 62.074219 184.613281 61.195312 183.972656 60.324219 C 184.296875 60.011719 184.429688 59.824219 184.613281 59.707031 C 185.117188 59.390625 185.636719 59.082031 186.160156 58.792969 C 192.546875 55.320312 198.984375 51.960938 205.875 49.566406 C 216.433594 45.890625 227.242188 44.453125 238.382812 46.058594 C 241.367188 46.488281 244.242188 47.296875 246.988281 48.566406 C 251.875 50.828125 254.84375 54.664062 256.265625 59.78125 C 256.871094 61.953125 257.230469 64.144531 256.820312 66.496094 C 256.042969 66.625 255.324219 66.773438 254.597656 66.867188 C 244.933594 68.109375 236.222656 71.585938 228.691406 77.832031 C 225.34375 80.605469 222.082031 83.460938 219.527344 87.019531 C 217.792969 89.429688 216.542969 92.039062 216.457031 95.082031 C 216.308594 100.179688 219.632812 103.449219 224.734375 103.199219 C 227.625 103.066406 230.320312 102.191406 232.90625 100.953125 C 237.117188 98.9375 240.9375 96.300781 244.546875 93.375 C 251.890625 87.425781 257.882812 80.484375 260.503906 71.128906 C 260.539062 71.003906 260.683594 70.90625 260.886719 70.675781 C 263.414062 70.59375 266.019531 70.84375 268.5625 71.5 C 276.679688 73.582031 283.085938 77.878906 286.429688 85.863281 C 287.992188 89.59375 287.890625 93.394531 286.640625 96.761719 C 283.292969 97.203125 280.304688 97.433594 277.394531 98.027344 C 274.296875 98.664062 271.394531 99.917969 269.007812 102.105469 C 266.660156 104.257812 265.894531 107.027344 266.902344 109.609375 C 267.902344 112.191406 270.636719 113.972656 273.660156 113.996094 C 275.75 114.011719 277.632812 113.324219 279.371094 112.21875 C 282.824219 110.011719 285.679688 107.199219 287.960938 103.796875 C 288.28125 103.316406 288.640625 102.863281 288.996094 102.363281 C 289.441406 102.59375 289.792969 102.734375 290.101562 102.933594 C 298.148438 108.152344 298.71875 120.167969 291.195312 126.078125 C 290.605469 126.539062 289.984375 126.964844 289.433594 127.46875 C 288.75 128.097656 288.59375 128.933594 289.070312 129.710938 C 289.59375 130.570312 290.453125 130.859375 291.410156 130.460938 C 291.960938 130.234375 292.5 129.945312 292.972656 129.585938 C 302.628906 122.359375 302.566406 111.386719 296.789062 103.632812 C 295.144531 101.425781 293.070312 99.773438 290.773438 98.390625 C 290.796875 98.070312 290.777344 97.839844 290.835938 97.632812 C 293.28125 88.582031 290.488281 81.121094 283.804688 74.90625 C 278.132812 69.632812 271.285156 67.101562 263.644531 66.523438 C 262.851562 66.460938 262.0625 66.378906 261.261719 66.308594 C 261.214844 65.144531 261.21875 64.171875 261.125 63.207031 C 260.28125 54.441406 256.164062 47.929688 247.890625 44.421875 C 245.765625 43.523438 243.519531 42.796875 241.257812 42.347656 C 229.980469 40.117188 218.882812 41.203125 207.960938 44.449219 C 199.722656 46.894531 192.09375 50.707031 184.621094 54.859375 C 183.785156 55.324219 182.925781 55.738281 182.078125 56.175781 C 181.351562 55.214844 180.804688 54.3125 180.082031 53.578125 C 178.855469 52.347656 177.539062 52.40625 176.363281 53.640625 C 176.050781 53.964844 175.789062 54.332031 175.542969 54.707031 Z M 276.640625 102.683594 C 278.980469 101.710938 281.472656 101.292969 284.46875 101.367188 C 282.101562 104.824219 279.472656 107.496094 275.957031 109.164062 C 275.183594 109.535156 274.253906 109.710938 273.390625 109.738281 C 272.144531 109.773438 271.308594 109.042969 270.867188 107.882812 C 270.457031 106.78125 270.996094 105.867188 271.78125 105.34375 C 273.320312 104.328125 274.941406 103.386719 276.640625 102.683594 Z M 245.222656 73.332031 C 248.632812 72.195312 252.125 71.378906 256.210938 70.972656 C 255.53125 72.628906 255.066406 73.953125 254.457031 75.214844 C 251.46875 81.433594 246.785156 86.230469 241.457031 90.433594 C 237.578125 93.496094 233.550781 96.386719 228.816406 98.03125 C 227.351562 98.535156 225.777344 98.871094 224.226562 98.976562 C 221.917969 99.136719 220.695312 97.957031 220.6875 95.632812 C 220.6875 94.542969 220.890625 93.347656 221.359375 92.378906 C 222.105469 90.847656 222.96875 89.304688 224.101562 88.046875 C 229.992188 81.507812 236.742188 76.152344 245.222656 73.332031 Z M 181.445312 64.710938 C 179.023438 64.988281 176.609375 65.269531 173.675781 65.605469 C 175.261719 63.027344 176.597656 60.871094 178.144531 58.359375 C 179.339844 60.660156 180.34375 62.597656 181.445312 64.710938 Z M 181.445312 64.710938 " fill-opacity="1" fill-rule="nonzero"/></g></g></g></g></svg>